<svg width="248" height="211" viewBox="0 0 248 211" fill="none" xmlns="http://www.w3.org/2000/svg">
<path d="M121.736 12.6572L125.543 20.3728L134.058 21.6099L127.896 27.6157L129.351 36.0958L121.736 32.0923L114.12 36.0958L115.574 27.6157L109.413 21.6099L117.928 20.3728L121.736 12.6572Z" fill="url(#paint0_linear_211_5696)"/>
<path d="M121.527 157.721L121.109 41.8069C121.109 41.8069 143.085 40.183 151.01 0.643555C151.01 0.643555 152.756 47.7653 152.621 51.5567C152.486 55.3487 121.527 157.721 121.527 157.721Z" fill="url(#paint1_linear_211_5696)"/>
<path d="M118.716 54.1062C118.716 54.1062 104.914 51.1362 95.3751 11.6992C95.3751 11.6992 96.6817 60.2524 96.7631 64.1634C96.8445 68.0745 120.271 158.395 120.271 158.395L118.716 54.1062Z" fill="url(#paint2_linear_211_5696)"/>
<path d="M129.35 36.738C129.247 36.738 129.145 36.7137 129.051 36.6645L121.735 32.818L114.419 36.6645C114.202 36.7782 113.941 36.7599 113.741 36.6154C113.543 36.4715 113.444 36.2275 113.485 35.9864L114.882 27.8392L108.963 22.0697C108.788 21.8985 108.724 21.6433 108.8 21.4105C108.876 21.1778 109.077 21.0078 109.319 20.9723L117.5 19.7837L121.158 12.372C121.266 12.1522 121.489 12.0137 121.734 12.0137C121.979 12.0137 122.203 12.1528 122.311 12.372L125.969 19.7837L134.149 20.9723C134.391 21.0072 134.593 21.1772 134.669 21.4105C134.744 21.6433 134.681 21.8991 134.506 22.0697L128.586 27.8392L129.984 35.9864C130.025 36.2275 129.926 36.4715 129.728 36.6154C129.616 36.6965 129.483 36.738 129.35 36.738ZM110.794 22.0572L116.022 27.1534C116.174 27.3008 116.243 27.5146 116.207 27.7231L114.973 34.9187L121.435 31.521C121.623 31.4216 121.846 31.4216 122.034 31.521L128.496 34.9187L127.261 27.7231C127.226 27.5146 127.295 27.3008 127.447 27.1534L132.675 22.0572L125.45 21.0078C125.24 20.9776 125.059 20.8462 124.966 20.656L121.735 14.1096L118.503 20.656C118.41 20.8462 118.228 20.9776 118.019 21.0078L110.794 22.0572Z" fill="url(#paint3_linear_211_5696)"/>
<path d="M121.526 158.363C121.496 158.363 121.464 158.361 121.433 158.356C121.118 158.31 120.884 158.041 120.883 157.722L120.464 41.8086C120.463 41.4716 120.723 41.1903 121.059 41.1642C121.274 41.1476 142.656 39.0464 150.378 0.516143C150.442 0.19634 150.736 -0.0156743 151.06 0.000908009C151.386 0.0275582 151.64 0.292287 151.651 0.619197C151.723 2.54393 153.397 47.8067 153.263 51.578C153.126 55.4091 123.408 153.722 122.142 157.906C122.059 158.181 121.807 158.363 121.526 158.363ZM121.752 42.3754L122.154 153.418C133.102 117.163 151.876 54.3555 151.977 51.5329C152.083 48.5428 150.992 17.869 150.548 5.64897C142.615 37.5966 125.265 41.84 121.752 42.3754Z" fill="url(#paint4_linear_211_5696)"/>
<path d="M120.269 159.036C119.98 159.036 119.722 158.84 119.647 158.554C118.69 154.864 96.2013 68.1159 96.1192 64.1741C96.039 60.3098 94.7448 12.1991 94.7318 11.714C94.7224 11.3847 94.9638 11.1017 95.2901 11.059C95.6194 11.0129 95.9227 11.2248 96 11.5446C100.86 31.6383 106.831 41.978 110.984 47.1138C115.458 52.6458 118.822 53.4672 118.856 53.4749C119.145 53.5412 119.355 53.7971 119.36 54.0938L120.913 158.383C120.918 158.708 120.679 158.985 120.356 159.029C120.327 159.035 120.298 159.036 120.269 159.036ZM96.17 17.3532C96.517 30.2916 97.342 61.0845 97.4057 64.1469C97.4659 67.0209 111.213 120.828 119.547 153.035L118.08 54.583C115.589 53.6994 104.647 48.1538 96.17 17.3532Z" fill="url(#paint5_linear_211_5696)"/>
<path d="M141.972 164.307L120.172 169.411L99.7875 164.307L106.772 153.298H134.708L141.972 164.307Z" fill="url(#paint6_linear_211_5696)"/>
<path d="M120.172 170.053C120.12 170.053 120.067 170.047 120.016 170.034L99.6305 164.931C99.4304 164.881 99.2664 164.737 99.1897 164.546C99.1129 164.354 99.133 164.137 99.2439 163.963L106.228 152.953C106.346 152.767 106.551 152.654 106.771 152.654H134.708C134.924 152.654 135.126 152.763 135.245 152.943L142.509 163.953C142.625 164.129 142.648 164.35 142.57 164.545C142.492 164.74 142.324 164.886 142.119 164.934L120.32 170.037C120.271 170.047 120.221 170.053 120.172 170.053ZM100.808 163.899L120.177 168.748L140.926 163.891L134.362 153.941H107.125L100.808 163.899Z" fill="url(#paint7_linear_211_5696)"/>
<path d="M89.771 202.73C92.4543 200.509 95.5047 198.862 98.63 197.573C99.7913 197.095 100.985 196.658 102.203 196.268C99.0117 194.569 96.6778 192.024 94.2848 189.253C93.3943 188.457 86.7525 180.379 86.8286 180.375C90.9619 179.454 94.5669 178.711 98.8099 179.457C101.466 179.915 103.721 180.978 106.009 182.417C107.89 183.596 109.789 185.024 111.946 186.505C113.424 187.519 114.972 188.526 116.659 189.057C118.344 189.589 120.207 189.604 121.711 188.663C121.899 188.546 122.103 188.41 122.32 188.472C122.506 188.526 122.652 188.714 122.763 188.909C124.856 192.502 122.663 199.609 120.638 201.791C115.219 207.884 109.792 210.635 101.972 209.918C95.1128 209.195 90.7583 208.956 84.3525 210.176C83.7482 210.296 86.0857 206.54 86.2615 206.298C87.3473 204.989 88.4863 203.795 89.771 202.73Z" fill="url(#paint8_linear_211_5696)"/>
<path d="M58.0935 189.655C60.9615 188.502 64.0178 187.965 67.0469 187.763C68.1722 187.689 69.3153 187.66 70.466 187.678C68.0873 185.245 66.6391 182.313 65.1809 179.153C64.5955 178.195 60.5909 169.041 60.6481 169.05C64.5229 169.511 67.8831 169.968 71.4344 171.917C73.6586 173.128 75.38 174.742 77.0323 176.687C78.3902 178.281 79.6997 180.094 81.2116 182.023C82.2479 183.344 83.3408 184.676 84.6626 185.631C85.981 186.586 87.5708 187.138 89.0756 186.756C89.2633 186.708 89.4698 186.649 89.6398 186.766C89.7855 186.866 89.8658 187.073 89.9136 187.274C90.8413 190.995 87.2934 196.542 85.0498 197.865C78.9797 201.619 73.6769 202.479 67.064 199.571C61.2784 196.934 57.5211 195.432 51.6169 194.596C51.058 194.521 53.9773 191.909 54.188 191.748C55.4432 190.92 56.7191 190.209 58.0935 189.655Z" fill="url(#paint9_linear_211_5696)"/>
<path d="M33.0079 168.349C35.8134 168.219 38.6531 168.698 41.3942 169.463C42.4121 169.747 43.4366 170.078 44.4564 170.452C42.8837 167.548 42.2434 164.48 41.6379 161.197C41.3328 160.166 39.7483 150.685 39.792 150.703C43.1587 152.363 46.0745 153.848 48.825 156.716C50.5494 158.503 51.7302 160.484 52.7689 162.731C53.6234 164.574 54.3817 166.591 55.2881 168.769C55.9089 170.261 56.5763 171.776 57.5288 173.027C58.4789 174.276 59.7571 175.249 61.1734 175.371C61.3504 175.386 61.5458 175.397 61.6691 175.552C61.7747 175.684 61.7977 175.891 61.7936 176.082C61.7511 179.642 57.347 183.456 55.0662 183.947C48.8522 185.423 43.979 184.586 38.7699 179.97C34.2313 175.845 31.2216 173.332 26.1666 170.734C25.6868 170.491 28.8535 169.071 29.0765 168.994C30.3724 168.648 31.6636 168.412 33.0079 168.349Z" fill="url(#paint10_linear_211_5696)"/>
<path d="M15.3967 141.108C17.8912 141.907 20.2936 143.268 22.5561 144.852C23.3964 145.442 24.2326 146.073 25.057 146.742C24.2858 143.606 24.3761 140.614 24.5413 137.429C24.4917 136.401 25.1119 127.22 25.1467 127.241C27.758 129.88 30.0288 132.204 31.8683 135.716C33.0237 137.907 33.6569 140.089 34.1042 142.459C34.4737 144.404 34.7186 146.471 35.0591 148.725C35.2928 150.269 35.5613 151.847 36.1402 153.276C36.7179 154.702 37.6468 155.983 38.886 156.543C39.0407 156.613 39.213 156.685 39.2891 156.863C39.354 157.016 39.3304 157.207 39.2844 157.378C38.4665 160.551 33.7024 162.569 31.5661 162.289C25.7133 161.642 21.573 159.351 17.9661 153.508C14.8485 148.32 12.7382 145.06 8.87703 141.043C8.50997 140.665 11.5898 140.407 11.8034 140.41C13.0173 140.518 14.2011 140.726 15.3967 141.108Z" fill="url(#paint11_linear_211_5696)"/>
<path d="M6.14185 110.206C8.07923 111.788 9.82425 113.863 11.417 116.089C12.0083 116.916 12.589 117.781 13.1537 118.675C13.1797 115.518 13.9238 112.774 14.7783 109.866C14.9607 108.903 17.5714 100.524 17.6027 100.545C19.2102 103.914 20.6371 106.862 21.4556 110.751C21.9737 113.18 22.0522 115.416 21.9301 117.756C21.8321 119.677 21.6019 121.664 21.416 123.849C21.2892 125.346 21.1859 126.883 21.3883 128.384C21.5895 129.883 22.1325 131.36 23.1044 132.281C23.226 132.396 23.3623 132.519 23.3912 132.707C23.416 132.868 23.354 133.035 23.2773 133.175C21.8775 135.799 17.2474 136.072 15.4381 135.114C10.4498 132.595 7.3463 129.139 5.53934 122.553C4.01623 116.728 2.95518 112.994 0.634215 107.953C0.412328 107.476 3.07556 108.272 3.25613 108.347C4.25699 108.856 5.213 109.449 6.14185 110.206Z" fill="url(#paint12_linear_211_5696)"/>
<path d="M6.12852 77.8957C7.26274 80.0692 8.13023 82.6471 8.86375 85.3092C9.13521 86.2994 9.39253 87.3192 9.63271 88.3609C10.4518 85.3702 11.7737 83.0036 13.2372 80.5056C13.6267 79.6582 18.0172 72.4579 18.0502 72.4756C18.4073 76.2919 18.7908 79.628 18.4781 83.6373C18.2904 86.1419 17.8065 88.3011 17.1367 90.4829C16.5897 92.2744 15.9205 94.0777 15.2477 96.077C14.7874 97.4469 14.3389 98.8587 14.1607 100.338C13.9819 101.814 14.1005 103.383 14.7172 104.574C14.7939 104.724 14.8819 104.885 14.8642 105.07C14.8488 105.229 14.7573 105.364 14.6605 105.469C12.8713 107.445 8.86849 106.134 7.56608 104.627C3.94449 100.582 2.18059 96.298 2.37061 89.4518C2.6167 83.4164 2.75538 79.49 2.3181 73.8697C2.27502 73.3373 4.18939 75.0015 4.31568 75.1347C4.9778 75.9626 5.58442 76.8552 6.12852 77.8957Z" fill="url(#paint13_linear_211_5696)"/>
<path d="M16.2395 46.4104C16.3245 48.9321 16.0967 51.7659 15.781 54.6311C15.6624 55.696 15.529 56.7851 15.3809 57.8884C16.9896 55.224 18.8136 53.3265 20.8059 51.3295C21.3789 50.6342 27.3392 44.8665 27.3787 44.8783C26.2386 48.8273 25.3805 52.2936 23.8261 56.1727C22.8637 58.5973 21.8091 60.5682 20.6123 62.4882C19.6321 64.0659 18.5628 65.6069 17.4404 67.3297C16.6727 68.51 15.9061 69.7317 15.3431 71.1057C14.7801 72.4779 14.4373 74.0355 14.6096 75.3946C14.6308 75.5646 14.658 75.75 14.5931 75.9229C14.537 76.071 14.4272 76.1698 14.3192 76.2385C12.3311 77.532 9.44599 74.909 8.83167 73.0168C7.07782 67.8875 6.95509 63.1592 9.33978 56.5352C11.528 50.7148 13.0174 46.8884 14.8073 41.1858C14.9755 40.6445 15.8123 42.9127 15.8618 43.0863C16.0607 44.1215 16.197 45.2023 16.2395 46.4104Z" fill="url(#paint14_linear_211_5696)"/>
<path d="M37.3589 17.9623C36.1509 20.5397 34.6077 23.3445 33.0545 26.1499C32.4762 27.1922 31.8838 28.2528 31.283 29.3236C33.6771 27.1211 35.9296 25.7424 38.3716 24.2932C39.1045 23.7738 46.4274 19.5684 46.4781 19.572C43.5948 23.3066 41.2962 26.6236 38.3899 30.1302C36.5835 32.3232 34.9506 34.0123 33.2481 35.5929C31.853 36.8929 30.4179 38.1188 28.8853 39.5016C27.8361 40.4492 26.7774 41.434 25.8255 42.6321C24.8736 43.8284 24.0315 45.2758 23.671 46.6895C23.6261 46.866 23.5795 47.0602 23.4674 47.2118C23.3712 47.3409 23.2508 47.4043 23.1434 47.4375C21.147 48.0771 19.8694 44.5266 20.1226 42.4461C20.7351 36.7685 22.5551 32.0283 27.3321 26.1096C31.6365 20.9306 34.6266 17.5057 38.9859 12.2681C39.3984 11.7694 38.8295 14.3006 38.7805 14.4907C38.3899 15.594 37.936 16.7275 37.3589 17.9623Z" fill="url(#paint15_linear_211_5696)"/>
<path d="M84.3257 210.8C84.092 210.8 83.8725 210.685 83.745 210.485C83.1826 209.605 85.7332 205.97 85.7591 205.934C86.986 204.454 88.161 203.26 89.3737 202.254L89.3742 202.253C91.8575 200.198 94.8069 198.48 98.3919 197.001C99.1538 196.687 99.9304 196.391 100.712 196.116C98.0355 194.412 95.9258 192.104 93.8374 189.686C93.2396 189.126 91.0219 186.484 89.7366 184.939C86.102 180.568 86.102 180.568 86.2413 180.171L86.3552 179.847L86.6916 179.771C90.4807 178.926 94.3992 178.053 98.9148 178.847C101.371 179.272 103.661 180.211 106.337 181.894C107.564 182.664 108.793 183.533 110.093 184.454C110.802 184.955 111.532 185.473 112.295 185.996C113.712 186.969 115.232 187.961 116.843 188.468C117.838 188.783 119.751 189.156 121.38 188.14C121.63 187.983 122.012 187.742 122.49 187.88C122.809 187.971 123.074 188.209 123.299 188.606C125.577 192.518 123.165 199.976 121.089 202.214C115.281 208.744 109.539 211.232 101.912 210.536C94.5856 209.763 90.5433 209.628 84.4656 210.786C84.4196 210.795 84.3723 210.8 84.3257 210.8ZM93.1003 208.703C95.9695 208.703 98.7814 208.961 102.034 209.304C109.313 209.968 114.574 207.676 120.173 201.381C122.074 199.331 124.172 192.567 122.225 189.223C122.199 189.176 122.176 189.142 122.157 189.116C122.124 189.136 122.087 189.158 122.058 189.176C120.516 190.14 118.539 190.304 116.47 189.65C114.697 189.091 113.088 188.043 111.593 187.017C110.825 186.491 110.089 185.97 109.377 185.465C108.091 184.555 106.876 183.695 105.677 182.944C103.144 181.351 100.993 180.464 98.7012 180.069C94.7969 179.384 91.2921 180.028 87.9172 180.768C89.5253 182.757 94.002 188.173 94.6948 188.793L94.7503 188.85C97.1574 191.637 99.401 194.078 102.49 195.722L103.785 196.411L102.388 196.858C101.202 197.238 100.016 197.672 98.8629 198.146C95.3947 199.577 92.5485 201.232 90.1633 203.208C89.0101 204.164 87.8889 205.304 86.7358 206.694C86.5364 206.976 85.6405 208.457 85.1649 209.4C88.0701 208.898 90.607 208.703 93.1003 208.703Z" fill="url(#paint16_linear_211_5696)"/>
<path d="M74.5628 201.921C72.0435 201.921 69.5072 201.323 66.8133 200.139C61.3334 197.642 57.5743 196.066 51.5291 195.211C51.2446 195.172 51.0209 194.979 50.9484 194.705C50.6952 193.746 53.7798 191.28 53.8111 191.257C55.2433 190.311 56.5557 189.607 57.8605 189.081C60.5184 188.013 63.5098 187.379 67.0045 187.145C67.6884 187.1 68.3795 187.071 69.0711 187.06C67.1927 184.818 65.934 182.264 64.6316 179.442C64.2457 178.781 62.896 175.77 62.117 174.012C59.91 169.035 59.91 169.035 60.1342 168.703L60.3461 168.391L60.7208 168.435C64.2722 168.858 67.9434 169.295 71.732 171.374C73.7885 172.494 75.5696 174.009 77.5034 176.286C78.4027 177.342 79.2743 178.483 80.1967 179.692C80.68 180.325 81.1769 180.977 81.698 181.641C82.6906 182.907 83.7652 184.219 85.0239 185.129C85.7929 185.688 87.3231 186.561 88.9217 186.156C89.1708 186.092 89.595 185.984 89.9904 186.257C90.2454 186.433 90.4177 186.719 90.515 187.131C91.5295 191.2 87.6777 197.033 85.3627 198.399C81.5487 200.758 78.0734 201.921 74.5628 201.921ZM52.5866 194.117C58.2913 195.026 62.1714 196.662 67.3196 199.008C73.4233 201.692 78.4671 201.209 84.7224 197.339C86.8102 196.108 90.1686 190.863 89.3118 187.424C89.3047 187.391 89.2964 187.364 89.2894 187.341C89.2752 187.344 89.2622 187.348 89.2498 187.351C87.6813 187.748 85.9304 187.315 84.2981 186.133C82.9089 185.129 81.77 183.741 80.7237 182.406C80.1997 181.736 79.6992 181.081 79.213 180.444C78.2995 179.248 77.4379 178.119 76.5598 177.088C74.7286 174.933 73.0568 173.506 71.1371 172.46C67.9215 170.696 64.7301 170.176 61.6249 169.792C62.6287 172.127 65.2571 178.091 65.708 178.83L65.7416 178.894C67.2087 182.073 68.6096 184.896 70.907 187.245L71.9597 188.322L70.4537 188.298C69.3325 188.278 68.1989 188.307 67.0859 188.381C63.724 188.606 60.8577 189.211 58.3225 190.23C57.0957 190.725 55.8541 191.391 54.5269 192.266C54.2949 192.451 53.2192 193.439 52.5866 194.117Z" fill="url(#paint17_linear_211_5696)"/>
<path d="M49.9542 185.223C45.6669 185.223 42.0182 183.68 38.3553 180.434C34.042 176.514 31.0536 173.945 25.88 171.286C25.6251 171.156 25.4764 170.901 25.4958 170.62C25.5625 169.66 28.8383 168.422 28.8714 168.41C30.362 168.01 31.6916 167.792 32.9763 167.732C35.5781 167.616 38.3854 167.982 41.5579 168.868C42.1167 169.023 42.6767 169.193 43.2344 169.376C42.1114 166.847 41.5626 164.217 41.0321 161.341C40.8379 160.641 40.2885 157.509 39.9751 155.683C39.0852 150.504 39.0852 150.504 39.3762 150.244L39.6878 149.965L40.0631 150.15C43.1553 151.673 46.3532 153.249 49.269 156.29C50.8624 157.941 52.1152 159.849 53.3279 162.473C53.9033 163.714 54.4314 165.024 54.9909 166.411C55.2688 167.1 55.5544 167.808 55.856 168.533C56.4514 169.964 57.1094 171.46 58.0182 172.654C58.976 173.913 60.1143 174.66 61.2226 174.756C61.4592 174.776 61.8647 174.81 62.1503 175.169C62.3332 175.399 62.417 175.702 62.4087 176.098C62.3609 180.092 57.6346 184.027 55.1927 184.554C53.3297 184.996 51.5953 185.223 49.9542 185.223ZM27.2084 170.584C32.0581 173.178 35.1367 175.835 39.1826 179.512C43.9673 183.751 48.529 184.864 54.9195 183.346C56.9637 182.904 61.1329 179.265 61.1707 176.076C61.1712 176.043 61.1713 176.016 61.1701 175.993C61.1589 175.992 61.1476 175.991 61.1382 175.99C59.6552 175.862 58.2053 174.944 57.0333 173.402C56.036 172.092 55.3408 170.513 54.7141 169.008C54.4096 168.278 54.1228 167.566 53.8431 166.873C53.2895 165.501 52.7667 164.205 52.2043 162.991C51.0518 160.498 49.871 158.695 48.3768 157.147C46.0582 154.729 43.7136 153.362 40.5806 151.788C40.9913 154.315 42.0004 160.249 42.23 161.022L42.2453 161.085C42.8549 164.392 43.4835 167.357 44.9995 170.157L45.7796 171.599L44.2412 171.033C43.2492 170.668 42.2353 170.341 41.2256 170.058C38.183 169.209 35.5061 168.85 33.0353 168.968C31.8397 169.024 30.5963 169.228 29.2331 169.592C29.0071 169.679 27.9118 170.189 27.2084 170.584Z" fill="url(#paint18_linear_211_5696)"/>
<path d="M31.9724 162.933C31.7989 162.933 31.6354 162.923 31.4843 162.903C25.1334 162.201 20.9282 159.489 17.4376 153.834C14.4528 148.868 12.359 145.562 8.42935 141.473C8.22694 141.264 8.16971 140.97 8.28301 140.708C8.65184 139.852 11.7565 139.791 11.8102 139.791C13.2159 139.916 14.4345 140.153 15.5823 140.519L15.5828 140.52C17.8873 141.257 20.2838 142.509 22.9087 144.346C23.3111 144.629 23.7148 144.922 24.1149 145.223C23.7 142.641 23.7785 140.125 23.9195 137.398C23.8895 136.837 24.0759 133.722 24.1904 131.921C24.5079 126.897 24.5079 126.897 24.8295 126.708L25.245 126.464L25.5843 126.807C28.1106 129.359 30.4971 131.771 32.4138 135.43C33.4807 137.453 34.1895 139.586 34.71 142.346C34.9608 143.666 35.1537 145.033 35.3579 146.48C35.4565 147.18 35.5574 147.898 35.6695 148.634C35.9032 150.181 36.1599 151.683 36.7123 153.044C37.3 154.495 38.1616 155.537 39.1389 155.98C39.3424 156.072 39.6889 156.228 39.8564 156.621C39.9668 156.881 39.9745 157.19 39.88 157.54C39.0108 160.914 34.4592 162.933 31.9724 162.933ZM9.91767 141.242C13.5605 145.142 15.623 148.411 18.4957 153.189C21.8033 158.548 25.6114 161.008 31.6331 161.674C33.515 161.913 37.9627 160.015 38.6827 157.224C38.6921 157.19 38.698 157.163 38.7016 157.141C38.6827 157.132 38.6632 157.123 38.6479 157.116C37.3602 156.534 36.2726 155.256 35.5651 153.508C34.9626 152.024 34.6816 150.378 34.4456 148.819C34.3329 148.077 34.2314 147.356 34.1322 146.652C33.9304 145.22 33.7398 143.868 33.4943 142.575C32.9974 139.941 32.3259 137.915 31.3185 136.005C29.7252 132.963 27.7589 130.79 25.6539 128.639C25.4733 131.187 25.121 136.642 25.1582 137.399C24.9912 140.67 24.9145 143.573 25.6563 146.594L26.0965 148.385L24.6649 147.223C23.8564 146.566 23.0267 145.939 22.1987 145.359C19.6777 143.595 17.3904 142.397 15.2063 141.698C14.1465 141.36 13.0146 141.14 11.7465 141.026C11.5104 141.033 10.5845 141.128 9.91767 141.242ZM9.31987 140.612C9.32105 140.613 9.32161 140.614 9.32279 140.615C9.32161 140.615 9.32105 140.613 9.31987 140.612Z" fill="url(#paint19_linear_211_5696)"/>
<path d="M18.0483 136.244C16.8963 136.244 15.84 136.027 15.1478 135.661C9.66433 132.892 6.70427 129.141 4.94157 122.717C3.46213 117.06 2.39812 113.266 0.070665 108.211C-0.0562118 107.938 -0.0101858 107.636 0.192227 107.425C0.828972 106.762 3.46626 107.765 3.49223 107.775C4.66126 108.368 5.64087 109 6.53196 109.727C8.30056 111.172 10.0639 113.136 11.9198 115.729C12.1594 116.064 12.3978 116.407 12.6338 116.754C12.8675 114.33 13.4777 112.093 14.1835 109.691C14.2803 109.165 15.1442 106.316 15.6494 104.67C17.0527 100.101 17.0527 100.101 17.3649 99.9723L17.9072 99.749L18.2483 100.463C19.8546 103.828 21.242 106.733 22.0605 110.624C22.5391 112.864 22.689 115.075 22.5473 117.788C22.4812 119.081 22.3567 120.393 22.2257 121.782C22.1608 122.47 22.0941 123.175 22.0322 123.902C21.9053 125.4 21.8073 126.865 22.0015 128.301C22.2086 129.841 22.7509 131.095 23.5299 131.831C23.6939 131.987 23.943 132.223 24.0026 132.612C24.0457 132.882 23.9837 133.173 23.8202 133.472C22.7551 135.469 20.2288 136.244 18.0483 136.244ZM1.57371 108.527C3.68518 113.267 4.72557 116.995 6.13774 122.396C7.7954 128.435 10.5714 131.962 15.7173 134.56C17.2952 135.396 21.5264 135.14 22.7309 132.883C22.7468 132.854 22.7574 132.831 22.7639 132.814C22.7421 132.791 22.7144 132.764 22.6925 132.744C21.6946 131.8 21.0177 130.285 20.7734 128.466C20.5628 126.907 20.6702 125.304 20.7982 123.796C20.8602 123.066 20.9269 122.357 20.9924 121.665C21.1222 120.29 21.2455 118.99 21.3099 117.724C21.4462 115.123 21.304 113.012 20.849 110.881C20.1585 107.602 19.0337 105.016 17.7101 102.216C16.9512 104.627 15.5154 109.293 15.385 109.982C14.5105 112.97 13.7958 115.642 13.771 118.681L13.7533 120.791L12.6279 119.006C12.072 118.126 11.4949 117.265 10.9119 116.45C9.12143 113.947 7.43189 112.063 5.74885 110.686C4.92681 110.016 4.01919 109.431 2.97349 108.898C2.79822 108.836 2.12784 108.648 1.57371 108.527Z" fill="url(#paint20_linear_211_5696)"/>
<path d="M12.0767 107.09C12.0543 107.09 12.0319 107.09 12.0089 107.09C10.2037 107.069 8.0916 106.185 7.09547 105.034C3.11685 100.589 1.56544 96.0674 1.74956 89.4356C2.00331 83.1965 2.12606 79.4039 1.69881 73.9187C1.67402 73.6078 1.83395 73.3277 2.10599 73.2074C2.93276 72.8414 4.74679 74.6922 4.76508 74.7111C5.54051 75.677 6.15481 76.6127 6.67589 77.6089L6.67651 77.6095C7.69742 79.5668 8.58143 81.9612 9.45954 85.1456C9.54628 85.4618 9.63185 85.7828 9.71624 86.1073C10.5129 84.0067 11.5509 82.1578 12.7011 80.1939C12.7088 80.1702 17.3359 72.0633 17.8511 71.8903L18.5917 71.6416L18.7581 73.4094C19.0797 76.7857 19.3837 79.9754 19.0939 83.6881C18.9204 86.0007 18.4985 88.1535 17.7266 90.6669C17.3684 91.8389 16.963 93.005 16.5334 94.2386C16.3032 94.8989 16.0683 95.5759 15.8317 96.2765C15.3714 97.6475 14.9436 98.996 14.7736 100.413C14.5877 101.943 14.763 103.32 15.2652 104.292C15.3691 104.494 15.513 104.773 15.4782 105.132C15.4528 105.399 15.3307 105.655 15.1147 105.889C14.4048 106.674 13.3538 107.09 12.0767 107.09ZM3.00887 74.8455C3.35055 79.8664 3.2272 83.5933 2.98761 89.4783C2.81412 95.7517 4.27352 100.024 8.02554 104.215C8.6971 104.992 10.412 105.833 12.0236 105.851C12.6757 105.864 13.5916 105.727 14.2 105.054C14.2419 105.009 14.2507 104.988 14.2507 104.988C14.2389 105.012 14.2 104.928 14.1746 104.878C13.5497 103.67 13.329 102.038 13.5438 100.265C13.7285 98.7318 14.1959 97.259 14.6585 95.8814C14.8964 95.1761 15.1336 94.4962 15.3643 93.8312C15.7898 92.6088 16.1917 91.4539 16.5428 90.3038C17.2864 87.8816 17.6924 85.8124 17.8594 83.5927C18.1184 80.2745 17.8977 77.4762 17.6044 74.3516C16.2867 76.502 14.0442 80.233 13.7987 80.766C12.3004 83.3304 11.0186 85.643 10.2296 88.5254L9.5811 90.8931L9.02814 88.5011C8.78973 87.4689 8.53305 86.4497 8.26513 85.4737C7.41122 82.3775 6.55729 80.0601 5.57827 78.1827C5.09437 77.2577 4.52314 76.3871 3.83034 75.5225C3.73119 75.4277 3.3653 75.1203 3.00887 74.8455Z" fill="url(#paint21_linear_211_5696)"/>
<path d="M13.142 77.2043C12.7625 77.2043 12.3647 77.1327 11.957 76.9882C10.1978 76.3657 8.6865 74.5778 8.24214 73.208C6.31833 67.5812 6.46587 62.6877 8.75673 56.3254L9.48438 54.3929C11.3138 49.5402 12.6356 46.0348 14.216 40.9997C14.3358 40.6142 14.6556 40.475 14.8893 40.4827C15.7226 40.4922 16.3416 42.5117 16.4573 42.9162C16.6916 44.122 16.8184 45.2407 16.8574 46.3896C16.9524 49.1825 16.6603 52.2977 16.3959 54.6991C16.3699 54.9319 16.3434 55.1652 16.3162 55.3997C17.5555 53.7539 18.9051 52.358 20.3669 50.8923C20.6802 50.5079 22.6913 48.534 23.8592 47.3952C27.1686 44.1681 27.1686 44.1711 27.551 44.2836L28.1435 44.4565L27.9724 45.05C27.744 45.8424 27.5262 46.6152 27.312 47.3756C26.4593 50.4084 25.6538 53.2724 24.3992 56.4029C23.511 58.6433 22.5037 60.622 21.1364 62.8156C20.5191 63.8099 19.8741 64.7777 19.1913 65.8016C18.7889 66.4057 18.3775 67.024 17.9579 67.6671C17.2227 68.7977 16.4585 70.0118 15.9144 71.3401C15.3248 72.7775 15.0793 74.1899 15.2221 75.3163C15.2499 75.5319 15.2882 75.8298 15.1708 76.1413C15.077 76.3918 14.9017 76.6003 14.6515 76.7602C14.1989 77.0557 13.6884 77.2043 13.142 77.2043ZM15.0127 42.5816C13.5869 47.0227 12.3293 50.3569 10.6428 54.83L9.91811 56.753C7.73583 62.8162 7.59005 67.4729 9.41648 72.8165C9.76525 73.8902 11.0329 75.3471 12.3695 75.8203C12.9956 76.0424 13.5373 76.0075 13.9805 75.7202C14.0195 75.6734 14.0053 75.5657 13.9959 75.4934C13.8241 74.1378 14.0991 72.5033 14.7689 70.8711C15.3537 69.4438 16.1528 68.1723 16.9205 66.992C17.3419 66.3447 17.7561 65.7234 18.1609 65.1152C18.8378 64.0996 19.4775 63.1402 20.0848 62.1618C21.412 60.0327 22.3874 58.1157 23.249 55.9446C24.4794 52.8745 25.2767 50.0407 26.1206 47.0416C26.1359 46.9883 26.1507 46.9345 26.1654 46.8812C24.3561 48.6294 21.6303 51.3033 21.2833 51.7238C19.2415 53.7747 17.4581 55.6449 15.9108 58.2086L14.37 60.7606L14.7666 57.8066C14.9141 56.708 15.0469 55.6236 15.1649 54.5635C15.4251 52.2035 15.7113 49.1464 15.6205 46.4328C15.5827 45.3485 15.4623 44.2919 15.2534 43.2034C15.2222 43.1075 15.1271 42.8581 15.0127 42.5816ZM15.398 41.3693L15.3974 41.3711L15.398 41.3693Z" fill="url(#paint22_linear_211_5696)"/>
<path d="M22.6692 48.1356C22.1741 48.1356 21.6932 47.9526 21.2559 47.5908C19.96 46.5188 19.3049 44.0267 19.5067 42.3715C20.1741 36.1803 22.3022 31.3543 26.8485 25.721C29.0319 23.0945 30.9079 20.8819 32.7231 18.7416C34.5083 16.6368 36.3536 14.461 38.5082 11.8724C38.7902 11.5324 39.1467 11.5431 39.3691 11.655C39.6601 11.8037 40.059 12.0074 39.3786 14.6458C38.9324 15.9143 38.4592 17.0686 37.9186 18.2264C36.7419 20.7392 35.2637 23.438 33.5948 26.4512C33.5405 26.5501 33.4856 26.6479 33.4307 26.7462C34.9054 25.6547 36.3937 24.7462 38.0538 23.7613C38.0815 23.7394 46.014 18.9548 46.5162 18.9548C46.5179 18.9548 46.5191 18.9548 46.5209 18.9554L47.6722 19.0377L46.9664 19.9515C45.9024 21.3297 44.9104 22.6616 43.9503 23.9497C42.282 26.19 40.7052 28.3055 38.8646 30.5264C37.1827 32.5684 35.5794 34.2722 33.6674 36.0477C32.8164 36.8407 31.9649 37.5934 31.0626 38.3911C30.4872 38.9004 29.9 39.4198 29.2981 39.9629C28.2931 40.8702 27.2344 41.8533 26.3079 43.0188C25.2982 44.2873 24.5741 45.6459 24.2684 46.844C24.2112 47.0684 24.1416 47.3403 23.9616 47.5825C23.8016 47.7957 23.5815 47.9503 23.3242 48.0308C23.1059 48.1007 22.8858 48.1356 22.6692 48.1356ZM38.229 14.1394C36.582 16.1068 35.1055 17.8485 33.6679 19.5429C31.8551 21.6808 29.9802 23.891 27.8068 26.5063C23.4287 31.9317 21.3786 36.5712 20.7371 42.5136C20.5813 43.7958 21.1195 45.8703 22.0454 46.6361C22.4396 46.9618 22.7512 46.9127 22.9531 46.8487C23.0038 46.7966 23.0386 46.6616 23.064 46.5621C23.4187 45.1727 24.2248 43.6495 25.3401 42.2471C26.325 41.0082 27.4268 39.9848 28.4696 39.0432C29.075 38.4965 29.6651 37.9748 30.244 37.4631C31.1398 36.6707 31.9855 35.9227 32.8253 35.141C34.6965 33.4034 36.2651 31.7368 37.9121 29.7375C39.7338 27.5397 41.3006 25.4368 42.9595 23.21C43.3537 22.6799 43.7538 22.144 44.1621 21.5991C41.9804 22.8546 39.1473 24.5034 38.7295 24.7995C36.1335 26.3428 33.9973 27.6694 31.7017 29.7807L28.8384 32.4138L30.7427 29.0215C31.3429 27.9525 31.9348 26.8918 32.5131 25.8507C34.1707 22.8582 35.6372 20.1795 36.798 17.7017C37.3226 16.5812 37.7793 15.463 38.1966 14.2839C38.2042 14.2496 38.2154 14.1998 38.229 14.1394Z" fill="url(#paint23_linear_211_5696)"/>
<path d="M158.23 202.73C155.547 200.509 152.496 198.862 149.371 197.573C148.21 197.095 147.016 196.658 145.798 196.268C148.989 194.569 151.323 192.024 153.716 189.253C154.607 188.457 161.249 180.379 161.172 180.375C157.039 179.454 153.434 178.711 149.191 179.457C146.536 179.915 144.28 180.978 141.992 182.417C140.111 183.596 138.212 185.024 136.055 186.505C134.577 187.519 133.029 188.526 131.342 189.057C129.657 189.589 127.794 189.604 126.29 188.663C126.102 188.546 125.898 188.41 125.681 188.472C125.495 188.526 125.349 188.714 125.239 188.909C123.146 192.502 125.339 199.609 127.364 201.791C132.783 207.884 138.209 210.635 146.03 209.918C152.889 209.195 157.243 208.956 163.649 210.176C164.253 210.296 161.916 206.54 161.74 206.298C160.654 204.989 159.515 203.795 158.23 202.73Z" fill="url(#paint24_linear_211_5696)"/>
<path d="M189.907 189.655C187.038 188.502 183.983 187.965 180.954 187.763C179.828 187.689 178.685 187.66 177.534 187.678C179.913 185.245 181.361 182.313 182.82 179.153C183.405 178.195 187.41 169.041 187.352 169.05C183.478 169.511 180.117 169.968 176.566 171.917C174.342 173.128 172.621 174.742 170.968 176.687C169.61 178.281 168.3 180.094 166.789 182.023C165.753 183.344 164.66 184.676 163.338 185.631C162.019 186.586 160.43 187.138 158.925 186.756C158.737 186.708 158.531 186.649 158.361 186.766C158.215 186.866 158.135 187.073 158.087 187.274C157.159 190.995 160.707 196.542 162.951 197.865C169.021 201.619 174.324 202.479 180.937 199.571C186.723 196.934 190.48 195.432 196.384 194.596C196.943 194.521 194.024 191.909 193.813 191.748C192.557 190.92 191.281 190.209 189.907 189.655Z" fill="url(#paint25_linear_211_5696)"/>
<path d="M214.992 168.348C212.187 168.218 209.347 168.697 206.606 169.462C205.588 169.746 204.564 170.077 203.544 170.451C205.116 167.547 205.756 164.479 206.362 161.196C206.667 160.165 208.252 150.684 208.208 150.702C204.841 152.362 201.926 153.847 199.175 156.715C197.451 158.502 196.27 160.483 195.231 162.73C194.377 164.573 193.618 166.59 192.712 168.768C192.091 170.26 191.424 171.775 190.471 173.026C189.521 174.275 188.243 175.248 186.827 175.37C186.65 175.385 186.454 175.396 186.331 175.551C186.225 175.683 186.202 175.89 186.207 176.081C186.248 179.641 190.653 183.455 192.934 183.946C199.148 185.422 204.022 184.585 209.23 179.969C213.769 175.844 216.778 173.331 221.833 170.733C222.313 170.49 219.147 169.07 218.924 168.993C217.628 168.647 216.337 168.412 214.992 168.348Z" fill="url(#paint26_linear_211_5696)"/>
<path d="M232.605 141.108C230.11 141.907 227.707 143.268 225.445 144.852C224.605 145.442 223.769 146.073 222.944 146.742C223.715 143.606 223.625 140.614 223.46 137.429C223.51 136.401 222.889 127.22 222.854 127.241C220.243 129.88 217.972 132.204 216.133 135.716C214.977 137.907 214.344 140.089 213.897 142.459C213.528 144.404 213.283 146.471 212.942 148.725C212.708 150.269 212.44 151.847 211.861 153.276C211.283 154.702 210.354 155.983 209.116 156.543C208.961 156.613 208.789 156.685 208.713 156.863C208.648 157.016 208.671 157.207 208.717 157.378C209.535 160.551 214.299 162.569 216.436 162.289C222.289 161.642 226.429 159.351 230.036 153.508C233.153 148.32 235.264 145.06 239.124 141.043C239.491 140.665 236.411 140.407 236.198 140.41C234.985 140.518 233.801 140.726 232.605 141.108Z" fill="url(#paint27_linear_211_5696)"/>
<path d="M241.858 110.206C239.921 111.788 238.176 113.863 236.583 116.089C235.992 116.916 235.411 117.781 234.847 118.675C234.821 115.518 234.077 112.774 233.222 109.866C233.04 108.903 230.429 100.524 230.398 100.545C228.79 103.914 227.363 106.862 226.545 110.751C226.026 113.18 225.948 115.416 226.07 117.756C226.168 119.677 226.399 121.664 226.584 123.849C226.711 125.346 226.815 126.883 226.612 128.384C226.411 129.883 225.868 131.36 224.896 132.281C224.775 132.396 224.638 132.519 224.609 132.707C224.585 132.868 224.646 133.035 224.723 133.175C226.123 135.799 230.753 136.072 232.562 135.114C237.551 132.595 240.654 129.139 242.462 122.553C243.984 116.728 245.046 112.994 247.367 107.953C247.589 107.476 244.926 108.272 244.745 108.347C243.743 108.856 242.787 109.449 241.858 110.206Z" fill="url(#paint28_linear_211_5696)"/>
<path d="M241.872 77.8957C240.738 80.0692 239.87 82.6471 239.137 85.3092C238.865 86.2994 238.608 87.3192 238.367 88.3609C237.548 85.3702 236.226 83.0036 234.763 80.5056C234.373 79.6582 229.983 72.4579 229.95 72.4756C229.592 76.2919 229.209 79.628 229.522 83.6373C229.709 86.1419 230.193 88.3011 230.864 90.4829C231.411 92.2744 232.08 94.0777 232.753 96.077C233.213 97.4469 233.661 98.8587 233.84 100.338C234.018 101.814 233.899 103.383 233.283 104.574C233.206 104.724 233.119 104.885 233.136 105.07C233.152 105.229 233.243 105.364 233.34 105.469C235.129 107.445 239.132 106.134 240.434 104.627C244.056 100.582 245.82 96.298 245.63 89.4518C245.384 83.4164 245.245 79.49 245.682 73.8697C245.725 73.3373 243.811 75.0015 243.685 75.1347C243.023 75.9626 242.416 76.8552 241.872 77.8957Z" fill="url(#paint29_linear_211_5696)"/>
<path d="M231.761 46.4104C231.676 48.9321 231.904 51.7659 232.22 54.6311C232.338 55.696 232.472 56.7851 232.62 57.8884C231.012 55.224 229.187 53.3265 227.195 51.3295C226.622 50.6342 220.662 44.8665 220.622 44.8783C221.762 48.8273 222.62 52.2936 224.175 56.1727C225.137 58.5973 226.192 60.5682 227.388 62.4882C228.369 64.0659 229.438 65.6069 230.56 67.3297C231.328 68.51 232.095 69.7317 232.658 71.1057C233.221 72.4779 233.563 74.0355 233.391 75.3946C233.37 75.5646 233.343 75.75 233.408 75.9229C233.464 76.071 233.574 76.1698 233.682 76.2385C235.67 77.532 238.555 74.909 239.168 73.0168C240.922 67.8875 241.045 63.1592 238.66 56.5352C236.472 50.7148 234.983 46.8884 233.193 41.1858C233.025 40.6445 232.188 42.9127 232.138 43.0863C231.94 44.1215 231.804 45.2023 231.761 46.4104Z" fill="url(#paint30_linear_211_5696)"/>
<path d="M210.642 17.9623C211.85 20.5397 213.393 23.3445 214.946 26.1499C215.524 27.1922 216.117 28.2528 216.718 29.3236C214.323 27.1211 212.071 25.7424 209.629 24.2932C208.896 23.7738 201.573 19.5684 201.522 19.572C204.406 23.3066 206.704 26.6236 209.611 30.1302C211.417 32.3232 213.05 34.0123 214.753 35.5929C216.148 36.8929 217.583 38.1188 219.116 39.5016C220.165 40.4492 221.224 41.434 222.176 42.6321C223.127 43.8284 223.97 45.2758 224.33 46.6895C224.375 46.866 224.422 47.0602 224.534 47.2118C224.63 47.3409 224.75 47.4043 224.858 47.4375C226.854 48.0771 228.132 44.5266 227.879 42.4461C227.266 36.7685 225.446 32.0283 220.669 26.1096C216.365 20.9306 213.375 17.5057 209.015 12.2681C208.603 11.7694 209.172 14.3006 209.221 14.4907C209.611 15.594 210.065 16.7275 210.642 17.9623Z" fill="url(#paint31_linear_211_5696)"/>
<path d="M163.672 210.8C163.624 210.8 163.576 210.795 163.528 210.785C157.453 209.629 153.414 209.764 146.094 210.535C138.456 211.238 132.717 208.743 126.9 202.205C124.831 199.975 122.42 192.518 124.703 188.599C124.924 188.208 125.189 187.971 125.51 187.879C125.982 187.741 126.368 187.983 126.598 188.127C128.248 189.158 130.161 188.784 131.155 188.469C132.767 187.96 134.286 186.969 135.704 185.996C136.469 185.471 137.202 184.952 137.912 184.449C139.21 183.531 140.436 182.663 141.662 181.894C144.339 180.212 146.628 179.272 149.086 178.848C153.599 178.055 157.517 178.927 161.307 179.772L161.643 179.846L161.757 180.171C161.897 180.568 161.897 180.568 158.262 184.939C156.977 186.484 154.76 189.126 154.161 189.686C152.073 192.104 149.963 194.413 147.287 196.116C148.068 196.391 148.845 196.687 149.607 197.001C153.192 198.48 156.142 200.198 158.625 202.254L158.626 202.254C159.838 203.26 161.013 204.454 162.216 205.904C162.267 205.971 164.812 209.612 164.253 210.486C164.126 210.685 163.907 210.8 163.672 210.8ZM125.84 189.115C125.823 189.139 125.802 189.173 125.777 189.216C123.825 192.567 125.923 199.332 127.817 201.372C133.425 207.677 138.681 209.975 145.972 209.303C152.047 208.663 156.588 208.321 162.833 209.4C162.355 208.456 161.456 206.968 161.237 206.662C160.11 205.305 158.988 204.164 157.835 203.208C155.45 201.232 152.604 199.577 149.136 198.147C147.983 197.672 146.797 197.238 145.61 196.858L144.214 196.411L145.508 195.722C148.598 194.079 150.842 191.637 153.248 188.85L153.304 188.794C153.996 188.174 158.473 182.757 160.081 180.768C156.706 180.029 153.201 179.38 149.299 180.069C147.007 180.465 144.855 181.351 142.322 182.944C141.125 183.694 139.912 184.552 138.629 185.461C137.914 185.968 137.176 186.489 136.406 187.017C134.911 188.043 133.304 189.091 131.529 189.651C129.46 190.303 127.483 190.141 125.963 189.19C125.92 189.164 125.877 189.137 125.84 189.115Z" fill="url(#paint32_linear_211_5696)"/>
<path d="M173.439 201.919C169.925 201.919 166.447 200.755 162.626 198.392C160.323 197.033 156.471 191.2 157.486 187.124C157.582 186.719 157.754 186.432 158.01 186.257C158.404 185.983 158.829 186.092 159.057 186.15C160.674 186.562 162.205 185.686 162.976 185.13C164.235 184.219 165.31 182.907 166.302 181.641C166.823 180.976 167.32 180.325 167.803 179.692C168.726 178.483 169.597 177.341 170.497 176.285C172.431 174.009 174.212 172.494 176.271 171.373C180.057 169.295 183.729 168.858 187.28 168.435L187.655 168.39L187.866 168.703C188.091 169.035 188.091 169.035 185.884 174.012C185.105 175.77 183.755 178.781 183.369 179.442C182.067 182.264 180.809 184.816 178.929 187.06C179.621 187.071 180.312 187.099 180.996 187.145C184.49 187.379 187.482 188.012 190.14 189.081H190.14C191.444 189.607 192.757 190.31 194.155 191.231C194.222 191.28 197.31 193.734 197.052 194.705C196.98 194.978 196.757 195.171 196.469 195.21C190.426 196.065 186.667 197.641 181.196 200.135C178.498 201.32 175.959 201.919 173.439 201.919ZM158.71 187.34C158.704 187.361 158.697 187.387 158.69 187.416C157.831 190.862 161.19 196.107 163.266 197.332C169.532 201.209 174.577 201.69 180.688 199.004C185.83 196.661 189.711 195.024 195.412 194.116C194.778 193.437 193.695 192.442 193.435 192.238C192.145 191.389 190.903 190.724 189.676 190.229C187.141 189.21 184.275 188.605 180.913 188.38C179.799 188.306 178.663 188.276 177.545 188.297L176.039 188.321L177.091 187.244C179.389 184.894 180.791 182.071 182.257 178.893L182.291 178.829C182.742 178.09 185.37 172.126 186.374 169.791C183.269 170.175 180.077 170.696 176.864 172.459C174.942 173.505 173.27 174.932 171.439 177.087C170.561 178.118 169.699 179.247 168.786 180.443C168.3 181.08 167.8 181.735 167.275 182.405C166.228 183.74 165.089 185.128 163.7 186.132C162.068 187.314 160.318 187.748 158.772 187.355C158.752 187.35 158.731 187.345 158.71 187.34ZM196.298 193.983C196.296 193.983 196.294 193.983 196.292 193.983C196.295 193.983 196.296 193.983 196.298 193.983Z" fill="url(#paint33_linear_211_5696)"/>
<path d="M198.044 185.22C196.4 185.22 194.662 184.993 192.793 184.549C190.364 184.026 185.638 180.09 185.59 176.089C185.582 175.7 185.666 175.396 185.849 175.167C186.134 174.807 186.54 174.773 186.758 174.755C187.884 174.658 189.023 173.912 189.981 172.651C190.89 171.457 191.547 169.961 192.143 168.531C192.445 167.804 192.731 167.094 193.011 166.404C193.569 165.019 194.098 163.711 194.672 162.47C195.885 159.847 197.137 157.939 198.732 156.286C201.648 153.247 204.845 151.672 207.936 150.147L208.312 149.962L208.624 150.242C208.914 150.503 208.914 150.503 208.025 155.681C207.711 157.507 207.162 160.639 206.968 161.339C206.436 164.216 205.887 166.847 204.765 169.373C205.322 169.192 205.883 169.022 206.441 168.865C209.614 167.98 212.423 167.613 215.023 167.729C216.308 167.79 217.637 168.008 219.086 168.395C219.161 168.419 222.437 169.658 222.504 170.618C222.523 170.899 222.375 171.155 222.117 171.285C216.946 173.943 213.958 176.512 209.65 180.427C205.984 183.676 202.333 185.22 198.044 185.22ZM186.828 175.992C186.828 176.013 186.828 176.038 186.828 176.068C186.866 179.264 191.035 182.904 193.067 183.342C199.47 184.862 204.032 183.751 208.823 179.506C212.864 175.833 215.943 173.176 220.79 170.583C220.084 170.188 218.979 169.674 218.72 169.578C217.403 169.228 216.159 169.024 214.964 168.968C212.491 168.85 209.816 169.209 206.774 170.059C205.765 170.341 204.751 170.669 203.759 171.033L202.22 171.599L203 170.157C204.514 167.36 205.144 164.393 205.754 161.085L205.77 161.022C205.999 160.246 207.008 154.314 207.419 151.788C204.286 153.361 201.942 154.728 199.624 157.145C198.128 158.695 196.947 160.498 195.795 162.991C195.234 164.203 194.712 165.498 194.158 166.867C193.879 167.562 193.591 168.275 193.286 169.007C192.659 170.512 191.965 172.09 190.966 173.402C189.794 174.943 188.343 175.862 186.883 175.987C186.864 175.989 186.846 175.99 186.828 175.992ZM221.553 170.183C221.551 170.183 221.55 170.185 221.549 170.185C221.55 170.185 221.551 170.184 221.553 170.183Z" fill="url(#paint34_linear_211_5696)"/>
<path d="M216.019 162.933C213.542 162.933 208.988 160.914 208.117 157.532C208.024 157.188 208.032 156.879 208.141 156.621C208.31 156.226 208.656 156.07 208.842 155.986C209.837 155.536 210.699 154.494 211.287 153.043C211.839 151.681 212.095 150.18 212.33 148.633C212.442 147.896 212.542 147.178 212.641 146.478C212.845 145.032 213.038 143.665 213.289 142.343C213.809 139.584 214.518 137.451 215.586 135.427C217.501 131.77 219.888 129.358 222.415 126.805L222.753 126.463L223.169 126.706C223.491 126.896 223.491 126.896 223.809 131.918C223.922 133.719 224.109 136.834 224.079 137.458C224.22 140.134 224.298 142.64 223.884 145.221C224.284 144.92 224.687 144.627 225.09 144.345C227.715 142.507 230.11 141.256 232.416 140.518L232.417 140.517C233.563 140.151 234.782 139.914 236.142 139.792C236.227 139.774 239.345 139.847 239.716 140.707C239.829 140.968 239.772 141.262 239.568 141.473C235.638 145.563 233.544 148.869 230.565 153.826C227.071 159.487 222.866 162.2 216.503 162.904C216.353 162.923 216.191 162.933 216.019 162.933ZM209.297 157.14C209.301 157.16 209.306 157.186 209.315 157.217C210.036 160.015 214.469 161.913 216.355 161.675C222.389 161.007 226.196 158.548 229.509 153.182C232.292 148.551 234.438 145.148 238.082 141.243C237.41 141.128 236.472 141.033 236.199 141.029C234.984 141.14 233.853 141.36 232.794 141.697C230.609 142.397 228.321 143.594 225.8 145.359C224.969 145.942 224.139 146.569 223.335 147.222L221.902 148.385L222.343 146.594C223.085 143.573 223.008 140.67 222.841 137.461C222.877 136.654 222.526 131.189 222.345 128.639C220.241 130.789 218.274 132.961 216.682 136.003C215.674 137.915 215.002 139.941 214.505 142.574C214.26 143.867 214.069 145.219 213.867 146.651C213.768 147.355 213.667 148.077 213.555 148.818C213.318 150.378 213.037 152.023 212.434 153.508C211.727 155.255 210.639 156.533 209.37 157.107C209.345 157.118 209.32 157.13 209.297 157.14ZM238.677 140.614C238.676 140.615 238.676 140.616 238.674 140.617C238.676 140.615 238.676 140.615 238.677 140.614Z" fill="url(#paint35_linear_211_5696)"/>
<path d="M229.956 136.244C227.776 136.244 225.245 135.469 224.176 133.466C224.015 133.173 223.954 132.884 223.996 132.611C224.058 132.219 224.309 131.983 224.459 131.842C225.249 131.093 225.792 129.84 225.998 128.301C226.192 126.864 226.094 125.4 225.967 123.901C225.905 123.171 225.839 122.464 225.773 121.774C225.642 120.388 225.518 119.078 225.452 117.787C225.311 115.073 225.461 112.863 225.94 110.622C226.758 106.734 228.143 103.831 229.748 100.468L230.092 99.7461L230.637 99.9729C230.948 100.103 230.948 100.103 232.35 104.67C232.855 106.316 233.719 109.163 233.831 109.75C234.524 112.103 235.132 114.331 235.366 116.754C235.602 116.405 235.84 116.064 236.08 115.729C237.936 113.135 239.698 111.172 241.467 109.726C242.358 109 243.338 108.368 244.463 107.794C244.533 107.763 247.168 106.761 247.807 107.424C248.009 107.635 248.055 107.938 247.927 108.213C245.603 113.262 244.538 117.057 243.061 122.709C241.296 129.14 238.335 132.891 232.842 135.665C232.154 136.029 231.103 136.244 229.956 136.244ZM225.235 132.813C225.241 132.83 225.252 132.85 225.265 132.876C226.473 135.141 230.704 135.396 232.272 134.565C237.428 131.961 240.204 128.435 241.864 122.387C243.274 116.991 244.314 113.263 246.425 108.526C245.865 108.649 245.182 108.843 244.972 108.921C243.979 109.43 243.072 110.015 242.25 110.685C240.567 112.061 238.878 113.946 237.087 116.449C236.505 117.262 235.928 118.123 235.37 119.006L234.245 120.788L234.227 118.68C234.202 115.639 233.488 112.967 232.628 110.04C232.486 109.303 231.047 104.628 230.288 102.214C228.965 105.015 227.841 107.601 227.151 110.878C226.696 113.01 226.553 115.12 226.689 117.723C226.754 118.987 226.876 120.285 227.006 121.657C227.072 122.351 227.138 123.062 227.201 123.795C227.329 125.304 227.436 126.906 227.226 128.466C226.981 130.284 226.305 131.797 225.321 132.729C225.291 132.759 225.258 132.789 225.235 132.813Z" fill="url(#paint36_linear_211_5696)"/>
<path d="M235.922 107.089C234.645 107.089 233.594 106.674 232.88 105.885C232.668 105.655 232.546 105.4 232.519 105.132C232.485 104.768 232.63 104.488 232.726 104.303C233.235 103.32 233.41 101.942 233.224 100.413C233.054 98.9954 232.626 97.6469 232.165 96.2753C231.929 95.5753 231.694 94.8984 231.464 94.238C231.034 93.0044 230.629 91.8383 230.271 90.6651C229.499 88.1529 229.077 86.0002 228.904 83.6857C228.614 79.9748 228.918 76.7857 229.239 73.4094L229.406 71.6416L230.146 71.8903C230.661 72.0633 235.289 80.1709 235.324 80.2484C236.453 82.1702 237.486 84.0085 238.281 86.1074C238.366 85.7834 238.451 85.4624 238.538 85.1462C239.417 81.9618 240.301 79.5674 241.322 77.6095L241.322 77.6089C241.843 76.6122 242.458 75.6765 243.201 74.7484C243.251 74.6922 245.064 72.8426 245.892 73.2074C246.164 73.3277 246.324 73.6078 246.299 73.9199C245.871 79.4116 245.994 83.2019 246.248 89.4268C246.433 96.0668 244.881 100.588 240.895 105.041C239.906 106.184 237.794 107.068 235.989 107.089C235.967 107.089 235.944 107.089 235.922 107.089ZM233.76 105.011C233.767 105.017 233.778 105.032 233.796 105.05C234.407 105.726 235.32 105.86 235.975 105.85C237.587 105.831 239.302 104.991 239.965 104.222C243.725 100.023 245.184 95.7512 245.01 89.4688C244.771 83.5969 244.647 79.8718 244.99 74.8467C244.627 75.1263 244.25 75.4461 244.129 75.5657C243.475 76.3871 242.904 77.2571 242.42 78.1827C241.441 80.0601 240.587 82.3775 239.733 85.4742C239.466 86.4496 239.209 87.4689 238.97 88.5011L238.417 90.8931L237.769 88.5254C236.98 85.6425 235.698 83.3298 234.228 80.8205C233.962 80.2473 231.713 76.505 230.394 74.3516C230.101 77.4762 229.88 80.2745 230.139 83.591C230.306 85.8124 230.712 87.8817 231.456 90.3027C231.807 91.454 232.209 92.6094 232.634 93.8312C232.865 94.4956 233.102 95.1761 233.339 95.8809C233.803 97.259 234.27 98.7324 234.455 100.265C234.67 102.038 234.449 103.67 233.834 104.86C233.806 104.913 233.774 104.973 233.76 105.011Z" fill="url(#paint37_linear_211_5696)"/>
<path d="M234.86 77.2024C234.312 77.2024 233.8 77.0538 233.344 76.7565C233.099 76.6013 232.924 76.3923 232.829 76.1394C232.712 75.829 232.75 75.5312 232.775 75.3334C232.921 74.1874 232.674 72.7756 232.086 71.34C231.542 70.011 230.778 68.797 230.042 67.6664C229.622 67.0203 229.208 66.4008 228.804 65.795C228.123 64.7722 227.48 63.8068 226.862 62.8137C225.496 60.6201 224.489 58.6421 223.599 56.4005C222.346 53.2729 221.541 50.4089 220.688 47.3773C220.474 46.6157 220.257 45.8417 220.028 45.0493L219.856 44.4558L220.449 44.2829C220.835 44.1704 220.836 44.1722 224.141 47.3945C225.309 48.5333 227.32 50.5072 227.673 50.9354C229.106 52.3692 230.447 53.7562 231.684 55.399C231.657 55.1651 231.63 54.9317 231.604 54.699C231.34 52.2969 231.048 49.1818 231.143 46.3889C231.182 45.2399 231.309 44.1212 231.53 42.9682C231.659 42.5104 232.278 40.4909 233.111 40.4814C233.326 40.4672 233.665 40.6129 233.785 41.0002C235.362 46.0282 236.683 49.5294 238.51 54.3762L239.241 56.3164C241.535 62.6864 241.682 67.5799 239.755 73.2156C239.314 74.5765 237.802 76.3644 236.043 76.9869C235.636 77.1308 235.239 77.2024 234.86 77.2024ZM221.836 46.8798C221.851 46.9343 221.866 46.9882 221.881 47.0421C222.725 50.0411 223.521 52.8737 224.751 55.9415C225.612 58.1138 226.589 60.0308 227.915 62.1599C228.522 63.1364 229.16 64.0947 229.836 65.108C230.243 65.7174 230.658 66.3416 231.081 66.9906C231.849 68.171 232.647 69.4425 233.232 70.8703C233.901 72.5001 234.176 74.1341 234.008 75.4713C233.995 75.5637 233.982 75.6721 233.99 75.7071C234.462 76.0049 235.004 76.0411 235.63 75.819C236.967 75.3458 238.235 73.8883 238.581 72.8241C240.411 67.4716 240.265 62.8149 238.08 56.7439L237.352 54.8133C235.668 50.3461 234.413 47.0166 232.989 42.5826C232.871 42.871 232.771 43.1381 232.735 43.259C232.539 44.2906 232.419 45.3465 232.381 46.4309C232.29 49.1445 232.577 52.2022 232.837 54.5622C232.955 55.6217 233.088 56.706 233.235 57.8046L233.631 60.7575L232.091 58.2068C230.542 55.6418 228.759 53.7722 226.758 51.7657C226.383 51.3156 223.648 48.6322 221.836 46.8798ZM232.603 41.3703L232.604 41.3721L232.603 41.3703Z" fill="url(#paint38_linear_211_5696)"/>
<path d="M225.331 48.1338C225.113 48.1338 224.891 48.0983 224.668 48.0266C224.415 47.9479 224.195 47.7933 224.036 47.5801C223.857 47.3379 223.787 47.066 223.737 46.8676C223.424 45.6435 222.701 44.2855 221.691 43.017C220.764 41.8509 219.706 40.8678 218.701 39.9605C218.102 39.4204 217.518 38.9046 216.946 38.3982C216.041 37.5975 215.186 36.8412 214.331 36.0447C212.422 34.2721 210.818 32.5695 209.133 30.5228C207.291 28.3007 205.713 26.1823 204.042 23.9402C203.084 22.6544 202.094 21.3255 201.032 19.9491L200.326 19.0354L201.478 18.953C201.479 18.9524 201.481 18.9524 201.482 18.9524C201.982 18.9524 209.917 23.737 209.987 23.7868C211.619 24.7539 213.097 25.6547 214.568 26.7438C214.514 26.6461 214.46 26.5471 214.405 26.4494C212.736 23.4362 211.258 20.7368 210.081 18.224C209.538 17.0603 209.064 15.906 208.636 14.6949C207.94 12.005 208.34 11.8019 208.631 11.6532C208.851 11.5407 209.21 11.5306 209.492 11.8723C211.642 14.4545 213.485 16.6274 215.267 18.7286C217.085 20.8724 218.965 23.0885 221.145 25.7121C225.698 31.3525 227.826 36.1791 228.494 42.3785C228.694 44.0261 228.039 46.5182 226.743 47.589C226.307 47.9508 225.827 48.1338 225.331 48.1338ZM203.838 21.5973C204.245 22.1398 204.643 22.674 205.035 23.2005C206.696 25.4302 208.265 27.5362 210.087 29.7351C211.738 31.7386 213.306 33.4045 215.174 35.1392C216.017 35.925 216.867 36.6766 217.766 37.472C218.342 37.9807 218.928 38.4995 219.53 39.0425C220.573 39.9842 221.674 41.0075 222.66 42.2471C223.775 43.6489 224.581 45.1721 224.929 46.5366C224.961 46.6603 224.995 46.796 225.03 46.8422C225.247 46.9121 225.559 46.9612 225.953 46.6361C226.879 45.8703 227.418 43.7958 227.263 42.5213C226.621 36.5706 224.571 31.9311 220.186 26.4986C218.015 23.8869 216.137 21.6725 214.321 19.531C212.888 17.8408 211.415 16.1044 209.775 14.1447C209.793 14.2235 209.807 14.2892 209.82 14.336C210.219 15.4571 210.676 16.5746 211.203 17.7016C212.364 20.1795 213.83 22.8582 215.488 25.8513C216.066 26.8918 216.658 27.9519 217.258 29.0215L219.162 32.4125L216.299 29.7807C214.002 27.6688 211.866 26.3422 209.313 24.8273C208.868 24.5117 206.024 22.8552 203.838 21.5973Z" fill="url(#paint39_linear_211_5696)"/>
<defs>
<linearGradient id="paint0_linear_211_5696" x1="109.413" y1="24.3765" x2="134.058" y2="24.3765" gradientUnits="userSpaceOnUse">
<stop stop-color="#A57D24"/>
<stop offset="0.2112" stop-color="#D8BE62"/>
<stop offset="0.328" stop-color="#F1DD80"/>
<stop offset="0.524" stop-color="#FBF2A8"/>
<stop offset="0.7298" stop-color="#F1DD80"/>
<stop offset="1" stop-color="#A57D24"/>
</linearGradient>
<linearGradient id="paint1_linear_211_5696" x1="121.109" y1="79.1825" x2="152.628" y2="79.1825" gradientUnits="userSpaceOnUse">
<stop stop-color="#A57D24"/>
<stop offset="0.2112" stop-color="#D8BE62"/>
<stop offset="0.328" stop-color="#F1DD80"/>
<stop offset="0.524" stop-color="#FBF2A8"/>
<stop offset="0.7298" stop-color="#F1DD80"/>
<stop offset="1" stop-color="#A57D24"/>
</linearGradient>
<linearGradient id="paint2_linear_211_5696" x1="95.3749" y1="85.0471" x2="120.27" y2="85.0471" gradientUnits="userSpaceOnUse">
<stop stop-color="#A57D24"/>
<stop offset="0.2112" stop-color="#D8BE62"/>
<stop offset="0.328" stop-color="#F1DD80"/>
<stop offset="0.524" stop-color="#FBF2A8"/>
<stop offset="0.7298" stop-color="#F1DD80"/>
<stop offset="1" stop-color="#A57D24"/>
</linearGradient>
<linearGradient id="paint3_linear_211_5696" x1="112.687" y1="17.41" x2="130.846" y2="35.5044" gradientUnits="userSpaceOnUse">
<stop stop-color="#A57D24"/>
<stop offset="0.2112" stop-color="#D8BE62"/>
<stop offset="0.328" stop-color="#F1DD80"/>
<stop offset="0.524" stop-color="#FBF2A8"/>
<stop offset="0.7298" stop-color="#F1DD80"/>
<stop offset="1" stop-color="#A57D24"/>
</linearGradient>
<linearGradient id="paint4_linear_211_5696" x1="104.055" y1="46.8542" x2="168.71" y2="111.279" gradientUnits="userSpaceOnUse">
<stop stop-color="#A57D24"/>
<stop offset="0.2112" stop-color="#D8BE62"/>
<stop offset="0.328" stop-color="#F1DD80"/>
<stop offset="0.524" stop-color="#FBF2A8"/>
<stop offset="0.7298" stop-color="#F1DD80"/>
<stop offset="1" stop-color="#A57D24"/>
</linearGradient>
<linearGradient id="paint5_linear_211_5696" x1="64.6012" y1="41.6685" x2="151.352" y2="128.111" gradientUnits="userSpaceOnUse">
<stop stop-color="#A57D24"/>
<stop offset="0.2112" stop-color="#D8BE62"/>
<stop offset="0.328" stop-color="#F1DD80"/>
<stop offset="0.524" stop-color="#FBF2A8"/>
<stop offset="0.7298" stop-color="#F1DD80"/>
<stop offset="1" stop-color="#A57D24"/>
</linearGradient>
<linearGradient id="paint6_linear_211_5696" x1="99.7872" y1="161.354" x2="141.972" y2="161.354" gradientUnits="userSpaceOnUse">
<stop stop-color="#A57D24"/>
<stop offset="0.2112" stop-color="#D8BE62"/>
<stop offset="0.328" stop-color="#F1DD80"/>
<stop offset="0.524" stop-color="#FBF2A8"/>
<stop offset="0.7298" stop-color="#F1DD80"/>
<stop offset="1" stop-color="#A57D24"/>
</linearGradient>
<linearGradient id="paint7_linear_211_5696" x1="108.813" y1="150.337" x2="132.892" y2="174.331" gradientUnits="userSpaceOnUse">
<stop stop-color="#A57D24"/>
<stop offset="0.2112" stop-color="#D8BE62"/>
<stop offset="0.328" stop-color="#F1DD80"/>
<stop offset="0.524" stop-color="#FBF2A8"/>
<stop offset="0.7298" stop-color="#F1DD80"/>
<stop offset="1" stop-color="#A57D24"/>
</linearGradient>
<linearGradient id="paint8_linear_211_5696" x1="84.2532" y1="194.665" x2="123.611" y2="194.665" gradientUnits="userSpaceOnUse">
<stop stop-color="#A57D24"/>
<stop offset="0.2112" stop-color="#D8BE62"/>
<stop offset="0.328" stop-color="#F1DD80"/>
<stop offset="0.524" stop-color="#FBF2A8"/>
<stop offset="0.7298" stop-color="#F1DD80"/>
<stop offset="1" stop-color="#A57D24"/>
</linearGradient>
<linearGradient id="paint9_linear_211_5696" x1="51.5456" y1="185.179" x2="90.0651" y2="185.179" gradientUnits="userSpaceOnUse">
<stop stop-color="#A57D24"/>
<stop offset="0.2112" stop-color="#D8BE62"/>
<stop offset="0.328" stop-color="#F1DD80"/>
<stop offset="0.524" stop-color="#FBF2A8"/>
<stop offset="0.7298" stop-color="#F1DD80"/>
<stop offset="1" stop-color="#A57D24"/>
</linearGradient>
<linearGradient id="paint10_linear_211_5696" x1="26.1157" y1="167.658" x2="61.7927" y2="167.658" gradientUnits="userSpaceOnUse">
<stop stop-color="#A57D24"/>
<stop offset="0.2112" stop-color="#D8BE62"/>
<stop offset="0.328" stop-color="#F1DD80"/>
<stop offset="0.524" stop-color="#FBF2A8"/>
<stop offset="0.7298" stop-color="#F1DD80"/>
<stop offset="1" stop-color="#A57D24"/>
</linearGradient>
<linearGradient id="paint11_linear_211_5696" x1="8.8477" y1="144.778" x2="39.3295" y2="144.778" gradientUnits="userSpaceOnUse">
<stop stop-color="#A57D24"/>
<stop offset="0.2112" stop-color="#D8BE62"/>
<stop offset="0.328" stop-color="#F1DD80"/>
<stop offset="0.524" stop-color="#FBF2A8"/>
<stop offset="0.7298" stop-color="#F1DD80"/>
<stop offset="1" stop-color="#A57D24"/>
</linearGradient>
<linearGradient id="paint12_linear_211_5696" x1="0.621527" y1="118.082" x2="23.3975" y2="118.082" gradientUnits="userSpaceOnUse">
<stop stop-color="#A57D24"/>
<stop offset="0.2112" stop-color="#D8BE62"/>
<stop offset="0.328" stop-color="#F1DD80"/>
<stop offset="0.524" stop-color="#FBF2A8"/>
<stop offset="0.7298" stop-color="#F1DD80"/>
<stop offset="1" stop-color="#A57D24"/>
</linearGradient>
<linearGradient id="paint13_linear_211_5696" x1="2.31698" y1="89.4731" x2="18.5934" y2="89.4731" gradientUnits="userSpaceOnUse">
<stop stop-color="#A57D24"/>
<stop offset="0.2112" stop-color="#D8BE62"/>
<stop offset="0.328" stop-color="#F1DD80"/>
<stop offset="0.524" stop-color="#FBF2A8"/>
<stop offset="0.7298" stop-color="#F1DD80"/>
<stop offset="1" stop-color="#A57D24"/>
</linearGradient>
<linearGradient id="paint14_linear_211_5696" x1="7.53051" y1="58.8429" x2="27.3784" y2="58.8429" gradientUnits="userSpaceOnUse">
<stop stop-color="#A57D24"/>
<stop offset="0.2112" stop-color="#D8BE62"/>
<stop offset="0.328" stop-color="#F1DD80"/>
<stop offset="0.524" stop-color="#FBF2A8"/>
<stop offset="0.7298" stop-color="#F1DD80"/>
<stop offset="1" stop-color="#A57D24"/>
</linearGradient>
<linearGradient id="paint15_linear_211_5696" x1="20.0905" y1="29.8576" x2="46.4784" y2="29.8576" gradientUnits="userSpaceOnUse">
<stop stop-color="#A57D24"/>
<stop offset="0.2112" stop-color="#D8BE62"/>
<stop offset="0.328" stop-color="#F1DD80"/>
<stop offset="0.524" stop-color="#FBF2A8"/>
<stop offset="0.7298" stop-color="#F1DD80"/>
<stop offset="1" stop-color="#A57D24"/>
</linearGradient>
<linearGradient id="paint16_linear_211_5696" x1="84.0527" y1="210.816" x2="114.906" y2="180.072" gradientUnits="userSpaceOnUse">
<stop stop-color="#A57D24"/>
<stop offset="0.2112" stop-color="#D8BE62"/>
<stop offset="0.328" stop-color="#F1DD80"/>
<stop offset="0.524" stop-color="#FBF2A8"/>
<stop offset="0.7298" stop-color="#F1DD80"/>
<stop offset="1" stop-color="#A57D24"/>
</linearGradient>
<linearGradient id="paint17_linear_211_5696" x1="56.2595" y1="200.166" x2="80.1523" y2="176.358" gradientUnits="userSpaceOnUse">
<stop stop-color="#A57D24"/>
<stop offset="0.2112" stop-color="#D8BE62"/>
<stop offset="0.328" stop-color="#F1DD80"/>
<stop offset="0.524" stop-color="#FBF2A8"/>
<stop offset="0.7298" stop-color="#F1DD80"/>
<stop offset="1" stop-color="#A57D24"/>
</linearGradient>
<linearGradient id="paint18_linear_211_5696" x1="35.016" y1="180.507" x2="54.2798" y2="161.311" gradientUnits="userSpaceOnUse">
<stop stop-color="#A57D24"/>
<stop offset="0.2112" stop-color="#D8BE62"/>
<stop offset="0.328" stop-color="#F1DD80"/>
<stop offset="0.524" stop-color="#FBF2A8"/>
<stop offset="0.7298" stop-color="#F1DD80"/>
<stop offset="1" stop-color="#A57D24"/>
</linearGradient>
<linearGradient id="paint19_linear_211_5696" x1="18.1891" y1="155.524" x2="36.2602" y2="137.518" gradientUnits="userSpaceOnUse">
<stop stop-color="#A57D24"/>
<stop offset="0.2112" stop-color="#D8BE62"/>
<stop offset="0.328" stop-color="#F1DD80"/>
<stop offset="0.524" stop-color="#FBF2A8"/>
<stop offset="0.7298" stop-color="#F1DD80"/>
<stop offset="1" stop-color="#A57D24"/>
</linearGradient>
<linearGradient id="paint20_linear_211_5696" x1="5.27651" y1="127.329" x2="25.404" y2="107.273" gradientUnits="userSpaceOnUse">
<stop stop-color="#A57D24"/>
<stop offset="0.2112" stop-color="#D8BE62"/>
<stop offset="0.328" stop-color="#F1DD80"/>
<stop offset="0.524" stop-color="#FBF2A8"/>
<stop offset="0.7298" stop-color="#F1DD80"/>
<stop offset="1" stop-color="#A57D24"/>
</linearGradient>
<linearGradient id="paint21_linear_211_5696" x1="0.116682" y1="98.0427" x2="22.5878" y2="75.6514" gradientUnits="userSpaceOnUse">
<stop stop-color="#A57D24"/>
<stop offset="0.2112" stop-color="#D8BE62"/>
<stop offset="0.328" stop-color="#F1DD80"/>
<stop offset="0.524" stop-color="#FBF2A8"/>
<stop offset="0.7298" stop-color="#F1DD80"/>
<stop offset="1" stop-color="#A57D24"/>
</linearGradient>
<linearGradient id="paint22_linear_211_5696" x1="3.7782" y1="69.5339" x2="28.5425" y2="44.8575" gradientUnits="userSpaceOnUse">
<stop stop-color="#A57D24"/>
<stop offset="0.2112" stop-color="#D8BE62"/>
<stop offset="0.328" stop-color="#F1DD80"/>
<stop offset="0.524" stop-color="#FBF2A8"/>
<stop offset="0.7298" stop-color="#F1DD80"/>
<stop offset="1" stop-color="#A57D24"/>
</linearGradient>
<linearGradient id="paint23_linear_211_5696" x1="17.3391" y1="43.6791" x2="44.8811" y2="16.235" gradientUnits="userSpaceOnUse">
<stop stop-color="#A57D24"/>
<stop offset="0.2112" stop-color="#D8BE62"/>
<stop offset="0.328" stop-color="#F1DD80"/>
<stop offset="0.524" stop-color="#FBF2A8"/>
<stop offset="0.7298" stop-color="#F1DD80"/>
<stop offset="1" stop-color="#A57D24"/>
</linearGradient>
<linearGradient id="paint24_linear_211_5696" x1="124.39" y1="194.665" x2="163.748" y2="194.665" gradientUnits="userSpaceOnUse">
<stop stop-color="#A57D24"/>
<stop offset="0.2112" stop-color="#D8BE62"/>
<stop offset="0.328" stop-color="#F1DD80"/>
<stop offset="0.524" stop-color="#FBF2A8"/>
<stop offset="0.7298" stop-color="#F1DD80"/>
<stop offset="1" stop-color="#A57D24"/>
</linearGradient>
<linearGradient id="paint25_linear_211_5696" x1="157.935" y1="185.179" x2="196.455" y2="185.179" gradientUnits="userSpaceOnUse">
<stop stop-color="#A57D24"/>
<stop offset="0.2112" stop-color="#D8BE62"/>
<stop offset="0.328" stop-color="#F1DD80"/>
<stop offset="0.524" stop-color="#FBF2A8"/>
<stop offset="0.7298" stop-color="#F1DD80"/>
<stop offset="1" stop-color="#A57D24"/>
</linearGradient>
<linearGradient id="paint26_linear_211_5696" x1="186.208" y1="167.657" x2="221.885" y2="167.657" gradientUnits="userSpaceOnUse">
<stop stop-color="#A57D24"/>
<stop offset="0.2112" stop-color="#D8BE62"/>
<stop offset="0.328" stop-color="#F1DD80"/>
<stop offset="0.524" stop-color="#FBF2A8"/>
<stop offset="0.7298" stop-color="#F1DD80"/>
<stop offset="1" stop-color="#A57D24"/>
</linearGradient>
<linearGradient id="paint27_linear_211_5696" x1="208.672" y1="144.778" x2="239.154" y2="144.778" gradientUnits="userSpaceOnUse">
<stop stop-color="#A57D24"/>
<stop offset="0.2112" stop-color="#D8BE62"/>
<stop offset="0.328" stop-color="#F1DD80"/>
<stop offset="0.524" stop-color="#FBF2A8"/>
<stop offset="0.7298" stop-color="#F1DD80"/>
<stop offset="1" stop-color="#A57D24"/>
</linearGradient>
<linearGradient id="paint28_linear_211_5696" x1="224.603" y1="118.082" x2="247.379" y2="118.082" gradientUnits="userSpaceOnUse">
<stop stop-color="#A57D24"/>
<stop offset="0.2112" stop-color="#D8BE62"/>
<stop offset="0.328" stop-color="#F1DD80"/>
<stop offset="0.524" stop-color="#FBF2A8"/>
<stop offset="0.7298" stop-color="#F1DD80"/>
<stop offset="1" stop-color="#A57D24"/>
</linearGradient>
<linearGradient id="paint29_linear_211_5696" x1="229.407" y1="89.4731" x2="245.683" y2="89.4731" gradientUnits="userSpaceOnUse">
<stop stop-color="#A57D24"/>
<stop offset="0.2112" stop-color="#D8BE62"/>
<stop offset="0.328" stop-color="#F1DD80"/>
<stop offset="0.524" stop-color="#FBF2A8"/>
<stop offset="0.7298" stop-color="#F1DD80"/>
<stop offset="1" stop-color="#A57D24"/>
</linearGradient>
<linearGradient id="paint30_linear_211_5696" x1="220.622" y1="58.8429" x2="240.47" y2="58.8429" gradientUnits="userSpaceOnUse">
<stop stop-color="#A57D24"/>
<stop offset="0.2112" stop-color="#D8BE62"/>
<stop offset="0.328" stop-color="#F1DD80"/>
<stop offset="0.524" stop-color="#FBF2A8"/>
<stop offset="0.7298" stop-color="#F1DD80"/>
<stop offset="1" stop-color="#A57D24"/>
</linearGradient>
<linearGradient id="paint31_linear_211_5696" x1="201.522" y1="29.8576" x2="227.91" y2="29.8576" gradientUnits="userSpaceOnUse">
<stop stop-color="#A57D24"/>
<stop offset="0.2112" stop-color="#D8BE62"/>
<stop offset="0.328" stop-color="#F1DD80"/>
<stop offset="0.524" stop-color="#FBF2A8"/>
<stop offset="0.7298" stop-color="#F1DD80"/>
<stop offset="1" stop-color="#A57D24"/>
</linearGradient>
<linearGradient id="paint32_linear_211_5696" x1="134.295" y1="209.719" x2="162.954" y2="181.162" gradientUnits="userSpaceOnUse">
<stop stop-color="#A57D24"/>
<stop offset="0.2112" stop-color="#D8BE62"/>
<stop offset="0.328" stop-color="#F1DD80"/>
<stop offset="0.524" stop-color="#FBF2A8"/>
<stop offset="0.7298" stop-color="#F1DD80"/>
<stop offset="1" stop-color="#A57D24"/>
</linearGradient>
<linearGradient id="paint33_linear_211_5696" x1="166.047" y1="202.057" x2="193.723" y2="174.48" gradientUnits="userSpaceOnUse">
<stop stop-color="#A57D24"/>
<stop offset="0.2112" stop-color="#D8BE62"/>
<stop offset="0.328" stop-color="#F1DD80"/>
<stop offset="0.524" stop-color="#FBF2A8"/>
<stop offset="0.7298" stop-color="#F1DD80"/>
<stop offset="1" stop-color="#A57D24"/>
</linearGradient>
<linearGradient id="paint34_linear_211_5696" x1="190.485" y1="183.82" x2="216.377" y2="158.019" gradientUnits="userSpaceOnUse">
<stop stop-color="#A57D24"/>
<stop offset="0.2112" stop-color="#D8BE62"/>
<stop offset="0.328" stop-color="#F1DD80"/>
<stop offset="0.524" stop-color="#FBF2A8"/>
<stop offset="0.7298" stop-color="#F1DD80"/>
<stop offset="1" stop-color="#A57D24"/>
</linearGradient>
<linearGradient id="paint35_linear_211_5696" x1="208.446" y1="158.892" x2="233.255" y2="134.171" gradientUnits="userSpaceOnUse">
<stop stop-color="#A57D24"/>
<stop offset="0.2112" stop-color="#D8BE62"/>
<stop offset="0.328" stop-color="#F1DD80"/>
<stop offset="0.524" stop-color="#FBF2A8"/>
<stop offset="0.7298" stop-color="#F1DD80"/>
<stop offset="1" stop-color="#A57D24"/>
</linearGradient>
<linearGradient id="paint36_linear_211_5696" x1="220.235" y1="129.765" x2="245.241" y2="104.849" gradientUnits="userSpaceOnUse">
<stop stop-color="#A57D24"/>
<stop offset="0.2112" stop-color="#D8BE62"/>
<stop offset="0.328" stop-color="#F1DD80"/>
<stop offset="0.524" stop-color="#FBF2A8"/>
<stop offset="0.7298" stop-color="#F1DD80"/>
<stop offset="1" stop-color="#A57D24"/>
</linearGradient>
<linearGradient id="paint37_linear_211_5696" x1="225.275" y1="98.2584" x2="248.179" y2="75.4361" gradientUnits="userSpaceOnUse">
<stop stop-color="#A57D24"/>
<stop offset="0.2112" stop-color="#D8BE62"/>
<stop offset="0.328" stop-color="#F1DD80"/>
<stop offset="0.524" stop-color="#FBF2A8"/>
<stop offset="0.7298" stop-color="#F1DD80"/>
<stop offset="1" stop-color="#A57D24"/>
</linearGradient>
<linearGradient id="paint38_linear_211_5696" x1="222.821" y1="66.2459" x2="241.01" y2="48.1217" gradientUnits="userSpaceOnUse">
<stop stop-color="#A57D24"/>
<stop offset="0.2112" stop-color="#D8BE62"/>
<stop offset="0.328" stop-color="#F1DD80"/>
<stop offset="0.524" stop-color="#FBF2A8"/>
<stop offset="0.7298" stop-color="#F1DD80"/>
<stop offset="1" stop-color="#A57D24"/>
</linearGradient>
<linearGradient id="paint39_linear_211_5696" x1="211.673" y1="35.1913" x2="222.241" y2="24.6609" gradientUnits="userSpaceOnUse">
<stop stop-color="#A57D24"/>
<stop offset="0.2112" stop-color="#D8BE62"/>
<stop offset="0.328" stop-color="#F1DD80"/>
<stop offset="0.524" stop-color="#FBF2A8"/>
<stop offset="0.7298" stop-color="#F1DD80"/>
<stop offset="1" stop-color="#A57D24"/>
</linearGradient>
</defs>
</svg>
