<svg width="500" height="500" viewBox="0 0 500 500" fill="none" xmlns="http://www.w3.org/2000/svg">
<g clip-path="url(#clip0_229_5003)">
<path d="M500 0H0V500H500V0Z" fill="white"/>
<path d="M223.14 384.389C314.616 384.389 388.772 310.233 388.772 218.757C388.772 127.281 314.616 53.125 223.14 53.125C131.664 53.125 57.5078 127.281 57.5078 218.757C57.5078 310.233 131.664 384.389 223.14 384.389Z" fill="#21558A" fill-opacity="0.2"/>
<path d="M247.051 280.015C247.051 280.015 200.881 336.045 184.551 334.585C168.221 333.125 157.031 305.815 157.031 305.815C157.031 305.815 157.591 305.515 158.541 304.945C163.321 302.125 178.021 292.785 181.461 282.815C184.791 277.405 209.011 238.135 216.381 228.115C224.311 217.345 233.641 216.925 233.641 216.925C238.901 225.575 245.541 232.155 253.771 233.395C254.901 233.565 256.001 233.675 257.051 233.725C257.551 237.245 260.861 255.205 276.991 264.395C276.991 264.395 277.611 251.885 285.881 250.775C285.881 250.775 294.641 245.975 301.871 252.995C301.871 252.995 313.331 240.695 301.871 206.155L293.691 198.755L293.681 198.745L289.931 189.825C289.931 189.825 331.781 187.735 341.461 196.705C351.141 205.665 413.061 287.605 413.061 287.605L322.991 357.535C322.991 357.535 268.381 303.375 247.051 280.015Z" fill="white"/>
<path d="M301.871 206.155C313.331 240.695 301.871 252.995 301.871 252.995C294.641 245.975 285.881 250.775 285.881 250.775L297.561 207.955L293.691 198.755L301.871 206.155Z" fill="#6C6C6C"/>
<path d="M273.771 242.785L285.881 250.775C277.611 251.885 276.991 264.395 276.991 264.395C260.861 255.205 257.551 237.245 257.051 233.725C258.071 233.775 259.061 233.765 260.001 233.705L273.771 242.785Z" fill="#6C6C6C"/>
<path d="M246.772 279.565C241.734 273.347 236.696 267.129 231.657 260.91C231.252 260.41 230.548 261.121 230.95 261.617C235.988 267.835 241.026 274.053 246.065 280.272C246.47 280.772 247.174 280.06 246.772 279.565Z" fill="#2E303D"/>
<path d="M242.356 280.789C238.789 279.258 235.223 277.727 231.656 276.196C231.071 275.945 230.561 276.806 231.151 277.059C234.718 278.59 238.284 280.121 241.851 281.652C242.436 281.904 242.946 281.043 242.356 280.789Z" fill="#2E303D"/>
<path d="M321.972 309.31C317.437 301.808 312.902 294.307 308.367 286.805C303.854 279.339 299.34 271.873 294.827 264.407C292.269 260.176 289.712 255.946 287.154 251.715C286.821 251.165 285.956 251.667 286.291 252.22C290.826 259.722 295.361 267.223 299.896 274.725C304.41 282.191 308.923 289.657 313.436 297.123C315.994 301.354 318.551 305.584 321.109 309.815C321.441 310.365 322.306 309.863 321.972 309.31Z" fill="#2E303D"/>
<path d="M182.191 279.125C182.141 280.355 181.891 281.585 181.461 282.815C178.021 292.785 163.321 302.125 158.541 304.945L157.031 299.415C157.031 299.415 149.281 301.155 143.611 296.245C143.461 296.535 143.221 296.795 142.941 296.975C142.141 297.465 141.131 297.465 140.191 297.385C135.941 297.005 131.801 295.375 128.431 292.745C126.441 291.195 124.651 289.185 124.101 286.725C123.571 284.395 124.461 281.625 126.531 280.485C126.451 280.115 126.401 279.735 126.381 279.355C126.291 277.185 127.431 275.105 128.981 273.585C130.411 272.165 132.181 271.155 133.951 270.195C133.971 270.105 133.991 270.025 134.011 269.945C134.441 268.405 135.541 267.125 136.821 266.175C137.981 265.315 139.301 264.695 140.621 264.095C134.211 260.795 128.061 257.135 128.681 255.495C129.931 252.165 143.061 253.345 156.341 257.995C169.611 262.655 173.951 269.595 173.951 269.595C178.081 267.765 182.601 268.125 182.191 279.125Z" fill="#FF9971"/>
<path d="M177.326 280.997C174.232 282.325 171.137 283.652 168.043 284.98C166.477 285.652 164.91 286.324 163.344 286.996C162.056 287.548 160.489 288.448 159.044 288.001C157.488 287.519 157.472 285.777 158.068 284.529C158.664 283.281 159.596 282.142 160.457 281.068C162.158 278.948 164.081 277.005 166.179 275.277C168.613 273.272 171.294 271.578 174.134 270.21C174.714 269.931 174.207 269.068 173.629 269.347C168.14 271.992 163.263 275.889 159.496 280.68C158.027 282.549 155.257 285.845 157.464 288.186C158.47 289.253 160.089 289.258 161.396 288.853C163.02 288.35 164.582 287.545 166.141 286.876C170.038 285.204 173.934 283.532 177.831 281.86C178.42 281.608 177.912 280.746 177.326 280.997Z" fill="#2E303D"/>
<path d="M152.932 271.013C149.052 268.697 145.173 266.38 141.293 264.064C140.739 263.733 140.236 264.598 140.788 264.928L152.427 271.877C152.981 272.208 153.484 271.343 152.932 271.013Z" fill="#2E303D"/>
<path d="M154.743 289.747C154.636 288.801 154.208 287.927 153.845 287.059C153.446 286.104 153.047 285.149 152.647 284.193C150.811 279.799 148.974 275.405 147.138 271.011C146.894 270.426 145.926 270.683 146.174 271.277C147.659 274.83 149.144 278.384 150.629 281.937C151.38 283.733 152.13 285.529 152.88 287.325C153.335 288.415 154.737 291.282 152.715 291.746C151.297 292.071 149.642 290.654 148.566 289.897C147.323 289.022 146.14 288.065 145.021 287.038C142.797 284.998 140.826 282.686 139.169 280.164C137.295 277.313 135.828 274.214 134.821 270.954C134.632 270.341 133.666 270.602 133.857 271.22C135.805 277.528 139.448 283.282 144.314 287.745C145.496 288.829 146.75 289.838 148.061 290.761C149.306 291.637 150.797 292.805 152.4 292.78C154.036 292.753 154.913 291.254 154.743 289.747Z" fill="#2E303D"/>
<path d="M146.338 290.271C145.955 289.764 145.086 290.262 145.475 290.776C146.152 291.672 146.22 292.891 145.426 293.746C144.638 294.594 143.469 294.602 142.462 294.158C141.436 293.706 140.54 292.943 139.666 292.256C138.755 291.54 137.861 290.804 136.984 290.047C133.502 287.044 130.301 283.725 127.412 280.148C127.008 279.647 126.304 280.359 126.705 280.855C129.359 284.141 132.276 287.21 135.434 290.015C136.972 291.382 138.564 292.694 140.212 293.927C141.66 295.011 143.552 296.044 145.332 295.07C147.06 294.125 147.518 291.833 146.338 290.271Z" fill="#2E303D"/>
<path d="M297.561 207.955L285.882 250.775L273.771 242.785C286.231 225.085 283.801 204.065 283.801 204.065C283.801 204.065 281.861 232.375 260.001 233.705C259.061 233.765 258.071 233.775 257.051 233.725C256.001 233.675 254.901 233.565 253.771 233.395C245.541 232.155 238.901 225.575 233.641 216.925C223.191 199.745 218.141 174.445 216.771 166.675C229.081 165.065 241.041 159.895 252.721 155.235C256.331 153.795 260.141 152.365 264.011 152.795C267.971 153.225 271.521 155.585 274.181 158.555C276.511 161.165 278.251 164.225 279.891 167.315C280.351 164.495 282.261 156.035 288.661 158.475C289.401 158.755 290.062 159.205 290.632 159.775C295.941 165.135 293.991 181.775 287.971 185.165L289.931 189.825L293.681 198.745L293.691 198.755L297.561 207.955Z" fill="#FF9971"/>
<path d="M283.802 204.065C283.802 204.065 286.232 225.085 273.772 242.785L260.002 233.705C281.862 232.375 283.802 204.065 283.802 204.065Z" fill="#2E303D"/>
<path d="M289.552 144.654C288.962 140.894 288.042 136.984 285.532 134.124C283.283 131.571 279.396 130.214 276.346 131.471C277.22 128.114 276.797 124.443 275.073 121.411C273.294 118.283 270.241 115.922 266.757 115.015C258.278 112.807 250.534 118.387 243.649 122.46C239.969 124.637 236.128 126.381 231.954 127.368C227.887 128.33 223.667 128.614 219.507 128.217C217.392 128.015 215.308 127.615 213.257 127.065C211.21 126.516 209.169 125.882 207.045 125.715C203.516 125.437 199.921 126.773 198.501 130.222C197.178 133.435 197.858 137.185 199.145 140.292C200.05 142.476 201.331 144.49 202.907 146.243C199.062 145.843 194.999 147.809 193.073 151.183C190.893 155.003 191.663 160.263 194.843 163.303C197.593 165.933 201.573 166.773 205.363 167.053C209.203 167.343 213.003 167.173 216.773 166.673C229.083 165.063 241.043 159.893 252.723 155.233C256.333 153.793 260.143 152.363 264.013 152.793C267.973 153.223 271.523 155.583 274.183 158.553C276.513 161.163 278.253 164.223 279.893 167.313C280.353 164.493 282.263 156.033 288.663 158.473C289.403 158.753 290.063 159.203 290.633 159.773C290.702 154.725 290.342 149.654 289.552 144.654ZM268.322 120.125C263.542 118.405 258.182 119.525 253.522 121.545C248.862 123.555 244.602 126.415 239.922 128.365C231.372 131.905 221.532 132.215 212.792 129.205C209.552 128.085 206.012 126.525 202.862 127.865C200.42 128.904 199.062 131.465 198.801 134.153C198.8 133.55 198.83 132.947 198.931 132.352C199.202 130.752 199.907 129.224 201.184 128.183C202.567 127.055 204.421 126.667 206.168 126.678C208.229 126.691 210.233 127.274 212.205 127.816C214.126 128.344 216.055 128.784 218.031 129.048C225.698 130.072 233.635 128.767 240.556 125.308C247.652 121.761 254.142 115.821 262.458 115.556C266.177 115.438 269.757 116.734 272.354 119.434C274.974 122.158 276.193 125.992 275.685 129.735C275.667 129.864 275.631 129.99 275.609 130.118C275.795 125.853 272.469 121.629 268.322 120.125Z" fill="#2E303D"/>
<path d="M268.513 204.405C268.513 204.405 274.073 214.565 265.593 220.465C257.113 226.375 251.133 217.985 251.133 217.985L268.513 204.405Z" fill="white"/>
<path d="M239.603 185.995L251.133 208.935C251.133 208.935 241.753 214.215 239.603 211.155C237.443 208.095 239.603 185.995 239.603 185.995Z" fill="#F9785A"/>
<path d="M235.357 191.174C236.242 194.168 235.273 197.093 233.193 197.707C231.113 198.321 228.71 196.393 227.826 193.399C226.941 190.405 227.91 187.48 229.99 186.865C232.07 186.251 234.473 188.18 235.357 191.174Z" fill="#2E303D"/>
<path d="M259.691 182.966C260.575 185.96 259.607 188.885 257.527 189.499C255.447 190.113 253.044 188.185 252.16 185.191C251.275 182.197 252.244 179.272 254.324 178.658C256.403 178.043 258.806 179.972 259.691 182.966Z" fill="#2E303D"/>
<path d="M230.301 179.06C228.406 179.512 226.576 180.252 224.874 181.196C223.958 181.704 223.642 183.09 224.231 183.951C224.868 184.882 226.005 185.138 226.986 184.594C227.408 184.36 227.842 184.151 228.279 183.948C229.301 183.512 230.353 183.155 231.434 182.897C232.453 182.654 233.125 181.397 232.785 180.412C232.417 179.341 231.393 178.799 230.301 179.06Z" fill="#2E303D"/>
<path d="M258.801 172.334C258.382 171.973 257.942 171.844 257.394 171.791C254.972 171.557 252.445 171.933 250.194 172.854C249.688 173.061 249.274 173.32 249.004 173.816C248.77 174.247 248.68 174.867 248.843 175.338C249.167 176.278 250.291 177.113 251.328 176.689C252.259 176.308 253.226 176.042 254.215 175.864C255.295 175.721 256.382 175.686 257.468 175.79C257.95 175.837 258.572 175.497 258.889 175.16C259.218 174.81 259.463 174.241 259.432 173.753C259.398 173.231 259.211 172.687 258.801 172.334Z" fill="#2E303D"/>
<path d="M276.077 114.651C275.823 114.062 274.961 114.57 275.214 115.156C277.073 119.461 277.994 124.124 277.946 128.81C277.939 129.454 278.939 129.454 278.946 128.81C278.995 123.937 278.008 119.123 276.077 114.651Z" fill="#2E303D"/>
<path d="M280.658 123.274C280.231 125.032 279.805 126.791 279.378 128.549C279.226 129.174 280.19 129.441 280.342 128.815C280.769 127.057 281.195 125.298 281.622 123.54C281.774 122.915 280.81 122.648 280.658 123.274Z" fill="#2E303D"/>
<path d="M273.861 419.442V425.832H184.641L116.631 388.862V383.112L185.941 419.442H273.861Z" fill="#8E8E8E"/>
<path d="M273.861 419.442H185.941L116.631 383.112H204.551L273.861 419.442Z" fill="#B7B7B7"/>
<path d="M195.247 416.648H184.42L175.885 412.174H186.712L195.247 416.648Z" fill="#8E8E8E"/>
<path d="M183.803 410.67H172.976L164.441 406.197H175.268L183.803 410.67Z" fill="#8E8E8E"/>
<path d="M174.124 404.927H163.297L154.762 400.453H165.589L174.124 404.927Z" fill="#8E8E8E"/>
<path d="M162.68 398.949H151.853L143.318 394.475H154.145L162.68 398.949Z" fill="#8E8E8E"/>
<path d="M208.312 415.779H197.485L188.949 411.305H199.776L208.312 415.779Z" fill="#8E8E8E"/>
<path d="M198.632 410.036H187.805L179.27 405.562H190.097L198.632 410.036Z" fill="#8E8E8E"/>
<path d="M187.19 404.058H176.363L167.828 399.584H178.654L187.19 404.058Z" fill="#8E8E8E"/>
<path d="M210.674 408.97H199.848L191.312 404.496H202.14L210.674 408.97Z" fill="#8E8E8E"/>
<path d="M200.995 403.226H190.168L181.633 398.752H192.46L200.995 403.226Z" fill="#8E8E8E"/>
<path d="M189.552 397.249H178.725L170.189 392.775H181.016L189.552 397.249Z" fill="#8E8E8E"/>
<path d="M250.557 417.188H239.73L231.195 412.715H242.022L250.557 417.188Z" fill="#8E8E8E"/>
<path d="M239.116 411.211H228.289L219.754 406.737H230.581L239.116 411.211Z" fill="#8E8E8E"/>
<path d="M229.434 405.467H218.607L210.072 400.993H220.899L229.434 405.467Z" fill="#8E8E8E"/>
<path d="M217.994 399.49H207.167L198.631 395.016H209.458L217.994 399.49Z" fill="#8E8E8E"/>
<path d="M263.626 416.319H252.799L244.264 411.846H255.091L263.626 416.319Z" fill="#8E8E8E"/>
<path d="M253.944 410.576H243.117L234.582 406.102H245.409L253.944 410.576Z" fill="#8E8E8E"/>
<path d="M242.503 404.598H231.676L223.141 400.124H233.968L242.503 404.598Z" fill="#8E8E8E"/>
<path d="M330.03 450.146H242.11L197.219 426.568H285.139L330.03 450.146Z" fill="#D5E0E0"/>
<path d="M269.055 447.315H243.467L230.402 440.453H255.99L269.055 447.315Z" fill="#21558A"/>
<path d="M277.044 446.883C276.888 446.883 276.729 446.846 276.58 446.769L246.239 430.833C245.75 430.576 245.561 429.972 245.818 429.482C246.076 428.993 246.679 428.807 247.169 429.061L277.51 444.996C277.999 445.253 278.188 445.857 277.931 446.347C277.751 446.689 277.403 446.883 277.044 446.883Z" fill="#B7B7B7"/>
<path d="M287.251 446.296C287.095 446.296 286.936 446.259 286.787 446.182L256.446 430.246C255.957 429.989 255.768 429.385 256.025 428.895C256.283 428.406 256.886 428.22 257.376 428.474L287.717 444.41C288.206 444.667 288.395 445.271 288.138 445.761C287.958 446.101 287.61 446.296 287.251 446.296Z" fill="#B7B7B7"/>
<path d="M301.128 447.177C300.972 447.177 300.813 447.14 300.664 447.063L270.323 431.128C269.834 430.871 269.645 430.267 269.902 429.777C270.16 429.288 270.763 429.102 271.252 429.356L301.593 445.292C302.082 445.549 302.271 446.153 302.014 446.643C301.835 446.983 301.487 447.177 301.128 447.177Z" fill="#B7B7B7"/>
<path d="M311.335 446.589C311.179 446.589 311.02 446.552 310.871 446.475L280.53 430.54C280.041 430.283 279.852 429.679 280.109 429.189C280.367 428.7 280.97 428.514 281.46 428.768L311.801 444.704C312.29 444.961 312.479 445.565 312.222 446.054C312.042 446.395 311.694 446.589 311.335 446.589Z" fill="#B7B7B7"/>
<path d="M189.006 186.88L171.205 189.64C167.06 194.759 161.429 198.782 154.695 200.975C136.104 207.028 116.126 196.865 110.073 178.274C104.02 159.683 114.183 139.706 132.774 133.652C151.355 127.602 171.332 137.765 177.386 156.356C179.137 161.733 179.529 167.237 178.753 172.478L189.006 186.88Z" fill="white"/>
<path d="M171.863 155.956L138.716 189.103L120.695 171.071L129.432 162.334L138.716 171.617L163.115 147.218L171.863 155.956Z" fill="#21558A" fill-opacity="0.5"/>
<path d="M379.11 265.677L356.53 291.017L350.76 306.587L349.58 291.987L347.21 274.197L347.45 270.907L348.8 252.317C345.05 252.667 341.4 252.567 337.97 251.947C324.47 249.547 314.17 239.237 312.88 216.927C312.09 203.337 313.77 193.097 316.04 185.717C319.37 174.877 324 170.227 324 170.227C324 170.227 340.89 198.517 363.27 201.647C363.27 201.647 367.37 191.977 373.76 194.827C380.16 197.677 380.16 216.917 370.02 219.437C368.69 232.747 370.63 246.387 375.63 258.797C376.59 261.167 377.7 263.547 379.11 265.677Z" fill="#FF9971"/>
<path d="M357.03 227.807C362.029 227.807 366.08 223.755 366.08 218.757C366.08 213.759 362.029 209.707 357.03 209.707C352.032 209.707 347.98 213.759 347.98 218.757C347.98 223.755 352.032 227.807 357.03 227.807Z" fill="#F9785A"/>
<path d="M360.07 250.087L348.09 262.047L348.8 252.317C352.48 251.987 356.27 251.217 360.07 250.087Z" fill="#2E303D"/>
<path d="M348.091 262.047L347.451 270.907C347.451 270.907 334.471 276.727 328.521 290.477C327.231 286.297 327.371 281.727 328.301 277.437C329.351 272.637 331.331 268.107 333.331 263.637C335.041 259.807 336.781 255.957 337.971 251.947C341.401 252.567 345.051 252.667 348.801 252.317L348.091 262.047Z" fill="#2E303D"/>
<path d="M326.64 205.947L331.79 227.637C331.79 227.637 322.82 230.347 321.64 228.187C320.46 226.037 326.64 205.947 326.64 205.947Z" fill="#F9785A"/>
<path d="M452.855 270.401C450.174 259.434 443.665 249.944 436.25 241.615C430.248 234.872 423.577 228.773 417.25 222.343C415.269 219.115 413.414 215.814 411.76 212.397C405.56 199.607 402.31 185.537 395.93 172.847C389.54 160.147 378.83 148.327 364.79 146.137C344.17 142.917 324.49 161.197 303.98 157.347C303.17 167.777 307.47 178.497 315.27 185.477L316.04 185.717C318.897 176.417 322.702 171.684 323.728 170.524C324.962 176.665 329.227 181.716 333.446 186.177C338.38 191.394 343.934 196.243 350.68 198.935C353.591 200.097 356.685 200.816 359.812 200.943C360.95 201.236 362.1 201.483 363.27 201.647C363.27 201.647 367.37 191.977 373.76 194.827C380.16 197.677 380.16 216.917 370.02 219.437C368.69 232.747 370.63 246.387 375.63 258.797C376.59 261.167 377.7 263.547 379.11 265.677C379.98 267.007 380.97 268.237 382.12 269.317V269.327C382.53 269.707 382.96 270.077 383.42 270.427C392.21 277.137 405.16 273.117 415.51 277.007C425.09 280.607 431.03 290.687 432.59 300.807C434.16 310.927 432.12 321.217 430.1 331.257L430.28 331.317C430.48 330.717 430.67 330.107 430.86 329.507C444.295 324.751 452.254 310.185 452.892 295.854C454.825 287.515 454.89 278.723 452.855 270.401ZM343.022 193.498C340.21 191.449 337.646 189.073 335.221 186.583C332.846 184.145 330.512 181.618 328.561 178.821C327.092 176.715 325.854 174.421 325.112 171.971C328.562 177.194 339.789 192.781 354.614 199.157C350.445 198.088 346.511 196.04 343.022 193.498ZM452.809 290.822C451.837 276.335 444.827 262.815 436.741 250.687C431.233 242.434 425.141 234.526 419.722 226.229C423.577 230.043 427.493 233.8 431.251 237.699C439.191 245.937 446.71 255.136 450.533 266.074C453.297 273.985 453.98 282.54 452.809 290.822Z" fill="#2E303D"/>
<path d="M322.868 206.136C322.868 209.258 321.11 211.788 318.941 211.788C316.772 211.788 315.014 209.257 315.014 206.136C315.014 203.015 316.772 200.484 318.941 200.484C321.11 200.484 322.868 203.014 322.868 206.136Z" fill="#2E303D"/>
<path d="M343.219 205.325C343.219 208.447 341.461 210.978 339.292 210.978C337.123 210.978 335.365 208.447 335.365 205.325C335.365 202.203 337.123 199.673 339.292 199.673C341.461 199.673 343.219 202.203 343.219 205.325Z" fill="#2E303D"/>
<path d="M321.45 193.086C319.505 192.983 317.54 193.173 315.64 193.597C314.618 193.825 313.922 195.065 314.243 196.057C314.59 197.13 315.608 197.698 316.703 197.454C317.174 197.349 317.65 197.271 318.126 197.2C319.229 197.072 320.339 197.027 321.449 197.086C322.496 197.142 323.496 196.126 323.449 195.086C323.399 193.954 322.571 193.145 321.45 193.086Z" fill="#2E303D"/>
<path d="M345.379 194.877C345.079 194.412 344.694 194.164 344.184 193.958C341.928 193.048 339.398 192.692 336.978 192.937C336.434 192.992 335.963 193.123 335.564 193.523C335.217 193.87 334.956 194.439 334.978 194.937C335.022 195.93 335.863 197.05 336.978 196.937C337.979 196.836 338.982 196.854 339.981 196.964C341.057 197.132 342.11 197.407 343.121 197.815C343.57 197.996 344.263 197.847 344.662 197.613C345.077 197.37 345.472 196.894 345.581 196.418C345.697 195.906 345.672 195.331 345.379 194.877Z" fill="#2E303D"/>
<path d="M346.894 234.977C348.344 238.56 346.981 242.491 343.849 243.758C340.718 245.025 337.004 243.148 335.554 239.565C334.104 235.982 335.467 232.051 338.599 230.784C341.731 229.517 345.445 231.395 346.894 234.977Z" fill="black"/>
<path d="M347.98 229.997C347.98 229.997 350.97 238.547 342.35 241.397C335.33 243.717 332.38 239.107 331.59 237.527L347.98 229.997Z" fill="white"/>
<path d="M430.101 331.257L430.281 331.317C427.501 339.947 424.341 348.607 421.151 356.777V356.787C411.291 382.027 401.131 402.617 400.821 403.227C391.081 389.777 372.941 380.847 367.051 378.197C365.841 377.657 365.151 377.377 365.151 377.377L361.441 388.497C361.751 388.787 362.071 389.077 362.371 389.357L328.741 393.837V379.977C328.741 379.977 327.911 378.177 326.681 375.317C325.001 371.417 322.571 365.537 320.541 359.617C318.311 353.117 316.561 346.567 316.771 342.537C317.331 332.157 340.071 292.127 340.071 292.127C340.101 297.897 341.381 302.557 341.381 302.557C341.481 301.937 341.711 301.277 342.051 300.607C342.151 301.037 345.371 314.317 351.381 324.377L364.181 302.557C364.711 303.927 365.231 305.457 365.701 307.137C365.701 307.137 379.901 284.177 382.121 269.327C382.531 269.707 382.961 270.077 383.421 270.427C392.211 277.137 405.161 273.117 415.511 277.007C425.091 280.607 431.031 290.687 432.591 300.807C434.161 310.927 432.121 321.217 430.101 331.257Z" fill="#21558A"/>
<path d="M421.15 356.787L427.14 409.437H400.16L402.4 405.547C401.91 404.757 401.38 403.987 400.82 403.227C401.13 402.617 411.29 382.027 421.15 356.787Z" fill="#21558A"/>
<path d="M400.821 403.227C401.381 403.987 401.911 404.757 402.401 405.547L400.161 409.437L388.871 429.087C388.871 429.087 384.901 410.417 362.371 389.357C362.071 389.077 361.751 388.787 361.441 388.497L365.151 377.377C365.151 377.377 365.841 377.657 367.051 378.197C372.941 380.847 391.081 389.777 400.821 403.227Z" fill="#21558A"/>
<path d="M388.87 429.087C388.87 429.087 363.04 429.547 290.83 425.377C290.83 425.377 273.96 437.057 267.11 436.317C260.25 435.577 246.72 422.877 243.38 417.597C240.05 412.317 248.76 404.437 248.76 404.437C248.76 404.437 248.85 400.457 254.32 398.137C256.76 397.107 263.45 397.247 270.13 397.717C278.45 398.317 286.75 399.437 286.75 399.437L306.84 396.757L328.74 393.837L362.37 389.357C384.9 410.417 388.87 429.087 388.87 429.087Z" fill="#FF9971"/>
<path d="M382.121 269.317V269.327C379.901 284.177 365.701 307.137 365.701 307.137C365.231 305.457 364.711 303.927 364.181 302.557C360.751 293.677 356.531 291.017 356.531 291.017L379.111 265.677C379.981 267.007 380.971 268.237 382.121 269.317Z" fill="white"/>
<path d="M364.181 302.557L351.381 324.377C345.371 314.317 342.151 301.037 342.051 300.607C342.051 300.597 342.051 300.597 342.051 300.597C344.061 296.537 349.581 291.987 349.581 291.987L350.761 306.587L356.531 291.017C356.531 291.017 360.751 293.677 364.181 302.557Z" fill="#D7F2ED"/>
<path d="M340.031 355.237H347.901H355.631L356.251 387.197H333.181L332.711 355.237H340.031ZM350.751 373.317V358.307H338.211V373.317H350.751Z" fill="white"/>
<path d="M350.751 358.307H338.211V373.317H350.751V358.307Z" fill="#21558A"/>
<path d="M347.211 274.197L349.581 291.987C349.581 291.987 344.061 296.537 342.051 300.597C342.051 300.597 342.051 300.597 342.051 300.607C341.711 301.277 341.481 301.937 341.381 302.557C341.381 302.557 340.101 297.897 340.071 292.127C340.041 285.997 341.411 278.597 347.211 274.197Z" fill="white"/>
<path d="M344.051 350.367L347.901 355.237H340.031L344.051 350.367Z" fill="#B7B7B7"/>
<path d="M328.52 290.477C334.47 276.727 347.45 270.907 347.45 270.907L347.21 274.197C341.41 278.597 340.04 285.997 340.07 292.127C340.07 292.127 317.33 332.157 316.77 342.537C316.56 346.567 318.31 353.117 320.54 359.617L319.18 359.957L309.42 355.217L309.73 354.587C309.73 354.587 322.15 310.567 327.15 294.167C327.54 292.877 328 291.647 328.52 290.477Z" fill="#21558A"/>
<path d="M328.74 379.977V393.837L306.841 396.757L240.188 396.619C228.909 401.469 223.076 401.729 218.716 399.559C216.936 399.679 210.261 400.417 208.481 400.527C208.311 402.447 207.721 404.157 206.131 404.157C202.521 404.157 198.491 396.097 198.491 396.097C198.491 396.097 197.381 404.157 193.761 402.217C190.151 400.267 191.121 389.237 191.121 389.237C191.121 389.237 182.921 397.277 181.811 394.247C180.701 391.207 186.121 376.777 199.601 375.527C213.081 374.277 243.521 379.697 243.521 379.697L303.89 369.597L326.68 375.317C327.91 378.177 328.74 379.977 328.74 379.977Z" fill="#FF9971"/>
<path d="M326.681 375.317L303.891 369.597C302.491 358.387 306.211 353.657 306.211 353.657L309.421 355.217L320.541 359.617C322.571 365.537 325.001 371.417 326.681 375.317Z" fill="#21558A"/>
<path d="M280.805 375.2C282.235 376.18 282.625 378.14 281.755 379.64C274.705 378.73 273.025 375.52 273.025 375.52C273.605 374.54 274.755 373.38 275.885 373.32C277.265 373.26 279.065 374.01 280.805 375.2Z" fill="#ED694F"/>
<path d="M281.755 379.64L277.495 386.99C271.885 386.18 268.885 382.47 268.885 382.47L273.025 375.52C273.025 375.52 274.705 378.73 281.755 379.64Z" fill="black"/>
<path d="M277.496 386.99L270.856 398.45L259.516 398.21L268.886 382.47C268.886 382.47 271.886 386.18 277.496 386.99Z" fill="#21558A"/>
<path d="M386.754 308.063C384.009 316.705 381.265 325.348 378.521 333.99C375.789 342.593 373.057 351.196 370.325 359.798C368.777 364.674 367.228 369.551 365.68 374.427C365.485 375.042 366.45 375.305 366.644 374.693C369.389 366.051 372.133 357.408 374.877 348.766C377.609 340.163 380.341 331.561 383.073 322.958C384.621 318.082 386.17 313.205 387.718 308.329C387.914 307.714 386.948 307.451 386.754 308.063Z" fill="#2E303D"/>
<path d="M420.655 358.208C414.906 369.641 409.623 381.308 404.825 393.172C403.472 396.518 402.158 399.881 400.882 403.257C400.654 403.86 401.62 404.12 401.846 403.523C406.34 391.633 411.315 379.926 416.764 368.442C418.311 365.181 419.897 361.938 421.518 358.713C421.807 358.139 420.944 357.632 420.655 358.208Z" fill="#2E303D"/>
<path d="M338.709 293.286C333.953 302.102 329.082 310.867 324.466 319.757C320.301 327.777 316.623 336.382 316.655 345.579C316.672 350.36 317.712 355.142 320.084 359.32C320.402 359.88 321.267 359.376 320.949 358.815C316.632 351.213 317.022 341.951 319.509 333.821C320.851 329.436 322.769 325.257 324.855 321.181C327.034 316.924 329.352 312.737 331.622 308.528C334.272 303.615 336.923 298.702 339.573 293.79C339.878 293.225 339.015 292.719 338.709 293.286Z" fill="#2E303D"/>
<path d="M364.133 303.724C358.73 315.945 353.327 328.167 347.924 340.388C346.608 343.366 345.291 346.343 343.975 349.32C341.952 337.14 341.086 324.772 341.422 312.429C341.522 308.765 341.728 305.105 342.035 301.453C342.089 300.812 341.088 300.815 341.035 301.453C339.945 314.44 340.161 327.53 341.698 340.472C342.118 344.014 342.638 347.543 343.25 351.057C343.246 351.149 343.268 351.233 343.307 351.31C343.361 351.472 343.475 351.561 343.612 351.586C343.813 351.665 344.042 351.626 344.156 351.368C344.16 351.36 344.163 351.351 344.167 351.343C344.198 351.295 344.225 351.242 344.238 351.183C349.614 339.023 354.989 326.864 360.365 314.704C361.909 311.212 363.452 307.72 364.996 304.229C365.254 303.646 364.393 303.136 364.133 303.724Z" fill="#2E303D"/>
<path d="M328.034 394.075C320.945 394.77 313.856 395.465 306.768 396.16C306.133 396.222 306.127 397.223 306.768 397.16C313.857 396.465 320.946 395.77 328.034 395.075C328.669 395.013 328.676 394.013 328.034 394.075Z" fill="#2E303D"/>
<path d="M229.15 395.932C223.187 397.82 217.029 399.075 210.798 399.629C210.083 399.693 209.368 399.747 208.652 399.793C208.051 399.831 207.429 399.902 206.833 399.779C206.377 399.684 205.868 399.467 205.899 398.917C205.938 398.235 206.806 397.597 207.255 397.171C209.306 395.227 211.505 393.445 213.833 391.843C216.465 390.031 219.253 388.455 222.156 387.121C222.74 386.852 222.232 385.99 221.651 386.257C216.004 388.853 210.797 392.386 206.311 396.69C205.47 397.497 204.369 398.692 205.176 399.907C205.755 400.778 206.989 400.877 207.935 400.838C211.317 400.698 214.709 400.26 218.042 399.682C221.892 399.014 225.691 398.079 229.416 396.899C230.027 396.703 229.766 395.737 229.15 395.932Z" fill="#2E303D"/>
<path d="M198.999 395.97C197.684 391.554 197.666 386.855 198.951 382.43C199.131 381.811 198.166 381.546 197.987 382.164C196.655 386.753 196.671 391.656 198.035 396.236C198.218 396.852 199.183 396.59 198.999 395.97Z" fill="#2E303D"/>
<path d="M195.235 380.814C194.979 380.661 194.714 380.78 194.551 380.993C192.689 383.425 191.419 386.286 190.859 389.298C190.742 389.927 191.706 390.197 191.823 389.564C192.37 386.624 193.597 383.872 195.414 381.498C195.58 381.282 195.447 380.941 195.235 380.814Z" fill="#2E303D"/>
<path d="M349.173 291.955C346.285 294.815 343.573 297.848 341.052 301.037C340.657 301.537 341.36 302.249 341.759 301.744C344.28 298.555 346.992 295.522 349.88 292.662C350.338 292.209 349.631 291.502 349.173 291.955Z" fill="#2E303D"/>
<path d="M365.856 306.109C364.16 300.4 361.212 295.125 357.246 290.684C356.816 290.203 356.111 290.912 356.539 291.391C360.389 295.703 363.246 300.835 364.892 306.375C365.074 306.99 366.04 306.728 365.856 306.109Z" fill="#2E303D"/>
<path d="M351.559 307.42C351.532 306.779 350.531 306.775 350.559 307.42C350.748 311.853 350.938 316.286 351.128 320.719C351.155 321.36 352.156 321.364 352.128 320.719C351.938 316.286 351.748 311.853 351.559 307.42Z" fill="#2E303D"/>
<path d="M355.178 309.971C354.902 309.402 354.156 309.091 353.564 309.323C353.385 309.393 353.225 309.501 353.084 309.631C353.067 309.645 353.045 309.651 353.03 309.669C353.001 309.702 352.988 309.745 352.962 309.78C352.915 309.838 352.855 309.885 352.82 309.952C352.801 309.988 352.801 310.029 352.785 310.066C352.771 310.099 352.765 310.133 352.754 310.167C352.714 310.29 352.686 310.412 352.682 310.541C352.682 310.555 352.674 310.568 352.674 310.582C352.674 310.618 352.691 310.65 352.693 310.686C352.7 310.768 352.69 310.85 352.713 310.93C352.722 310.962 352.745 310.987 352.756 311.018C352.777 311.077 352.809 311.129 352.837 311.185C352.883 311.274 352.929 311.359 352.994 311.436C353.008 311.453 353.014 311.475 353.029 311.492C353.063 311.529 353.112 311.549 353.151 311.581C353.201 311.624 353.239 311.68 353.296 311.715C353.318 311.729 353.347 311.729 353.37 311.742C353.434 311.775 353.504 311.791 353.572 311.814C353.655 311.841 353.732 311.878 353.82 311.888C354.136 311.934 354.465 311.877 354.724 311.691C354.988 311.501 355.184 311.241 355.272 310.925C355.363 310.601 355.323 310.27 355.178 309.971Z" fill="#2E303D"/>
<path d="M100.131 398.487L97.1613 422.967L148.311 419.817V430.017L73.8113 438.357L53.6113 422.967L76.6513 368.437L84.9313 348.837L105.501 354.217L102.921 375.527L100.131 398.487Z" fill="#8E8E8E"/>
<path d="M127.461 213.457L162.031 393.597H147.201L112.451 213.457H127.461Z" fill="#8E8E8E"/>
<path d="M148.312 419.817L97.1621 422.967L100.132 398.487L148.312 419.817Z" fill="#B7B7B7"/>
<path d="M112.451 213.457L147.201 393.597L102.921 375.527L105.501 354.217L84.9314 348.837L76.6514 368.437L72.9814 366.877L32.9414 213.457H112.451Z" fill="#B7B7B7"/>
<path d="M139.904 353.569C137.987 342.291 136.019 331.021 134.001 319.761C131.973 308.444 129.894 297.136 127.764 285.838C125.645 274.596 123.476 263.363 121.256 252.141C119.037 240.918 116.767 229.705 114.448 218.503C114.158 217.103 113.867 215.702 113.576 214.303C113.445 213.673 112.481 213.94 112.612 214.569C114.943 225.769 117.226 236.979 119.458 248.199C121.69 259.419 123.872 270.649 126.003 281.889C128.145 293.185 130.237 304.49 132.277 315.805C134.308 327.063 136.288 338.331 138.218 349.607C140.148 360.883 142.028 372.168 143.857 383.46C144.086 384.872 144.313 386.283 144.541 387.695C144.643 388.329 145.607 388.06 145.505 387.429C143.688 376.134 141.822 364.847 139.904 353.569Z" fill="#2E303D"/>
<path d="M99.3253 353.789C96.2833 364.633 93.1194 375.443 89.8304 386.215C86.5534 396.948 83.1544 407.643 79.6344 418.299C77.6424 424.327 75.6114 430.341 73.5434 436.343C73.3334 436.953 74.2994 437.215 74.5074 436.609C78.1774 425.961 81.7274 415.272 85.1544 404.543C88.5684 393.853 91.8604 383.124 95.0294 372.359C96.8224 366.269 98.5754 360.168 100.289 354.056C100.463 353.434 99.4993 353.169 99.3253 353.789Z" fill="#2E303D"/>
</g>
<defs>
<clipPath id="clip0_229_5003">
<rect width="500" height="500" fill="white"/>
</clipPath>
</defs>
</svg>
