<svg width="36" height="36" viewBox="0 0 36 36" fill="none" xmlns="http://www.w3.org/2000/svg">
<path d="M30.8751 12.3497H7.12506C6.49172 12.3497 6.01672 11.7164 6.01672 11.0831C6.01672 10.4497 6.49172 9.81641 7.28339 9.81641H31.0334C31.6667 9.81641 32.3001 10.2914 32.3001 11.0831C32.3001 11.8747 31.5084 12.3497 30.8751 12.3497Z" fill="black"/>
<path d="M22.9583 20.2667H7.12494C6.49161 20.2667 5.85828 19.7917 5.85828 19.0001C5.85828 18.2084 6.33328 17.7334 7.12494 17.7334H22.9583C23.5916 17.7334 24.2249 18.2084 24.2249 19.0001C24.2249 19.7917 23.5916 20.2667 22.9583 20.2667Z" fill="black"/>
<path d="M13.4583 28.1837H7.12494C6.49161 28.1837 5.85828 27.7087 5.85828 26.9171C5.85828 26.1254 6.33328 25.6504 7.12494 25.6504H13.4583C14.0916 25.6504 14.7249 26.1254 14.7249 26.9171C14.7249 27.7087 14.0916 28.1837 13.4583 28.1837Z" fill="black"/>
</svg>
