<svg width="24" height="24" viewBox="0 0 24 24" fill="none" xmlns="http://www.w3.org/2000/svg">
<path fill-rule="evenodd" clip-rule="evenodd" d="M11.2956 8.29363C11.4831 8.10616 11.7374 8.00085 12.0026 8.00085C12.2678 8.00085 12.5221 8.10616 12.7096 8.29363L18.3666 13.9506C18.4621 14.0429 18.5383 14.1532 18.5907 14.2752C18.6431 14.3972 18.6707 14.5285 18.6718 14.6612C18.673 14.794 18.6477 14.9257 18.5974 15.0486C18.5471 15.1715 18.4729 15.2831 18.379 15.377C18.2851 15.4709 18.1734 15.5452 18.0505 15.5955C17.9276 15.6457 17.796 15.671 17.6632 15.6699C17.5304 15.6687 17.3992 15.6411 17.2772 15.5887C17.1552 15.5363 17.0448 15.4601 16.9526 15.3646L12.0026 10.4146L7.05259 15.3646C6.86398 15.5468 6.61138 15.6476 6.34919 15.6453C6.08699 15.643 5.83618 15.5379 5.65077 15.3525C5.46536 15.167 5.36019 14.9162 5.35791 14.654C5.35563 14.3918 5.45643 14.1392 5.63859 13.9506L11.2956 8.29363Z" fill="white"/>
</svg>
