<svg width="500" height="373" viewBox="0 0 500 373" fill="none" xmlns="http://www.w3.org/2000/svg">
<path d="M500 327.4H0V327.65H500V327.4Z" fill="#EBEBEB"/>
<path d="M449.9 343.49H416.78V343.74H449.9V343.49Z" fill="#EBEBEB"/>
<path d="M331.22 346.21H322.53V346.46H331.22V346.21Z" fill="#EBEBEB"/>
<path d="M415.78 334.21H396.59V334.46H415.78V334.21Z" fill="#EBEBEB"/>
<path d="M95.65 335.89H52.46V336.14H95.65V335.89Z" fill="#EBEBEB"/>
<path d="M110.89 335.89H104.56V336.14H110.89V335.89Z" fill="#EBEBEB"/>
<path d="M225.15 340.11H131.47V340.36H225.15V340.11Z" fill="#EBEBEB"/>
<path d="M237 282.8H43.91C42.3973 282.797 40.9475 282.195 39.8788 281.124C38.8102 280.053 38.21 278.603 38.21 277.09V5.66C38.2231 4.15602 38.8292 2.71798 39.8964 1.65822C40.9637 0.598458 42.4059 0.00257639 43.91 0H237C238.514 0 239.967 0.601588 241.038 1.67242C242.108 2.74325 242.71 4.19561 242.71 5.71V277.09C242.71 278.604 242.108 280.057 241.038 281.128C239.967 282.198 238.514 282.8 237 282.8ZM43.91 0.200001C42.4636 0.20265 41.0774 0.779065 40.0556 1.80273C39.0338 2.82639 38.46 4.21365 38.46 5.66V277.09C38.46 278.536 39.0338 279.924 40.0556 280.947C41.0774 281.971 42.4636 282.547 43.91 282.55H237C238.447 282.547 239.834 281.971 240.858 280.948C241.881 279.924 242.457 278.537 242.46 277.09V5.66C242.457 4.21273 241.881 2.82549 240.858 1.80212C239.834 0.77874 238.447 0.202644 237 0.200001H43.91Z" fill="#EBEBEB"/>
<path d="M453.31 282.8H260.21C258.696 282.797 257.246 282.195 256.175 281.125C255.105 280.054 254.503 278.604 254.5 277.09V5.66C254.516 4.15511 255.124 2.71708 256.193 1.65759C257.262 0.598109 258.705 0.00254829 260.21 0H453.31C454.812 0.0052045 456.252 0.602249 457.317 1.66173C458.382 2.72121 458.987 4.15775 459 5.66V277.09C459 278.601 458.401 280.05 457.335 281.121C456.268 282.191 454.821 282.795 453.31 282.8ZM260.21 0.200001C258.763 0.202644 257.375 0.77874 256.352 1.80212C255.329 2.82549 254.753 4.21273 254.75 5.66V277.09C254.753 278.537 255.329 279.924 256.352 280.948C257.375 281.971 258.763 282.547 260.21 282.55H453.31C454.757 282.547 456.145 281.971 457.168 280.948C458.191 279.924 458.767 278.537 458.77 277.09V5.66C458.767 4.21273 458.191 2.82549 457.168 1.80212C456.145 0.77874 454.757 0.202644 453.31 0.200001H260.21Z" fill="#EBEBEB"/>
<path d="M441.86 326.13V276.81H419.1V231.08H415.89V257.3H407.13V250.05H391.38V224.95H388.46V194.27H386.12V224.39H380.58V269.01H370.07V224.39H351.11V262.12H331.2V216.39H327.99V242.6H319.23V235.35H303.48V210.25H300.56V179.58H298.22V209.7H292.68V254.31H282.18V209.7H263.21V252.86H250.42V227.76H247.5V197.08H245.17V227.2H239.62V271.82H229.12V227.2H210.15V271.82H200.81V276.81H184.46V231.08H181.25V257.3H172.49V250.05H156.74V224.95H153.82V194.27H151.48V224.39H146.4V221.88H127.43V224.39H116.92V221.88H111.38V191.76H109.05V222.44H106.13V247.53H90.3699V254.78H81.6199V228.57H78.4099V274.3H55.6499V326.13H441.86Z" fill="#EBEBEB"/>
<path d="M148.532 96.6617C162.712 90.7883 169.445 74.532 163.572 60.3523C157.698 46.1726 141.442 39.4391 127.262 45.3125C113.083 51.1859 106.349 67.4422 112.223 81.6219C118.096 95.8016 134.352 102.535 148.532 96.6617Z" fill="#FAFAFA"/>
<path d="M123.49 70.6804C123.488 69.9276 123.311 69.1855 122.973 68.5131C122.634 67.8407 122.144 67.2566 121.54 66.8071C120.936 66.3576 120.236 66.0551 119.494 65.9238C118.753 65.7924 117.991 65.8358 117.27 66.0504C117.486 64.5971 117.385 63.1142 116.976 61.7031C116.566 60.2921 115.856 58.9861 114.896 57.8744C113.935 56.7627 112.745 55.8714 111.409 55.2615C110.072 54.6516 108.619 54.3374 107.15 54.3404C106.519 54.3394 105.889 54.3997 105.27 54.5204C104.264 52.8645 102.748 51.58 100.949 50.8604C99.1505 50.1407 97.1666 50.0249 95.2964 50.5302C93.4261 51.0356 91.7706 52.1348 90.5791 53.6624C89.3876 55.1901 88.7245 57.0634 88.6898 59.0004H88.5398C86.3544 59.0004 84.2585 59.8686 82.7132 61.4139C81.1679 62.9592 80.2998 65.0551 80.2998 67.2404C80.2998 69.4258 81.1679 71.5217 82.7132 73.067C84.2585 74.6123 86.3544 75.4804 88.5398 75.4804H118.79C120.044 75.4492 121.236 74.9304 122.114 74.0341C122.991 73.1379 123.485 71.9348 123.49 70.6804Z" fill="#F0F0F0"/>
<path d="M427.78 137.61C427.778 136.858 427.601 136.115 427.263 135.443C426.924 134.771 426.434 134.186 425.83 133.737C425.226 133.287 424.526 132.985 423.784 132.854C423.043 132.722 422.281 132.766 421.56 132.98C421.776 131.527 421.675 130.044 421.266 128.633C420.856 127.222 420.146 125.916 419.186 124.804C418.225 123.693 417.035 122.801 415.699 122.191C414.362 121.582 412.909 121.267 411.44 121.27C410.806 121.271 410.174 121.328 409.55 121.44C408.535 119.793 407.013 118.52 405.212 117.811C403.411 117.103 401.43 116.998 399.564 117.512C397.699 118.026 396.05 119.131 394.867 120.662C393.683 122.192 393.028 124.066 393 126H392.85C390.665 126 388.569 126.868 387.023 128.414C385.478 129.959 384.61 132.055 384.61 134.24C384.61 136.426 385.478 138.522 387.023 140.067C388.569 141.612 390.665 142.48 392.85 142.48H423.1C424.363 142.444 425.56 141.913 426.436 141.002C427.311 140.091 427.794 138.873 427.78 137.61Z" fill="#F0F0F0"/>
<path d="M284.71 64.2501C284.705 63.0569 284.981 61.8793 285.514 60.8121C286.048 59.7449 286.825 58.8178 287.782 58.1057C288.739 57.3935 289.85 56.9161 291.026 56.7119C292.202 56.5077 293.409 56.5825 294.55 56.9301C294.438 56.1518 294.381 55.3665 294.38 54.5801C294.377 52.202 294.899 49.8525 295.908 47.6993C296.918 45.546 298.39 43.6422 300.22 42.1235C302.05 40.6048 304.193 39.5088 306.495 38.9135C308.798 38.3183 311.203 38.2386 313.54 38.6801C315.132 36.0539 317.536 34.0175 320.389 32.8788C323.241 31.7401 326.387 31.5611 329.35 32.3689C332.313 33.1766 334.933 34.9271 336.813 37.3557C338.693 39.7844 339.731 42.7591 339.77 45.8301H340C343.457 45.8301 346.773 47.2034 349.217 49.648C351.662 52.0925 353.035 55.408 353.035 58.8651C353.035 62.3222 351.662 65.6377 349.217 68.0822C346.773 70.5268 343.457 71.9001 340 71.9001H292.14C290.149 71.8453 288.257 71.0149 286.87 69.5859C285.482 68.1569 284.707 66.2422 284.71 64.2501Z" fill="#F0F0F0"/>
<path d="M143.48 147.47C143.478 146.035 143.813 144.62 144.456 143.338C145.099 142.056 146.033 140.943 147.184 140.086C148.335 139.23 149.67 138.655 151.083 138.407C152.495 138.16 153.947 138.246 155.32 138.66C155.179 137.726 155.109 136.784 155.11 135.84C155.11 130.673 157.162 125.718 160.816 122.065C164.469 118.412 169.424 116.36 174.59 116.36C175.791 116.363 176.989 116.473 178.17 116.69C180.078 113.515 182.971 111.05 186.409 109.671C189.846 108.291 193.64 108.072 197.214 109.046C200.787 110.021 203.945 112.136 206.206 115.07C208.467 118.004 209.708 121.596 209.74 125.3H210C212.093 125.247 214.176 125.613 216.125 126.378C218.074 127.142 219.851 128.289 221.35 129.751C222.849 131.213 224.04 132.96 224.854 134.889C225.667 136.818 226.086 138.891 226.086 140.985C226.086 143.078 225.667 145.151 224.854 147.08C224.04 149.01 222.849 150.757 221.35 152.218C219.851 153.68 218.074 154.827 216.125 155.591C214.176 156.356 212.093 156.722 210 156.67H152.4C150.008 156.599 147.738 155.599 146.072 153.881C144.406 152.163 143.476 149.863 143.48 147.47Z" fill="#F0F0F0"/>
<path d="M184.1 85.1498C184.1 84.3541 183.784 83.5911 183.221 83.0285C182.658 82.4659 181.895 82.1498 181.1 82.1498C180.808 82.1465 180.518 82.1905 180.24 82.2798C180.283 81.9717 180.307 81.661 180.31 81.3498C180.31 79.663 179.64 78.0453 178.447 76.8526C177.254 75.6599 175.637 74.9898 173.95 74.9898C173.557 74.9908 173.166 75.0276 172.78 75.0998C172.153 74.0691 171.208 73.2702 170.087 72.8236C168.967 72.3771 167.731 72.3072 166.567 72.6244C165.403 72.9416 164.374 73.6288 163.635 74.5822C162.896 75.5356 162.487 76.7036 162.47 77.9098H162.38C161.022 77.9098 159.72 78.4492 158.759 79.4094C157.799 80.3696 157.26 81.6719 157.26 83.0298C157.26 84.3877 157.799 85.69 158.759 86.6502C159.72 87.6104 161.022 88.1498 162.38 88.1498H181.19C181.97 88.1264 182.71 87.8 183.253 87.2399C183.796 86.6798 184.1 85.9301 184.1 85.1498Z" fill="#F0F0F0"/>
<path d="M74.7202 176.35C74.7202 175.554 75.0363 174.791 75.5989 174.229C76.1615 173.666 76.9246 173.35 77.7202 173.35C78.0144 173.349 78.3072 173.39 78.5902 173.47C78.5413 173.166 78.5179 172.858 78.5202 172.55C78.5202 171.715 78.6847 170.888 79.0043 170.116C79.324 169.345 79.7924 168.643 80.383 168.053C80.9736 167.462 81.6747 166.994 82.4464 166.674C83.218 166.355 84.045 166.19 84.8802 166.19C85.2727 166.191 85.6644 166.228 86.0502 166.3C86.677 165.269 87.6221 164.47 88.7427 164.024C89.8634 163.577 91.0989 163.507 92.2628 163.825C93.4267 164.142 94.4559 164.829 95.195 165.782C95.9341 166.736 96.3431 167.904 96.3602 169.11H96.4502C97.8081 169.11 99.1104 169.649 100.071 170.61C101.031 171.57 101.57 172.872 101.57 174.23C101.57 175.588 101.031 176.89 100.071 177.85C99.1104 178.811 97.8081 179.35 96.4502 179.35H77.6402C76.8585 179.329 76.1158 179.004 75.5704 178.444C75.025 177.883 74.7199 177.132 74.7202 176.35Z" fill="#F0F0F0"/>
<path d="M356.21 186.15C356.21 185.354 356.526 184.591 357.089 184.028C357.651 183.466 358.414 183.15 359.21 183.15C359.504 183.149 359.797 183.189 360.08 183.27C360.031 182.966 360.008 182.658 360.01 182.35C360.01 180.663 360.68 179.045 361.873 177.853C363.066 176.66 364.683 175.99 366.37 175.99C366.762 175.991 367.154 176.028 367.54 176.1C368.167 175.069 369.112 174.27 370.232 173.824C371.353 173.377 372.589 173.307 373.753 173.624C374.917 173.942 375.946 174.629 376.685 175.582C377.424 176.536 377.833 177.704 377.85 178.91H377.94C379.298 178.91 380.6 179.449 381.56 180.409C382.521 181.37 383.06 182.672 383.06 184.03C383.06 185.388 382.521 186.69 381.56 187.65C380.6 188.61 379.298 189.15 377.94 189.15H359.13C358.348 189.129 357.606 188.804 357.06 188.243C356.515 187.683 356.21 186.932 356.21 186.15Z" fill="#F0F0F0"/>
<path d="M250 372.56C357.082 372.56 443.89 367.492 443.89 361.24C443.89 354.988 357.082 349.92 250 349.92C142.917 349.92 56.1099 354.988 56.1099 361.24C56.1099 367.492 142.917 372.56 250 372.56Z" fill="#F5F5F5"/>
<path d="M388.8 66.0303L346.05 131.12L344.17 133.99L340.45 135.71L208.13 197.2L221.2 241.99L224.19 252.23L213.83 260.79L124.56 347.54H50.6899L184.25 236.62L176.16 192.58L173.96 180.59L184.3 175.83L325.32 110.9L371.25 54.0803L358.93 51.6403L397.66 35.5703L395.67 77.4603L388.8 66.0303Z" fill="#263238"/>
<path opacity="0.6" d="M388.8 66.0303L346.05 131.12L344.17 133.99L340.45 135.71L208.13 197.2L221.2 241.99L224.19 252.23L213.83 260.79L124.56 347.54H50.6899L184.25 236.62L176.16 192.58L173.96 180.59L184.3 175.83L325.32 110.9L371.25 54.0803L358.93 51.6403L397.66 35.5703L395.67 77.4603L388.8 66.0303Z" fill="#FAFAFA"/>
<path d="M366.45 343.49H295.65C294.954 343.49 294.39 344.054 294.39 344.75V360.89C294.39 361.586 294.954 362.15 295.65 362.15H366.45C367.146 362.15 367.71 361.586 367.71 360.89V344.75C367.71 344.054 367.146 343.49 366.45 343.49Z" fill="#1A446E"/>
<path opacity="0.2" d="M300.57 344.57H297.67V361.24H300.57V344.57Z" fill="black"/>
<path opacity="0.2" d="M307.16 344.49H305.05V361.16H307.16V344.49Z" fill="black"/>
<path opacity="0.2" d="M313.23 344.57H312.17V361.24H313.23V344.57Z" fill="black"/>
<path opacity="0.2" d="M321.41 344.49H320.88V361.16H321.41V344.49Z" fill="black"/>
<path opacity="0.2" d="M361.53 361.16H364.43V344.49H361.53V361.16Z" fill="black"/>
<path opacity="0.2" d="M354.94 361.24H357.05V344.57H354.94V361.24Z" fill="black"/>
<path opacity="0.2" d="M348.88 361.16H349.93V344.49H348.88V361.16Z" fill="black"/>
<path opacity="0.2" d="M340.69 361.24H341.22V344.57H340.69V361.24Z" fill="black"/>
<path opacity="0.2" d="M330.92 361.24H331.18V344.57H330.92V361.24Z" fill="black"/>
<path opacity="0.2" d="M365.75 346.33H296.5C296.267 346.33 296.043 346.238 295.878 346.073C295.713 345.908 295.62 345.684 295.62 345.45C295.623 345.218 295.716 344.995 295.881 344.831C296.045 344.666 296.268 344.573 296.5 344.57H365.75C365.984 344.57 366.207 344.663 366.372 344.828C366.537 344.993 366.63 345.217 366.63 345.45C366.631 345.566 366.61 345.681 366.566 345.789C366.522 345.896 366.457 345.994 366.375 346.076C366.293 346.158 366.196 346.222 366.088 346.266C365.981 346.31 365.866 346.332 365.75 346.33Z" fill="white"/>
<path d="M368.45 324.88H297.65C296.954 324.88 296.39 325.444 296.39 326.14V342.28C296.39 342.976 296.954 343.54 297.65 343.54H368.45C369.146 343.54 369.71 342.976 369.71 342.28V326.14C369.71 325.444 369.146 324.88 368.45 324.88Z" fill="#1A446E"/>
<path opacity="0.2" d="M302.57 325.96H299.67V342.63H302.57V325.96Z" fill="black"/>
<path opacity="0.2" d="M309.17 325.88H307.06V342.55H309.17V325.88Z" fill="black"/>
<path opacity="0.2" d="M315.23 325.96H314.18V342.63H315.23V325.96Z" fill="black"/>
<path opacity="0.2" d="M323.41 325.88H322.88V342.55H323.41V325.88Z" fill="black"/>
<path opacity="0.2" d="M363.54 342.54H366.44V325.87H363.54V342.54Z" fill="black"/>
<path opacity="0.2" d="M356.94 342.62H359.05V325.95H356.94V342.62Z" fill="black"/>
<path opacity="0.2" d="M350.87 342.54H351.93V325.87H350.87V342.54Z" fill="black"/>
<path opacity="0.2" d="M342.69 342.62H343.22V325.95H342.69V342.62Z" fill="black"/>
<path opacity="0.2" d="M332.92 342.62H333.18V325.95H332.92V342.62Z" fill="black"/>
<path opacity="0.2" d="M367.75 327.72H298.5C298.268 327.717 298.045 327.624 297.881 327.459C297.716 327.295 297.623 327.073 297.62 326.84C297.62 326.607 297.713 326.383 297.878 326.218C298.043 326.053 298.267 325.96 298.5 325.96H367.75C367.866 325.959 367.981 325.981 368.088 326.024C368.196 326.068 368.293 326.133 368.375 326.215C368.457 326.297 368.522 326.394 368.566 326.502C368.61 326.609 368.631 326.724 368.63 326.84C368.63 327.073 368.537 327.297 368.372 327.462C368.207 327.627 367.984 327.72 367.75 327.72Z" fill="white"/>
<path d="M368.45 306.271H297.65C296.954 306.271 296.39 306.835 296.39 307.531V323.671C296.39 324.366 296.954 324.931 297.65 324.931H368.45C369.146 324.931 369.71 324.366 369.71 323.671V307.531C369.71 306.835 369.146 306.271 368.45 306.271Z" fill="#1A446E"/>
<path opacity="0.2" d="M302.57 307.34H299.67V324.01H302.57V307.34Z" fill="black"/>
<path opacity="0.2" d="M309.17 307.261H307.06V323.931H309.17V307.261Z" fill="black"/>
<path opacity="0.2" d="M315.23 307.34H314.18V324.01H315.23V307.34Z" fill="black"/>
<path opacity="0.2" d="M323.41 307.261H322.88V323.931H323.41V307.261Z" fill="black"/>
<path opacity="0.2" d="M363.54 323.931H366.44V307.261H363.54V323.931Z" fill="black"/>
<path opacity="0.2" d="M356.94 324.011H359.05V307.341H356.94V324.011Z" fill="black"/>
<path opacity="0.2" d="M350.87 323.931H351.93V307.261H350.87V323.931Z" fill="black"/>
<path opacity="0.2" d="M342.69 324.011H343.22V307.341H342.69V324.011Z" fill="black"/>
<path opacity="0.2" d="M332.92 324.011H333.18V307.341H332.92V324.011Z" fill="black"/>
<path opacity="0.2" d="M367.75 309.1H298.5C298.267 309.1 298.043 309.007 297.878 308.842C297.713 308.677 297.62 308.453 297.62 308.22C297.623 307.987 297.716 307.765 297.881 307.6C298.045 307.436 298.268 307.342 298.5 307.34H367.75C367.984 307.34 368.207 307.433 368.372 307.598C368.537 307.763 368.63 307.986 368.63 308.22C368.631 308.336 368.61 308.451 368.566 308.558C368.522 308.666 368.457 308.763 368.375 308.845C368.293 308.927 368.196 308.992 368.088 309.036C367.981 309.079 367.866 309.101 367.75 309.1Z" fill="white"/>
<path d="M366.45 287.65H295.65C294.954 287.65 294.39 288.215 294.39 288.91V305.05C294.39 305.746 294.954 306.31 295.65 306.31H366.45C367.146 306.31 367.71 305.746 367.71 305.05V288.91C367.71 288.215 367.146 287.65 366.45 287.65Z" fill="#1A446E"/>
<path opacity="0.2" d="M300.57 288.73H297.67V305.4H300.57V288.73Z" fill="black"/>
<path opacity="0.2" d="M307.16 288.65H305.05V305.32H307.16V288.65Z" fill="black"/>
<path opacity="0.2" d="M313.23 288.73H312.17V305.4H313.23V288.73Z" fill="black"/>
<path opacity="0.2" d="M321.41 288.65H320.88V305.32H321.41V288.65Z" fill="black"/>
<path opacity="0.2" d="M361.53 305.311H364.43V288.641H361.53V305.311Z" fill="black"/>
<path opacity="0.2" d="M354.94 305.391H357.05V288.721H354.94V305.391Z" fill="black"/>
<path opacity="0.2" d="M348.88 305.311H349.93V288.641H348.88V305.311Z" fill="black"/>
<path opacity="0.2" d="M340.69 305.391H341.22V288.721H340.69V305.391Z" fill="black"/>
<path opacity="0.2" d="M330.92 305.391H331.18V288.721H330.92V305.391Z" fill="black"/>
<path opacity="0.2" d="M365.75 290.491H296.5C296.268 290.488 296.045 290.394 295.881 290.23C295.716 290.065 295.623 289.843 295.62 289.611C295.62 289.377 295.713 289.153 295.878 288.988C296.043 288.823 296.267 288.731 296.5 288.731H365.75C365.866 288.729 365.981 288.751 366.088 288.795C366.196 288.839 366.293 288.903 366.375 288.985C366.457 289.067 366.522 289.165 366.566 289.272C366.61 289.38 366.631 289.495 366.63 289.611C366.63 289.844 366.537 290.068 366.372 290.233C366.207 290.398 365.984 290.491 365.75 290.491Z" fill="white"/>
<path d="M363.45 269.04H292.65C291.954 269.04 291.39 269.604 291.39 270.3V286.44C291.39 287.136 291.954 287.7 292.65 287.7H363.45C364.146 287.7 364.71 287.136 364.71 286.44V270.3C364.71 269.604 364.146 269.04 363.45 269.04Z" fill="#1A446E"/>
<path opacity="0.2" d="M297.57 270.11H294.67V286.78H297.57V270.11Z" fill="black"/>
<path opacity="0.2" d="M304.16 270.03H302.05V286.7H304.16V270.03Z" fill="black"/>
<path opacity="0.2" d="M310.22 270.11H309.17V286.78H310.22V270.11Z" fill="black"/>
<path opacity="0.2" d="M318.41 270.03H317.88V286.7H318.41V270.03Z" fill="black"/>
<path opacity="0.2" d="M358.53 286.7H361.43V270.03H358.53V286.7Z" fill="black"/>
<path opacity="0.2" d="M351.93 286.78H354.04V270.11H351.93V286.78Z" fill="black"/>
<path opacity="0.2" d="M345.88 286.7H346.93V270.03H345.88V286.7Z" fill="black"/>
<path opacity="0.2" d="M337.7 286.78H338.23V270.11H337.7V286.78Z" fill="black"/>
<path opacity="0.2" d="M327.92 286.78H328.18V270.11H327.92V286.78Z" fill="black"/>
<path opacity="0.2" d="M362.75 271.87H293.5C293.384 271.872 293.269 271.85 293.162 271.806C293.054 271.762 292.957 271.698 292.875 271.616C292.793 271.534 292.728 271.436 292.684 271.329C292.641 271.221 292.619 271.106 292.62 270.99C292.62 270.757 292.713 270.533 292.878 270.368C293.043 270.203 293.267 270.11 293.5 270.11H362.75C362.984 270.11 363.207 270.203 363.372 270.368C363.537 270.533 363.63 270.757 363.63 270.99C363.632 271.106 363.61 271.221 363.566 271.329C363.522 271.436 363.457 271.534 363.375 271.616C363.293 271.698 363.196 271.762 363.089 271.806C362.981 271.85 362.866 271.872 362.75 271.87Z" fill="white"/>
<path d="M366.45 250.42H295.65C294.954 250.42 294.39 250.984 294.39 251.68V267.82C294.39 268.516 294.954 269.08 295.65 269.08H366.45C367.146 269.08 367.71 268.516 367.71 267.82V251.68C367.71 250.984 367.146 250.42 366.45 250.42Z" fill="#1A446E"/>
<path opacity="0.2" d="M300.57 251.5H297.67V268.17H300.57V251.5Z" fill="black"/>
<path opacity="0.2" d="M307.16 251.42H305.05V268.09H307.16V251.42Z" fill="black"/>
<path opacity="0.2" d="M313.23 251.5H312.17V268.17H313.23V251.5Z" fill="black"/>
<path opacity="0.2" d="M321.41 251.42H320.88V268.09H321.41V251.42Z" fill="black"/>
<path opacity="0.2" d="M361.53 268.08H364.43V251.41H361.53V268.08Z" fill="black"/>
<path opacity="0.2" d="M354.94 268.16H357.05V251.49H354.94V268.16Z" fill="black"/>
<path opacity="0.2" d="M348.88 268.08H349.93V251.41H348.88V268.08Z" fill="black"/>
<path opacity="0.2" d="M340.69 268.16H341.22V251.49H340.69V268.16Z" fill="black"/>
<path opacity="0.2" d="M330.92 268.16H331.18V251.49H330.92V268.16Z" fill="black"/>
<path opacity="0.2" d="M365.75 253.26H296.5C296.267 253.26 296.043 253.167 295.878 253.002C295.713 252.837 295.62 252.613 295.62 252.38C295.62 252.147 295.713 251.923 295.878 251.758C296.043 251.593 296.267 251.5 296.5 251.5H365.75C365.866 251.499 365.981 251.521 366.088 251.564C366.196 251.608 366.293 251.673 366.375 251.755C366.457 251.837 366.522 251.934 366.566 252.042C366.61 252.149 366.631 252.264 366.63 252.38C366.631 252.496 366.61 252.611 366.566 252.718C366.522 252.826 366.457 252.923 366.375 253.005C366.293 253.087 366.196 253.152 366.088 253.196C365.981 253.24 365.866 253.261 365.75 253.26Z" fill="white"/>
<path d="M366.45 231.811H295.65C294.954 231.811 294.39 232.375 294.39 233.071V249.211C294.39 249.906 294.954 250.471 295.65 250.471H366.45C367.146 250.471 367.71 249.906 367.71 249.211V233.071C367.71 232.375 367.146 231.811 366.45 231.811Z" fill="#1A446E"/>
<path opacity="0.2" d="M300.57 232.88H297.67V249.55H300.57V232.88Z" fill="black"/>
<path opacity="0.2" d="M307.16 232.801H305.05V249.471H307.16V232.801Z" fill="black"/>
<path opacity="0.2" d="M313.23 232.88H312.17V249.55H313.23V232.88Z" fill="black"/>
<path opacity="0.2" d="M321.41 232.801H320.88V249.471H321.41V232.801Z" fill="black"/>
<path opacity="0.2" d="M361.53 249.471H364.43V232.801H361.53V249.471Z" fill="black"/>
<path opacity="0.2" d="M354.94 249.551H357.05V232.881H354.94V249.551Z" fill="black"/>
<path opacity="0.2" d="M348.88 249.471H349.93V232.801H348.88V249.471Z" fill="black"/>
<path opacity="0.2" d="M340.69 249.551H341.22V232.881H340.69V249.551Z" fill="black"/>
<path opacity="0.2" d="M330.92 249.551H331.18V232.881H330.92V249.551Z" fill="black"/>
<path opacity="0.2" d="M365.75 234.65H296.5C296.266 234.647 296.042 234.552 295.877 234.386C295.713 234.219 295.62 233.994 295.62 233.76C295.623 233.527 295.716 233.305 295.881 233.141C296.045 232.976 296.268 232.882 296.5 232.88H365.75C365.984 232.88 366.207 232.973 366.372 233.138C366.537 233.303 366.63 233.526 366.63 233.76C366.631 233.876 366.61 233.992 366.566 234.1C366.522 234.208 366.458 234.306 366.376 234.389C366.294 234.471 366.197 234.537 366.089 234.582C365.982 234.627 365.867 234.65 365.75 234.65Z" fill="white"/>
<path d="M369.45 213.19H298.65C297.954 213.19 297.39 213.755 297.39 214.45V230.59C297.39 231.286 297.954 231.85 298.65 231.85H369.45C370.146 231.85 370.71 231.286 370.71 230.59V214.45C370.71 213.755 370.146 213.19 369.45 213.19Z" fill="#1A446E"/>
<path opacity="0.2" d="M303.57 214.271H300.67V230.941H303.57V214.271Z" fill="black"/>
<path opacity="0.2" d="M310.17 214.19H308.06V230.86H310.17V214.19Z" fill="black"/>
<path opacity="0.2" d="M316.24 214.271H315.18V230.941H316.24V214.271Z" fill="black"/>
<path opacity="0.2" d="M324.41 214.19H323.88V230.86H324.41V214.19Z" fill="black"/>
<path opacity="0.2" d="M364.54 230.851H367.44V214.181H364.54V230.851Z" fill="black"/>
<path opacity="0.2" d="M357.94 230.94H360.05V214.27H357.94V230.94Z" fill="black"/>
<path opacity="0.2" d="M351.88 230.851H352.93V214.181H351.88V230.851Z" fill="black"/>
<path opacity="0.2" d="M343.69 230.94H344.22V214.27H343.69V230.94Z" fill="black"/>
<path opacity="0.2" d="M333.93 230.94H334.19V214.27H333.93V230.94Z" fill="black"/>
<path opacity="0.2" d="M368.75 216H299.51C299.394 216.002 299.278 215.98 299.17 215.936C299.062 215.893 298.964 215.828 298.881 215.746C298.799 215.664 298.733 215.567 298.688 215.459C298.643 215.352 298.62 215.237 298.62 215.12C298.62 215.004 298.643 214.889 298.688 214.781C298.733 214.674 298.799 214.576 298.881 214.494C298.964 214.413 299.062 214.348 299.17 214.304C299.278 214.261 299.394 214.239 299.51 214.24H368.75C368.867 214.239 368.982 214.261 369.09 214.304C369.198 214.348 369.296 214.413 369.379 214.494C369.462 214.576 369.527 214.674 369.572 214.781C369.617 214.889 369.64 215.004 369.64 215.12C369.64 215.237 369.617 215.352 369.572 215.459C369.527 215.567 369.462 215.664 369.379 215.746C369.296 215.828 369.198 215.893 369.09 215.936C368.982 215.98 368.867 216.002 368.75 216Z" fill="white"/>
<path d="M364.45 194.58H293.65C292.954 194.58 292.39 195.144 292.39 195.84V211.98C292.39 212.676 292.954 213.24 293.65 213.24H364.45C365.146 213.24 365.71 212.676 365.71 211.98V195.84C365.71 195.144 365.146 194.58 364.45 194.58Z" fill="#1A446E"/>
<path opacity="0.2" d="M298.57 195.66H295.67V212.33H298.57V195.66Z" fill="black"/>
<path opacity="0.2" d="M305.16 195.57H303.05V212.24H305.16V195.57Z" fill="black"/>
<path opacity="0.2" d="M311.22 195.66H310.17V212.33H311.22V195.66Z" fill="black"/>
<path opacity="0.2" d="M319.41 195.57H318.88V212.24H319.41V195.57Z" fill="black"/>
<path opacity="0.2" d="M359.53 212.24H362.43V195.57H359.53V212.24Z" fill="black"/>
<path opacity="0.2" d="M352.93 212.32H355.04V195.65H352.93V212.32Z" fill="black"/>
<path opacity="0.2" d="M346.88 212.24H347.93V195.57H346.88V212.24Z" fill="black"/>
<path opacity="0.2" d="M338.69 212.32H339.22V195.65H338.69V212.32Z" fill="black"/>
<path opacity="0.2" d="M328.92 212.32H329.18V195.65H328.92V212.32Z" fill="black"/>
<path opacity="0.2" d="M363.75 197.42H294.5C294.268 197.418 294.045 197.324 293.881 197.16C293.716 196.995 293.623 196.773 293.62 196.54C293.62 196.307 293.713 196.083 293.878 195.918C294.043 195.753 294.267 195.66 294.5 195.66H363.75C363.866 195.659 363.981 195.681 364.088 195.724C364.196 195.768 364.293 195.833 364.375 195.915C364.457 195.997 364.522 196.094 364.566 196.202C364.61 196.309 364.631 196.424 364.63 196.54C364.63 196.774 364.537 196.997 364.372 197.162C364.207 197.327 363.984 197.42 363.75 197.42Z" fill="white"/>
<path d="M362.45 175.96H291.65C290.954 175.96 290.39 176.524 290.39 177.22V193.36C290.39 194.056 290.954 194.62 291.65 194.62H362.45C363.146 194.62 363.71 194.056 363.71 193.36V177.22C363.71 176.524 363.146 175.96 362.45 175.96Z" fill="#1A446E"/>
<path opacity="0.2" d="M296.57 177.04H293.67V193.71H296.57V177.04Z" fill="black"/>
<path opacity="0.2" d="M303.16 176.96H301.05V193.63H303.16V176.96Z" fill="black"/>
<path opacity="0.2" d="M309.23 177.04H308.17V193.71H309.23V177.04Z" fill="black"/>
<path opacity="0.2" d="M317.41 176.96H316.88V193.63H317.41V176.96Z" fill="black"/>
<path opacity="0.2" d="M357.53 193.62H360.43V176.95H357.53V193.62Z" fill="black"/>
<path opacity="0.2" d="M350.93 193.71H353.04V177.04H350.93V193.71Z" fill="black"/>
<path opacity="0.2" d="M344.87 193.62H345.92V176.95H344.87V193.62Z" fill="black"/>
<path opacity="0.2" d="M336.7 193.71H337.23V177.04H336.7V193.71Z" fill="black"/>
<path opacity="0.2" d="M326.92 193.71H327.18V177.04H326.92V193.71Z" fill="black"/>
<path opacity="0.2" d="M361.75 178.8H292.5C292.384 178.801 292.269 178.78 292.162 178.736C292.054 178.692 291.957 178.627 291.875 178.545C291.793 178.463 291.728 178.366 291.684 178.258C291.641 178.151 291.619 178.036 291.62 177.92C291.619 177.804 291.641 177.689 291.684 177.582C291.728 177.474 291.793 177.377 291.875 177.295C291.957 177.213 292.054 177.148 292.162 177.104C292.269 177.061 292.384 177.039 292.5 177.04H361.75C361.866 177.039 361.981 177.061 362.089 177.104C362.196 177.148 362.293 177.213 362.375 177.295C362.457 177.377 362.522 177.474 362.566 177.582C362.61 177.689 362.632 177.804 362.63 177.92C362.632 178.036 362.61 178.151 362.566 178.258C362.522 178.366 362.457 178.463 362.375 178.545C362.293 178.627 362.196 178.692 362.089 178.736C361.981 178.78 361.866 178.801 361.75 178.8Z" fill="white"/>
<path d="M276.4 343.49H205.6C204.904 343.49 204.34 344.054 204.34 344.75V360.89C204.34 361.586 204.904 362.15 205.6 362.15H276.4C277.096 362.15 277.66 361.586 277.66 360.89V344.75C277.66 344.054 277.096 343.49 276.4 343.49Z" fill="#1A446E"/>
<path opacity="0.2" d="M210.51 344.57H207.61V361.24H210.51V344.57Z" fill="black"/>
<path opacity="0.2" d="M217.11 344.49H215V361.16H217.11V344.49Z" fill="black"/>
<path opacity="0.2" d="M223.17 344.57H222.12V361.24H223.17V344.57Z" fill="black"/>
<path opacity="0.2" d="M231.35 344.49H230.82V361.16H231.35V344.49Z" fill="black"/>
<path opacity="0.2" d="M271.48 361.16H274.38V344.49H271.48V361.16Z" fill="black"/>
<path opacity="0.2" d="M264.88 361.24H266.99V344.57H264.88V361.24Z" fill="black"/>
<path opacity="0.2" d="M258.82 361.16H259.87V344.49H258.82V361.16Z" fill="black"/>
<path opacity="0.2" d="M250.64 361.24H251.17V344.57H250.64V361.24Z" fill="black"/>
<path opacity="0.2" d="M240.87 361.24H241.13V344.57H240.87V361.24Z" fill="black"/>
<path opacity="0.2" d="M275.7 346.33H206.45C206.334 346.332 206.219 346.31 206.112 346.266C206.004 346.222 205.907 346.158 205.825 346.076C205.743 345.994 205.678 345.896 205.634 345.789C205.59 345.681 205.569 345.566 205.57 345.45C205.57 345.217 205.663 344.993 205.828 344.828C205.993 344.663 206.216 344.57 206.45 344.57H275.7C275.932 344.573 276.155 344.666 276.319 344.831C276.484 344.995 276.577 345.218 276.58 345.45C276.58 345.684 276.487 345.908 276.322 346.073C276.157 346.238 275.933 346.33 275.7 346.33Z" fill="white"/>
<path d="M273.39 324.88H202.59C201.894 324.88 201.33 325.444 201.33 326.14V342.28C201.33 342.976 201.894 343.54 202.59 343.54H273.39C274.086 343.54 274.65 342.976 274.65 342.28V326.14C274.65 325.444 274.086 324.88 273.39 324.88Z" fill="#1A446E"/>
<path opacity="0.2" d="M207.51 325.96H204.61V342.63H207.51V325.96Z" fill="black"/>
<path opacity="0.2" d="M214.11 325.88H212V342.55H214.11V325.88Z" fill="black"/>
<path opacity="0.2" d="M220.17 325.96H219.12V342.63H220.17V325.96Z" fill="black"/>
<path opacity="0.2" d="M228.35 325.88H227.82V342.55H228.35V325.88Z" fill="black"/>
<path opacity="0.2" d="M268.48 342.54H271.38V325.87H268.48V342.54Z" fill="black"/>
<path opacity="0.2" d="M261.88 342.62H263.99V325.95H261.88V342.62Z" fill="black"/>
<path opacity="0.2" d="M255.82 342.54H256.87V325.87H255.82V342.54Z" fill="black"/>
<path opacity="0.2" d="M247.63 342.62H248.16V325.95H247.63V342.62Z" fill="black"/>
<path opacity="0.2" d="M237.86 342.62H238.12V325.95H237.86V342.62Z" fill="black"/>
<path opacity="0.2" d="M272.69 327.72H203.44C203.207 327.717 202.985 327.624 202.821 327.459C202.656 327.295 202.563 327.073 202.56 326.84C202.56 326.607 202.653 326.383 202.818 326.218C202.983 326.053 203.207 325.96 203.44 325.96H272.69C272.806 325.959 272.921 325.981 273.028 326.024C273.136 326.068 273.233 326.133 273.315 326.215C273.397 326.297 273.462 326.394 273.506 326.502C273.55 326.609 273.571 326.724 273.57 326.84C273.57 327.073 273.477 327.297 273.312 327.462C273.147 327.627 272.923 327.72 272.69 327.72Z" fill="white"/>
<path d="M276.4 306.271H205.6C204.904 306.271 204.34 306.835 204.34 307.531V323.671C204.34 324.366 204.904 324.931 205.6 324.931H276.4C277.096 324.931 277.66 324.366 277.66 323.671V307.531C277.66 306.835 277.096 306.271 276.4 306.271Z" fill="#1A446E"/>
<path opacity="0.2" d="M210.51 307.34H207.61V324.01H210.51V307.34Z" fill="black"/>
<path opacity="0.2" d="M217.11 307.261H215V323.931H217.11V307.261Z" fill="black"/>
<path opacity="0.2" d="M223.17 307.34H222.12V324.01H223.17V307.34Z" fill="black"/>
<path opacity="0.2" d="M231.35 307.261H230.82V323.931H231.35V307.261Z" fill="black"/>
<path opacity="0.2" d="M271.48 323.931H274.38V307.261H271.48V323.931Z" fill="black"/>
<path opacity="0.2" d="M264.88 324.011H266.99V307.341H264.88V324.011Z" fill="black"/>
<path opacity="0.2" d="M258.82 323.931H259.87V307.261H258.82V323.931Z" fill="black"/>
<path opacity="0.2" d="M250.64 324.011H251.17V307.341H250.64V324.011Z" fill="black"/>
<path opacity="0.2" d="M240.87 324.011H241.13V307.341H240.87V324.011Z" fill="black"/>
<path opacity="0.2" d="M275.7 309.1H206.45C206.334 309.101 206.219 309.079 206.112 309.036C206.004 308.992 205.907 308.927 205.825 308.845C205.743 308.763 205.678 308.666 205.634 308.558C205.59 308.451 205.569 308.336 205.57 308.22C205.57 307.986 205.663 307.763 205.828 307.598C205.993 307.433 206.216 307.34 206.45 307.34H275.7C275.932 307.342 276.155 307.436 276.319 307.6C276.484 307.765 276.577 307.987 276.58 308.22C276.58 308.453 276.487 308.677 276.322 308.842C276.157 309.007 275.933 309.1 275.7 309.1Z" fill="white"/>
<path d="M274.39 287.65H203.59C202.894 287.65 202.33 288.215 202.33 288.91V305.05C202.33 305.746 202.894 306.31 203.59 306.31H274.39C275.086 306.31 275.65 305.746 275.65 305.05V288.91C275.65 288.215 275.086 287.65 274.39 287.65Z" fill="#1A446E"/>
<path opacity="0.2" d="M208.51 288.73H205.61V305.4H208.51V288.73Z" fill="black"/>
<path opacity="0.2" d="M215.11 288.65H213V305.32H215.11V288.65Z" fill="black"/>
<path opacity="0.2" d="M221.17 288.73H220.12V305.4H221.17V288.73Z" fill="black"/>
<path opacity="0.2" d="M229.35 288.65H228.82V305.32H229.35V288.65Z" fill="black"/>
<path opacity="0.2" d="M269.48 305.311H272.38V288.641H269.48V305.311Z" fill="black"/>
<path opacity="0.2" d="M262.88 305.391H264.99V288.721H262.88V305.391Z" fill="black"/>
<path opacity="0.2" d="M256.81 305.311H257.87V288.641H256.81V305.311Z" fill="black"/>
<path opacity="0.2" d="M248.63 305.391H249.16V288.721H248.63V305.391Z" fill="black"/>
<path opacity="0.2" d="M238.87 305.391H239.13V288.721H238.87V305.391Z" fill="black"/>
<path opacity="0.2" d="M273.69 290.491H204.45C204.216 290.491 203.991 290.398 203.824 290.233C203.658 290.069 203.563 289.845 203.56 289.61C203.56 289.494 203.583 289.379 203.628 289.271C203.673 289.164 203.739 289.067 203.821 288.985C203.904 288.903 204.002 288.838 204.11 288.795C204.218 288.751 204.334 288.729 204.45 288.731H273.69C273.806 288.729 273.922 288.751 274.03 288.795C274.138 288.838 274.236 288.903 274.319 288.985C274.402 289.067 274.467 289.164 274.512 289.271C274.557 289.379 274.58 289.494 274.58 289.61C274.577 289.845 274.483 290.069 274.316 290.233C274.149 290.398 273.924 290.491 273.69 290.491Z" fill="white"/>
<path d="M274.39 269.04H203.59C202.894 269.04 202.33 269.604 202.33 270.3V286.44C202.33 287.136 202.894 287.7 203.59 287.7H274.39C275.086 287.7 275.65 287.136 275.65 286.44V270.3C275.65 269.604 275.086 269.04 274.39 269.04Z" fill="#1A446E"/>
<path opacity="0.2" d="M208.51 270.11H205.61V286.78H208.51V270.11Z" fill="black"/>
<path opacity="0.2" d="M215.11 270.03H213V286.7H215.11V270.03Z" fill="black"/>
<path opacity="0.2" d="M221.17 270.11H220.12V286.78H221.17V270.11Z" fill="black"/>
<path opacity="0.2" d="M229.35 270.03H228.82V286.7H229.35V270.03Z" fill="black"/>
<path opacity="0.2" d="M269.48 286.7H272.38V270.03H269.48V286.7Z" fill="black"/>
<path opacity="0.2" d="M262.88 286.78H264.99V270.11H262.88V286.78Z" fill="black"/>
<path opacity="0.2" d="M256.81 286.7H257.87V270.03H256.81V286.7Z" fill="black"/>
<path opacity="0.2" d="M248.63 286.78H249.16V270.11H248.63V286.78Z" fill="black"/>
<path opacity="0.2" d="M238.87 286.78H239.13V270.11H238.87V286.78Z" fill="black"/>
<path opacity="0.2" d="M273.69 271.87H204.45C204.334 271.872 204.218 271.85 204.11 271.806C204.002 271.763 203.904 271.698 203.821 271.616C203.739 271.534 203.673 271.437 203.628 271.329C203.583 271.222 203.56 271.107 203.56 270.99C203.563 270.756 203.658 270.532 203.824 270.367C203.991 270.203 204.216 270.11 204.45 270.11H273.69C273.924 270.11 274.149 270.203 274.316 270.367C274.483 270.532 274.577 270.756 274.58 270.99C274.58 271.107 274.557 271.222 274.512 271.329C274.467 271.437 274.402 271.534 274.319 271.616C274.236 271.698 274.138 271.763 274.03 271.806C273.922 271.85 273.806 271.872 273.69 271.87Z" fill="white"/>
<path d="M274.39 250.42H203.59C202.894 250.42 202.33 250.984 202.33 251.68V267.82C202.33 268.516 202.894 269.08 203.59 269.08H274.39C275.086 269.08 275.65 268.516 275.65 267.82V251.68C275.65 250.984 275.086 250.42 274.39 250.42Z" fill="#1A446E"/>
<path opacity="0.2" d="M208.51 251.5H205.61V268.17H208.51V251.5Z" fill="black"/>
<path opacity="0.2" d="M215.11 251.42H213V268.09H215.11V251.42Z" fill="black"/>
<path opacity="0.2" d="M221.17 251.5H220.12V268.17H221.17V251.5Z" fill="black"/>
<path opacity="0.2" d="M229.35 251.42H228.82V268.09H229.35V251.42Z" fill="black"/>
<path opacity="0.2" d="M269.48 268.08H272.38V251.41H269.48V268.08Z" fill="black"/>
<path opacity="0.2" d="M262.88 268.16H264.99V251.49H262.88V268.16Z" fill="black"/>
<path opacity="0.2" d="M256.81 268.08H257.87V251.41H256.81V268.08Z" fill="black"/>
<path opacity="0.2" d="M248.63 268.16H249.16V251.49H248.63V268.16Z" fill="black"/>
<path opacity="0.2" d="M238.87 268.16H239.13V251.49H238.87V268.16Z" fill="black"/>
<path opacity="0.2" d="M273.69 253.26H204.45C204.334 253.261 204.218 253.24 204.11 253.196C204.002 253.152 203.904 253.088 203.821 253.006C203.739 252.924 203.673 252.827 203.628 252.719C203.583 252.612 203.56 252.496 203.56 252.38C203.56 252.264 203.583 252.148 203.628 252.041C203.673 251.934 203.739 251.836 203.821 251.754C203.904 251.672 204.002 251.608 204.11 251.564C204.218 251.521 204.334 251.499 204.45 251.5H273.69C273.806 251.499 273.922 251.521 274.03 251.564C274.138 251.608 274.236 251.672 274.319 251.754C274.402 251.836 274.467 251.934 274.512 252.041C274.557 252.148 274.58 252.264 274.58 252.38C274.58 252.496 274.557 252.612 274.512 252.719C274.467 252.827 274.402 252.924 274.319 253.006C274.236 253.088 274.138 253.152 274.03 253.196C273.922 253.24 273.806 253.261 273.69 253.26Z" fill="white"/>
<path d="M275.26 212.99H204.46C203.764 212.99 203.2 213.554 203.2 214.25V230.39C203.2 231.086 203.764 231.65 204.46 231.65H275.26C275.956 231.65 276.52 231.086 276.52 230.39V214.25C276.52 213.554 275.956 212.99 275.26 212.99Z" fill="#1A446E"/>
<path opacity="0.2" d="M209.38 214.07H206.48V230.74H209.38V214.07Z" fill="black"/>
<path opacity="0.2" d="M215.98 213.99H213.87V230.66H215.98V213.99Z" fill="black"/>
<path opacity="0.2" d="M222.04 214.07H220.99V230.74H222.04V214.07Z" fill="black"/>
<path opacity="0.2" d="M230.22 213.99H229.69V230.66H230.22V213.99Z" fill="black"/>
<path opacity="0.2" d="M270.35 230.65H273.25V213.98H270.35V230.65Z" fill="black"/>
<path opacity="0.2" d="M263.75 230.74H265.86V214.07H263.75V230.74Z" fill="black"/>
<path opacity="0.2" d="M257.69 230.65H258.74V213.98H257.69V230.65Z" fill="black"/>
<path opacity="0.2" d="M249.5 230.74H250.03V214.07H249.5V230.74Z" fill="black"/>
<path opacity="0.2" d="M239.74 230.74H240V214.07H239.74V230.74Z" fill="black"/>
<path opacity="0.2" d="M274.56 215.83H205.32C205.204 215.832 205.088 215.81 204.98 215.766C204.872 215.723 204.774 215.658 204.691 215.576C204.609 215.494 204.543 215.397 204.498 215.289C204.453 215.182 204.43 215.067 204.43 214.95C204.433 214.716 204.528 214.492 204.694 214.327C204.861 214.163 205.086 214.07 205.32 214.07H274.56C274.795 214.07 275.019 214.163 275.186 214.327C275.353 214.492 275.448 214.716 275.45 214.95C275.45 215.067 275.427 215.182 275.382 215.289C275.337 215.397 275.272 215.494 275.189 215.576C275.106 215.658 275.008 215.723 274.9 215.766C274.792 215.81 274.677 215.832 274.56 215.83Z" fill="white"/>
<path d="M276.4 231.811H205.6C204.904 231.811 204.34 232.375 204.34 233.071V249.211C204.34 249.906 204.904 250.471 205.6 250.471H276.4C277.096 250.471 277.66 249.906 277.66 249.211V233.071C277.66 232.375 277.096 231.811 276.4 231.811Z" fill="#1A446E"/>
<path opacity="0.2" d="M210.51 232.88H207.61V249.55H210.51V232.88Z" fill="black"/>
<path opacity="0.2" d="M217.11 232.801H215V249.471H217.11V232.801Z" fill="black"/>
<path opacity="0.2" d="M223.17 232.88H222.12V249.55H223.17V232.88Z" fill="black"/>
<path opacity="0.2" d="M231.35 232.801H230.82V249.471H231.35V232.801Z" fill="black"/>
<path opacity="0.2" d="M271.48 249.471H274.38V232.801H271.48V249.471Z" fill="black"/>
<path opacity="0.2" d="M264.88 249.551H266.99V232.881H264.88V249.551Z" fill="black"/>
<path opacity="0.2" d="M258.82 249.471H259.87V232.801H258.82V249.471Z" fill="black"/>
<path opacity="0.2" d="M250.64 249.551H251.17V232.881H250.64V249.551Z" fill="black"/>
<path opacity="0.2" d="M240.87 249.551H241.13V232.881H240.87V249.551Z" fill="black"/>
<path opacity="0.2" d="M275.7 234.65H206.45C206.333 234.65 206.218 234.627 206.111 234.582C206.003 234.537 205.906 234.471 205.824 234.389C205.742 234.306 205.678 234.208 205.634 234.1C205.59 233.992 205.569 233.876 205.57 233.76C205.57 233.526 205.663 233.303 205.828 233.138C205.993 232.973 206.216 232.88 206.45 232.88H275.7C275.932 232.882 276.155 232.976 276.319 233.141C276.484 233.305 276.577 233.527 276.58 233.76C276.58 233.994 276.487 234.219 276.323 234.386C276.158 234.552 275.934 234.647 275.7 234.65Z" fill="white"/>
<path d="M250.08 201.311L247.84 205.691L245.56 210.141L241.57 208.681L243.57 204.771L246.09 199.851L250.08 201.311Z" fill="#FFC2BC"/>
<path opacity="0.2" d="M250.08 201.311L247.84 205.691L243.57 204.771L246.09 199.851L250.08 201.311Z" fill="black"/>
<path d="M337.22 176.54C337.1 176.541 336.983 176.498 336.893 176.419C336.803 176.339 336.745 176.23 336.73 176.11C336.59 175.11 323.45 77.1103 307.59 34.1103C307.558 34.0477 307.539 33.9789 307.536 33.9086C307.532 33.8383 307.543 33.768 307.569 33.7024C307.594 33.6367 307.633 33.5772 307.683 33.5276C307.733 33.4781 307.793 33.4396 307.859 33.4149C307.925 33.3901 307.995 33.3795 308.066 33.3837C308.136 33.388 308.204 33.4071 308.267 33.4397C308.329 33.4723 308.384 33.5177 308.428 33.573C308.471 33.6282 308.503 33.6921 308.52 33.7603C324.43 76.8403 337.59 175 337.72 176C337.737 176.133 337.702 176.267 337.621 176.373C337.541 176.48 337.422 176.551 337.29 176.57L337.22 176.54Z" fill="#263238"/>
<path d="M311.9 173.72L316.15 173.55L316.98 163.69L312.72 163.86L311.9 173.72Z" fill="#FFC2BC"/>
<path d="M316.55 171.3L311.91 171.15C311.825 171.151 311.742 171.178 311.674 171.228C311.606 171.279 311.555 171.349 311.53 171.43L310.53 175.17C310.506 175.261 310.502 175.355 310.52 175.447C310.537 175.539 310.575 175.626 310.631 175.701C310.687 175.776 310.759 175.837 310.842 175.88C310.925 175.924 311.016 175.948 311.11 175.95C312.79 175.95 315.22 175.95 317.33 176.01C319.79 176.09 321.33 176.01 324.25 176.06C325.99 176.11 326.55 174.37 325.82 174.19C322.52 173.36 320.36 173.51 317.56 171.66C317.262 171.451 316.913 171.326 316.55 171.3Z" fill="#263238"/>
<path opacity="0.2" d="M316.98 163.69L316.55 168.77L312.3 168.95L312.72 163.86L316.98 163.69Z" fill="black"/>
<path d="M310.17 138C311.25 140.07 311.33 161.77 311.33 167.28H318.68C319.63 161.57 324.33 130.91 317.68 126.53C310.36 121.7 291.8 123.36 291.8 123.36L290.46 120.65L287.78 115.25L272.42 121L269.07 122.24L267.69 122.76H267.57C267.57 122.76 267.57 122.91 267.57 123.17C267.62 123.77 267.76 124.98 268.01 126.49C268.3 128.301 268.708 130.092 269.23 131.85C270.65 136.48 273.17 140.85 277.55 139.39C277.74 139.33 277.93 139.25 278.12 139.17C278.48 139.01 278.87 138.86 279.27 138.71C282.781 137.579 286.413 136.864 290.09 136.58C299.37 135.7 309.35 136.4 310.17 138Z" fill="#263238"/>
<path d="M319.01 167.92L310.42 168.15L310.37 165.38L319.81 164.99L319.01 167.92Z" fill="#1A446E"/>
<path d="M246.3 208.001H241.12C241.036 208.001 240.955 208.03 240.889 208.082C240.824 208.135 240.778 208.209 240.76 208.291L239.88 212.061C239.859 212.152 239.859 212.247 239.88 212.338C239.901 212.43 239.942 212.516 240.001 212.589C240.059 212.662 240.134 212.721 240.219 212.761C240.304 212.801 240.396 212.821 240.49 212.821C242.16 212.821 243.38 212.691 245.49 212.691C246.78 212.691 250.67 212.831 252.49 212.831C254.31 212.831 254.49 211.061 253.79 210.901C250.53 210.191 248.07 209.201 247.03 208.261C246.932 208.171 246.817 208.102 246.691 208.057C246.566 208.012 246.433 207.993 246.3 208.001Z" fill="#263238"/>
<path d="M284 122.721L283.11 125.791C282.64 127.431 281.99 129.661 281.23 132.251L279.33 138.721C276.09 149.671 271.97 163.341 269.69 169.831C265.15 182.711 249.96 205.621 249.96 205.621L242.65 202.941C242.65 202.941 253.87 181.361 257.55 168.301C260.12 159.181 264.15 142.791 266.8 131.781L268.07 126.501C268.5 124.701 268.85 123.231 269.07 122.201C269.29 121.171 269.47 120.511 269.47 120.511L272.42 120.961L284 122.721Z" fill="#263238"/>
<path d="M250.75 206.1L242.15 202.94L243.12 200.38L252.29 203.16L250.75 206.1Z" fill="#1A446E"/>
<path opacity="0.2" d="M290.49 120.64L284 128.21L283.11 125.79L282.11 123.15L281.2 132.25L269.26 131.86L266.77 131.78L268.04 126.5C267.79 124.99 267.65 123.78 267.6 123.18L267.68 122.73L269.06 122.21C269.32 121.13 269.46 120.52 269.46 120.52L272.41 120.97L287.8 115.25L290.49 120.64Z" fill="black"/>
<path opacity="0.2" d="M290.13 136.591C286.025 136.866 281.983 137.738 278.13 139.181C277.94 139.261 277.75 139.341 277.56 139.401L278.43 135.121C278.43 135.121 285.92 134.771 290.13 136.591Z" fill="black"/>
<path d="M234.28 124.75L231.67 128.21L229.46 124C229.46 124 231.97 121.05 233.46 122.41L234.28 124.75Z" fill="#FFC2BC"/>
<path d="M227.68 129.79L227.03 125.48L229.46 123.95L231.67 128.21L227.68 129.79Z" fill="#FFC2BC"/>
<path d="M234.99 124.43L234.26 124.8L233.18 122.06L234.34 121.5L234.99 124.43Z" fill="white"/>
<path d="M264.1 99.46C263.72 100.127 263.33 100.767 262.93 101.38C261.924 103.02 260.87 104.633 259.77 106.22L258.86 107.53C257.94 108.85 256.97 110.14 255.93 111.43C255.41 112.07 254.88 112.72 254.29 113.36C253.698 114.03 253.067 114.665 252.4 115.26C249.842 117.437 247.028 119.294 244.02 120.79C241.121 122.288 238.112 123.565 235.02 124.61L233.72 121.69C235.02 120.9 236.37 120.09 237.66 119.25C238.95 118.41 240.26 117.58 241.51 116.7C242.76 115.82 243.99 114.93 245.15 114C246.291 113.107 247.373 112.142 248.39 111.11C250.31 108.879 252.04 106.49 253.56 103.97C255.23 101.38 257.34 96.84 258.99 94.25L264.1 99.46Z" fill="#263238"/>
<path opacity="0.2" d="M262.93 101.381C261.923 103.021 260.87 104.634 259.77 106.221C259.881 104.118 260.466 102.067 261.48 100.221C262.082 100.429 262.595 100.839 262.93 101.381Z" fill="black"/>
<path d="M320.27 88.6901L317.37 91.3901L317.78 93.8901C318.84 95.2901 321.28 93.5601 321.85 93.1201C321.941 93.054 322.038 92.997 322.14 92.9501L323.68 92.3301C323.952 92.2169 324.179 92.0151 324.322 91.7574C324.465 91.4997 324.517 91.2012 324.47 90.9101L324.17 89.0701C324.143 88.8975 324.08 88.7321 323.987 88.5842C323.894 88.4363 323.772 88.309 323.628 88.2098C323.483 88.1107 323.321 88.0418 323.149 88.0075C322.978 87.9732 322.801 87.9741 322.63 88.0101L320.9 88.3601C320.662 88.4063 320.443 88.521 320.27 88.6901Z" fill="#FFC2BC"/>
<path d="M316.7 91.41L317.5 91.21L317.96 94.11L316.7 94.41V91.41Z" fill="white"/>
<path d="M317.37 94.4303C314.194 95.1027 310.971 95.5373 307.73 95.7303C304.391 95.9896 301.032 95.8351 297.73 95.2703C296.851 95.1023 295.983 94.8819 295.13 94.6103C294.29 94.3503 293.51 94.0703 292.73 93.7803C291.18 93.2103 289.73 92.6003 288.22 91.9303L286.45 91.1303C285.11 90.5103 283.79 89.8703 282.45 89.2003C281.45 88.7203 280.52 88.2003 279.56 87.6803L282.13 81.5703C284.88 82.9503 288.13 84.8203 290.89 86.1903C293.481 87.5828 296.188 88.7472 298.98 89.6703C300.38 90.0408 301.803 90.3181 303.24 90.5003C304.72 90.7103 306.24 90.8403 307.75 90.9603C309.26 91.0803 310.82 91.1503 312.36 91.1703C313.9 91.1903 315.48 91.2403 317 91.2603L317.37 94.4303Z" fill="#263238"/>
<path opacity="0.2" d="M286.42 91.1304C285.08 90.5104 283.76 89.8703 282.42 89.2003L281.9 86.3604C283.901 87.3958 285.494 89.0766 286.42 91.1304Z" fill="black"/>
<path d="M259.88 93.7006C261.533 97.7662 262.85 101.96 263.82 106.241C264.54 109.241 267.09 112.241 267.53 114.991C267.95 118.024 268.551 121.029 269.33 123.991C272.38 122.351 281.61 120.321 287.8 116.991C288.06 92.0706 281.37 82.3506 281.37 82.3506C279.671 82.7828 278.001 83.3205 276.37 83.9606L275.29 84.4106C272.311 85.8163 269.407 87.375 266.59 89.0806C266.04 89.4106 265.49 89.7506 264.96 90.0806C262.24 91.8606 259.88 93.7006 259.88 93.7006Z" fill="#1A446E"/>
<path opacity="0.7" d="M259.88 93.7006C261.533 97.7662 262.85 101.96 263.82 106.241C264.54 109.241 267.09 112.241 267.53 114.991C267.95 118.024 268.551 121.029 269.33 123.991C272.38 122.351 281.61 120.321 287.8 116.991C288.06 92.0706 281.37 82.3506 281.37 82.3506C279.671 82.7828 278.001 83.3205 276.37 83.9606L275.29 84.4106C272.311 85.8163 269.407 87.375 266.59 89.0806C266.04 89.4106 265.49 89.7506 264.96 90.0806C262.24 91.8606 259.88 93.7006 259.88 93.7006Z" fill="white"/>
<path d="M276.27 93.2303L276.65 90.9203L275.06 90.8203L274.09 91.8903L276.27 93.2303Z" fill="#1A446E"/>
<path d="M275.06 90.8202C272.12 92.4602 269.21 90.5502 267.33 89.2402L267.13 89.1002C267.96 87.9502 268.04 86.1002 267.77 84.2402C267.451 82.1849 266.9 80.1722 266.13 78.2402L272.86 82.1002C272.86 82.5602 272.78 82.9702 272.76 83.3302C272.67 84.2002 272.66 84.7902 273.14 85.1702C273.886 85.5866 274.737 85.7776 275.59 85.7202C276.36 86.6102 277.08 89.6902 275.06 90.8202Z" fill="#FFC2BC"/>
<path d="M265 90.1103C265 90.1103 273.47 98.9503 279.67 103.76C279.67 103.76 279.21 88.1303 276.41 83.9803L282.17 81.5703C282.17 81.5703 287.71 93.8103 288.5 114.25L291 119.4L284 126.52L281.75 121.24L280.24 130L265.8 131.28L267.57 121.28L259.04 94.2803L265 90.1103Z" fill="#263238"/>
<path d="M275.51 92.7605C275.51 92.7605 277.51 99.5805 277.37 103.22L279.95 104.56L280.41 102.56C280.41 102.56 278.14 93.7705 276.05 92.2305L275.51 92.7605Z" fill="#1A446E"/>
<path d="M265.3 89.38C265.3 89.38 275.88 100.99 279.62 103.76C279.62 103.76 278.53 88.04 276.1 84.09C276.1 84.09 277.77 82.94 281.33 86.41L279.55 89.71L282.71 91.89C282.71 91.89 281.63 103.67 279.55 109.26C279.701 108.08 279.768 106.89 279.75 105.7L267.34 98.82L267.89 95.02L263.2 94.82C263.2 94.82 263.72 90.33 265.3 89.38Z" fill="#263238"/>
<path opacity="0.2" d="M265.3 89.38C265.3 89.38 275.88 100.99 279.62 103.76C279.62 103.76 278.53 88.04 276.1 84.09C276.1 84.09 277.77 82.94 281.33 86.41L279.55 89.71L282.71 91.89C282.71 91.89 281.63 103.67 279.55 109.26C279.701 108.08 279.768 106.89 279.75 105.7L267.34 98.82L267.89 95.02L263.2 94.82C263.2 94.82 263.72 90.33 265.3 89.38Z" fill="white"/>
<path d="M308.38 34.8203C308.38 34.8203 302.38 34.1403 299.03 35.7203C295.68 37.3003 292.31 42.4503 286.87 42.9403C281.43 43.4303 280.34 41.6603 280.34 41.6603C280.34 41.6603 285.13 50.1603 294.34 50.0703C303.55 49.9803 308.34 48.4603 313.77 51.8803C313.79 51.8803 309.61 37.4703 308.38 34.8203Z" fill="#1A446E"/>
<path opacity="0.2" d="M273.14 85.1499C272.58 86.8899 271.19 89.3499 267.9 89.2899C267.71 89.3056 267.52 89.3056 267.33 89.2899L267.13 89.1499C267.96 87.9999 268.04 86.1499 267.77 84.2899C269.249 83.3327 271.046 82.9985 272.77 83.3599C272.67 84.1799 272.66 84.7699 273.14 85.1499Z" fill="black"/>
<path d="M275.06 90.8199C275.113 92.0282 274.854 93.2298 274.31 94.3098C272.46 94.0498 266.93 91.3099 266.65 89.0199C266.792 88.4701 267.091 87.9734 267.51 87.5898C269.618 89.4437 272.263 90.5754 275.06 90.8199Z" fill="white"/>
<path d="M275.06 90.8208C276.09 91.088 277.048 91.5759 277.87 92.2508C278.39 90.1008 276.24 84.9308 275.69 84.6508C274.793 84.5639 273.89 84.7157 273.07 85.0908C273.07 85.0908 276.09 87.9108 275.06 90.8208Z" fill="white"/>
<path d="M260.25 76.0805C260.14 77.7905 261.25 80.9905 263.17 79.3905C265.09 77.7905 260.44 73.1405 260.25 76.0805Z" fill="#263238"/>
<path d="M272.22 75.4306C273.46 79.4306 274.39 81.7506 273.16 84.5006C271.3 88.6406 265.74 88.6306 263.31 85.0406C261.13 81.8206 259.46 75.7806 262.75 72.7906C263.477 72.131 264.36 71.6665 265.315 71.4404C266.271 71.2142 267.268 71.2339 268.214 71.4976C269.159 71.7612 270.023 72.2602 270.724 72.948C271.424 73.6358 271.939 74.4899 272.22 75.4306Z" fill="#FFC2BC"/>
<path d="M272.86 70.3403C272.46 67.7203 269.35 68.0903 267.53 69.4703V74.6403C268.232 74.3066 268.902 73.9082 269.53 73.4503C269.53 73.4503 270.24 77.3203 272.61 78.4503C275.63 75.5203 275.88 71.0003 272.86 70.3403Z" fill="#263238"/>
<path d="M275 78.1406C275.057 79.1915 274.698 80.2227 274 81.0106C273.05 82.0106 271.83 81.3606 271.48 80.0706C271.13 78.7806 271.27 77.0006 272.48 76.4506C272.757 76.335 273.059 76.2899 273.358 76.3193C273.657 76.3487 273.944 76.4516 274.194 76.619C274.443 76.7864 274.648 77.0129 274.788 77.2784C274.929 77.5439 275.002 77.8401 275 78.1406Z" fill="#FFC2BC"/>
<path d="M266.64 78.7301C266.76 79.0501 266.64 79.3701 266.47 79.4501C266.3 79.5301 265.99 79.3301 265.87 79.0101C265.75 78.6901 265.87 78.3701 266.04 78.2901C266.21 78.2101 266.51 78.4101 266.64 78.7301Z" fill="#263238"/>
<path d="M263 80.0602C263.13 80.3802 263.05 80.7002 262.84 80.7802C262.63 80.8602 262.36 80.6602 262.24 80.3402C262.12 80.0202 262.19 79.7002 262.4 79.6202C262.61 79.5402 262.87 79.7402 263 80.0602Z" fill="#263238"/>
<path d="M264.21 79.8008C264.171 80.8921 263.979 81.9726 263.64 83.0108C263.917 83.0802 264.206 83.0893 264.488 83.0376C264.769 82.9858 265.036 82.8744 265.27 82.7108L264.21 79.8008Z" fill="#ED893E"/>
<path d="M267.46 83.3101L267.05 83.4901C267.025 83.4994 266.997 83.4983 266.973 83.487C266.948 83.4758 266.93 83.4553 266.92 83.4301C266.911 83.4049 266.912 83.3771 266.923 83.3527C266.935 83.3283 266.955 83.3094 266.98 83.3001C267.383 83.163 267.747 82.9331 268.044 82.6291C268.341 82.3251 268.562 81.9555 268.69 81.5501C268.693 81.5369 268.698 81.5242 268.705 81.513C268.712 81.5017 268.722 81.492 268.733 81.4846C268.744 81.4771 268.757 81.472 268.77 81.4695C268.784 81.467 268.797 81.4672 268.81 81.4701C268.823 81.4723 268.836 81.4773 268.847 81.4848C268.858 81.4923 268.867 81.5021 268.874 81.5136C268.88 81.5251 268.884 81.5379 268.886 81.5511C268.887 81.5643 268.885 81.5777 268.88 81.5901C268.774 81.9586 268.592 82.3012 268.348 82.597C268.104 82.8929 267.802 83.1355 267.46 83.3101Z" fill="#263238"/>
<path d="M267.32 77.15C267.288 77.1675 267.252 77.1767 267.215 77.1767C267.178 77.1767 267.142 77.1675 267.11 77.15C266.9 77.007 266.659 76.9161 266.407 76.8848C266.155 76.8535 265.899 76.8827 265.66 76.97C265.611 76.9912 265.555 76.9921 265.506 76.9724C265.456 76.9527 265.416 76.9141 265.395 76.865C265.374 76.8159 265.373 76.7605 265.393 76.7108C265.412 76.6611 265.451 76.6212 265.5 76.6C265.8 76.4858 266.122 76.4452 266.441 76.4818C266.759 76.5183 267.064 76.6309 267.33 76.81C267.374 76.8404 267.404 76.8862 267.415 76.9382C267.426 76.9902 267.417 77.0444 267.39 77.09C267.371 77.1145 267.347 77.1349 267.32 77.15Z" fill="#263238"/>
<path d="M261 79.3905C260.962 79.4051 260.919 79.4051 260.88 79.3905C260.854 79.388 260.828 79.3804 260.805 79.3679C260.782 79.3555 260.761 79.3386 260.744 79.3181C260.728 79.2976 260.715 79.2741 260.708 79.2487C260.7 79.2234 260.698 79.1968 260.7 79.1705C260.729 78.8491 260.835 78.5394 261.009 78.2677C261.183 77.9961 261.42 77.7706 261.7 77.6105C261.724 77.5986 261.75 77.5914 261.776 77.5894C261.802 77.5875 261.829 77.5908 261.854 77.5991C261.879 77.6075 261.902 77.6208 261.922 77.6382C261.942 77.6556 261.959 77.6768 261.97 77.7005C261.995 77.747 262.001 77.8015 261.986 77.852C261.971 77.9026 261.937 77.9452 261.89 77.9705C261.674 78.1005 261.492 78.2814 261.361 78.4975C261.231 78.7136 261.155 78.9584 261.14 79.2106C261.138 79.2512 261.124 79.2903 261.098 79.3225C261.073 79.3546 261.039 79.3784 261 79.3905Z" fill="#263238"/>
<path d="M269.44 73.4807C269.44 73.4807 266.91 76.0908 264.44 75.9608C265.106 75.6579 265.713 75.2379 266.23 74.7207C266.23 74.7207 261.4 76.8107 259.02 75.7207C256.64 74.6307 256.91 73.4507 256.91 73.4507C256.91 73.4507 257.18 74.1408 259.49 74.0708C259.49 74.0708 257.49 72.7607 258.3 70.9107C258.416 71.1321 258.585 71.3207 258.794 71.4588C259.002 71.5969 259.241 71.6802 259.49 71.7007C260.274 70.4939 261.326 69.4849 262.565 68.7528C263.804 68.0206 265.195 67.5852 266.63 67.4807C271.82 66.8907 272.87 68.9407 273.1 70.4807C273.33 72.0207 269.44 73.4807 269.44 73.4807Z" fill="#263238"/>
<path d="M186.34 343.489H115.54C114.844 343.489 114.28 344.053 114.28 344.749V360.889C114.28 361.585 114.844 362.149 115.54 362.149H186.34C187.036 362.149 187.6 361.585 187.6 360.889V344.749C187.6 344.053 187.036 343.489 186.34 343.489Z" fill="#1A446E"/>
<path opacity="0.2" d="M120.46 344.569H117.56V361.239H120.46V344.569Z" fill="black"/>
<path opacity="0.2" d="M127.05 344.489H124.94V361.159H127.05V344.489Z" fill="black"/>
<path opacity="0.2" d="M133.11 344.569H132.06V361.239H133.11V344.569Z" fill="black"/>
<path opacity="0.2" d="M141.29 344.489H140.76V361.159H141.29V344.489Z" fill="black"/>
<path opacity="0.2" d="M181.42 361.159H184.32V344.489H181.42V361.159Z" fill="black"/>
<path opacity="0.2" d="M174.83 361.239H176.94V344.569H174.83V361.239Z" fill="black"/>
<path opacity="0.2" d="M168.76 361.159H169.81V344.489H168.76V361.159Z" fill="black"/>
<path opacity="0.2" d="M160.58 361.239H161.11V344.569H160.58V361.239Z" fill="black"/>
<path opacity="0.2" d="M150.81 361.239H151.07V344.569H150.81V361.239Z" fill="black"/>
<path opacity="0.2" d="M185.64 346.329H116.39C116.274 346.331 116.159 346.309 116.051 346.265C115.944 346.221 115.847 346.157 115.765 346.075C115.683 345.993 115.618 345.895 115.574 345.788C115.53 345.68 115.508 345.565 115.51 345.449C115.51 345.216 115.603 344.992 115.768 344.827C115.933 344.662 116.156 344.569 116.39 344.569H185.64C185.873 344.569 186.097 344.662 186.262 344.827C186.427 344.992 186.52 345.216 186.52 345.449C186.521 345.565 186.499 345.68 186.456 345.788C186.412 345.895 186.347 345.993 186.265 346.075C186.183 346.157 186.086 346.221 185.978 346.265C185.871 346.309 185.756 346.331 185.64 346.329Z" fill="white"/>
<path d="M187.34 324.88H116.54C115.844 324.88 115.28 325.444 115.28 326.14V342.28C115.28 342.976 115.844 343.54 116.54 343.54H187.34C188.036 343.54 188.6 342.976 188.6 342.28V326.14C188.6 325.444 188.036 324.88 187.34 324.88Z" fill="#1A446E"/>
<path opacity="0.2" d="M121.46 325.96H118.56V342.63H121.46V325.96Z" fill="black"/>
<path opacity="0.2" d="M128.05 325.88H125.94V342.55H128.05V325.88Z" fill="black"/>
<path opacity="0.2" d="M134.11 325.96H133.06V342.63H134.11V325.96Z" fill="black"/>
<path opacity="0.2" d="M142.3 325.88H141.77V342.55H142.3V325.88Z" fill="black"/>
<path opacity="0.2" d="M182.42 342.54H185.32V325.87H182.42V342.54Z" fill="black"/>
<path opacity="0.2" d="M175.82 342.619H177.93V325.949H175.82V342.619Z" fill="black"/>
<path opacity="0.2" d="M169.76 342.54H170.81V325.87H169.76V342.54Z" fill="black"/>
<path opacity="0.2" d="M161.58 342.619H162.11V325.949H161.58V342.619Z" fill="black"/>
<path opacity="0.2" d="M151.81 342.619H152.07V325.949H151.81V342.619Z" fill="black"/>
<path opacity="0.2" d="M186.64 327.72H117.39C117.156 327.72 116.933 327.627 116.768 327.462C116.603 327.297 116.51 327.073 116.51 326.84C116.508 326.724 116.53 326.609 116.574 326.502C116.618 326.394 116.683 326.297 116.765 326.215C116.847 326.133 116.944 326.068 117.051 326.024C117.159 325.981 117.274 325.959 117.39 325.96H186.64C186.756 325.959 186.871 325.981 186.978 326.024C187.086 326.068 187.183 326.133 187.265 326.215C187.347 326.297 187.412 326.394 187.456 326.502C187.499 326.609 187.521 326.724 187.52 326.84C187.52 327.073 187.427 327.297 187.262 327.462C187.097 327.627 186.873 327.72 186.64 327.72Z" fill="white"/>
<path d="M183.34 306.27H112.54C111.844 306.27 111.28 306.834 111.28 307.53V323.67C111.28 324.365 111.844 324.93 112.54 324.93H183.34C184.036 324.93 184.6 324.365 184.6 323.67V307.53C184.6 306.834 184.036 306.27 183.34 306.27Z" fill="#1A446E"/>
<path opacity="0.2" d="M117.45 307.34H114.55V324.01H117.45V307.34Z" fill="black"/>
<path opacity="0.2" d="M124.05 307.26H121.94V323.93H124.05V307.26Z" fill="black"/>
<path opacity="0.2" d="M130.11 307.34H129.06V324.01H130.11V307.34Z" fill="black"/>
<path opacity="0.2" d="M138.29 307.26H137.76V323.93H138.29V307.26Z" fill="black"/>
<path opacity="0.2" d="M178.41 323.93H181.31V307.26H178.41V323.93Z" fill="black"/>
<path opacity="0.2" d="M171.83 324.01H173.94V307.34H171.83V324.01Z" fill="black"/>
<path opacity="0.2" d="M165.76 323.93H166.81V307.26H165.76V323.93Z" fill="black"/>
<path opacity="0.2" d="M157.58 324.01H158.11V307.34H157.58V324.01Z" fill="black"/>
<path opacity="0.2" d="M147.81 324.01H148.07V307.34H147.81V324.01Z" fill="black"/>
<path opacity="0.2" d="M182.64 309.1H113.39C113.274 309.101 113.159 309.079 113.051 309.036C112.944 308.992 112.847 308.927 112.765 308.845C112.683 308.763 112.618 308.666 112.574 308.558C112.53 308.451 112.508 308.336 112.51 308.22C112.51 307.986 112.603 307.763 112.768 307.598C112.933 307.433 113.156 307.34 113.39 307.34H182.64C182.872 307.342 183.095 307.436 183.259 307.6C183.424 307.765 183.517 307.987 183.52 308.22C183.52 308.453 183.427 308.677 183.262 308.842C183.097 309.007 182.873 309.1 182.64 309.1Z" fill="white"/>
<path d="M143.46 293.93L141.45 298.88L139.93 302.62L136.11 301.26L137.48 297.9L139.64 292.56L143.46 293.93Z" fill="#E4897B"/>
<path d="M225.1 267.43L221.85 269.84L220.66 267.2L217.9 261.1L221.15 258.68L223.76 264.46L225.1 267.43Z" fill="#E4897B"/>
<path opacity="0.2" d="M139.64 292.56L143.46 293.93L141.45 298.88L137.48 297.9L139.64 292.56Z" fill="black"/>
<path opacity="0.2" d="M223.76 264.46L220.66 267.2L217.9 261.1L221.15 258.68L223.76 264.46Z" fill="black"/>
<path d="M172.13 156.879C172.24 157.189 172.49 157.379 172.69 157.309C172.89 157.239 172.97 156.929 172.86 156.619C172.75 156.309 172.5 156.119 172.3 156.189C172.1 156.259 172 156.569 172.13 156.879Z" fill="#263238"/>
<path d="M172.46 157.39C173.159 158.2 173.967 158.91 174.86 159.5C174.705 159.726 174.502 159.916 174.265 160.054C174.028 160.192 173.763 160.276 173.49 160.3L172.46 157.39Z" fill="#DE5753"/>
<path d="M170.4 155.569C170.354 155.583 170.306 155.583 170.26 155.569C170.227 155.534 170.208 155.488 170.208 155.439C170.208 155.391 170.227 155.344 170.26 155.309C170.427 155.056 170.652 154.846 170.917 154.696C171.181 154.547 171.477 154.462 171.78 154.449C171.831 154.452 171.88 154.474 171.915 154.511C171.95 154.548 171.97 154.598 171.97 154.649C171.97 154.675 171.965 154.701 171.955 154.724C171.944 154.748 171.93 154.769 171.911 154.787C171.892 154.805 171.87 154.819 171.846 154.828C171.821 154.837 171.796 154.841 171.77 154.839C171.529 154.849 171.294 154.917 171.086 155.038C170.877 155.158 170.7 155.326 170.57 155.529C170.546 155.547 170.518 155.56 170.489 155.567C170.46 155.574 170.429 155.575 170.4 155.569Z" fill="#263238"/>
<path d="M164.73 161.92C164.78 164.92 164.4 170.38 162.01 171.97C162.01 171.97 162.28 175.07 167.7 176.03C173.7 177.1 171.08 173.58 171.08 173.58C167.97 172.23 168.48 169.83 169.45 167.66L164.73 161.92Z" fill="#E4897B"/>
<path d="M161.63 159.85C163.19 163.55 163.92 165.85 166.52 167.07C170.42 168.97 174.52 165.59 174.05 161.5C173.67 157.81 171.17 152.38 166.93 152.18C165.997 152.132 165.067 152.324 164.229 152.737C163.391 153.149 162.673 153.769 162.142 154.538C161.611 155.306 161.285 156.197 161.195 157.127C161.106 158.057 161.255 158.994 161.63 159.85Z" fill="#E4897B"/>
<path d="M164.27 165.87C166.03 166.58 171.56 162.62 169.67 158.06C169.67 158.06 171.56 155.01 170.88 152.06C170.2 149.11 167.98 148.22 165.88 149.18C164.02 150.02 164.22 151.07 164.22 151.07C164.22 151.07 155.22 153.43 157.68 156.88C154.51 161.44 162.06 165 164.27 165.87Z" fill="#263238"/>
<path d="M168.19 159.1C168.586 160.016 169.271 160.778 170.14 161.27C171.3 161.9 171.97 161.02 171.73 159.85C171.49 158.68 170.66 157.2 169.46 157.05C168.26 156.9 167.73 158 168.19 159.1Z" fill="#E4897B"/>
<path d="M160.57 172C160.15 171.16 159.69 170.2 160.71 169.94C161.73 169.68 168.97 169.26 171.04 169.94C170.36 171.07 171.41 172.51 171.41 172.51L160.57 172Z" fill="#1A446E"/>
<path opacity="0.5" d="M160.57 172C160.15 171.16 159.69 170.2 160.71 169.94C161.73 169.68 168.97 169.26 171.04 169.94C170.36 171.07 171.41 172.51 171.41 172.51L160.57 172Z" fill="#FAFAFA"/>
<path d="M140.19 301H135.77C135.69 301.001 135.612 301.029 135.55 301.08C135.489 301.131 135.446 301.201 135.43 301.28L134.63 304.88C134.608 304.967 134.607 305.058 134.626 305.145C134.646 305.233 134.685 305.314 134.741 305.384C134.797 305.454 134.869 305.51 134.95 305.547C135.032 305.585 135.12 305.603 135.21 305.6C136.8 305.6 139.11 305.48 141.11 305.48C143.46 305.48 145.48 305.61 148.23 305.61C149.9 305.61 150.36 303.93 149.66 303.78C146.49 303.08 143.91 303.01 141.17 301.32C140.878 301.126 140.54 301.016 140.19 301Z" fill="#263238"/>
<path d="M168.79 207.749C168.79 207.749 167.53 216.239 166 225.999C165.33 230.179 164.61 234.589 163.9 238.669C163.11 243.239 162.34 247.379 161.7 250.299C158.91 262.999 144.1 297.999 144.1 297.999L136.85 296.429C136.85 296.429 147.21 269.199 149.52 251.429C151.31 237.799 154.82 207.739 154.82 207.739L168.79 207.749Z" fill="#263238"/>
<path d="M145.83 295.57L144.48 298.19L136.32 296.42L137 294L145.83 295.57Z" fill="#1A446E"/>
<path opacity="0.3" d="M145.83 295.57L144.48 298.19L136.32 296.42L137 294L145.83 295.57Z" fill="black"/>
<path opacity="0.2" d="M166 226C165.33 230.18 164.61 234.59 163.9 238.67C161.9 230.6 162.55 225.77 162.55 225.77L166 226Z" fill="black"/>
<path d="M156.94 179.41C154.99 181.25 152.94 183.2 151.08 185.15C149.2 187.059 147.418 189.062 145.74 191.15C145.024 192.185 144.379 193.268 143.81 194.39C143.19 195.6 142.56 196.83 141.96 198.09L138.29 205.67L135.41 204.67C136.03 201.86 136.82 199.12 137.68 196.37C138.13 195 138.61 193.63 139.14 192.26C139.699 190.787 140.385 189.365 141.19 188.01C142.815 185.531 144.641 183.19 146.65 181.01C148.592 178.829 150.663 176.766 152.85 174.83L156.94 179.41Z" fill="#DC897C"/>
<path d="M135.17 212.07L136.64 209.46L132.16 208.1C131.908 208.704 131.784 209.354 131.798 210.008C131.812 210.663 131.962 211.307 132.24 211.9L135.17 212.07Z" fill="#E4897B"/>
<path d="M138.28 205.629L135.41 204.699L132.16 208.099L136.64 209.459L138.28 205.629Z" fill="#E4897B"/>
<path d="M225.05 266.879L221.4 269.589C221.336 269.638 221.29 269.707 221.271 269.785C221.251 269.863 221.257 269.946 221.29 270.019L222.79 273.389C222.825 273.472 222.879 273.545 222.948 273.603C223.016 273.661 223.098 273.702 223.185 273.724C223.272 273.745 223.363 273.746 223.451 273.726C223.538 273.706 223.62 273.666 223.69 273.609C224.95 272.609 225.52 272.109 227.12 270.919C228.12 270.189 230.4 268.579 231.77 267.569C233.14 266.559 232.31 265.069 231.66 265.369C228.75 266.679 227.07 266.819 225.73 266.689C225.487 266.668 225.246 266.735 225.05 266.879Z" fill="#263238"/>
<path d="M155.2 172.38C151.31 172.14 145.57 180.55 145.57 180.55L151.23 188.28C153.714 186.831 155.781 184.764 157.23 182.28C159.92 177.74 159.17 172.63 155.2 172.38Z" fill="#1A446E"/>
<path opacity="0.6" d="M155.2 172.38C151.31 172.14 145.57 180.55 145.57 180.55L151.23 188.28C153.714 186.831 155.781 184.764 157.23 182.28C159.92 177.74 159.17 172.63 155.2 172.38Z" fill="#FAFAFA"/>
<path opacity="0.2" d="M156.3 180.14C153.75 181.51 152.05 184.88 150.98 187.93L151.23 188.28C153.714 186.831 155.781 184.764 157.23 182.28C157.39 182.02 157.54 181.74 157.68 181.47L156.3 180.14Z" fill="black"/>
<path d="M178.22 171.759C178.22 171.759 180.55 177.619 176.47 207.759H154.82C154.67 204.429 156.76 188.209 153.55 172.549C155.944 172.085 158.366 171.778 160.8 171.629C163.57 171.499 172.8 169.629 175.24 169.859C178.45 170.139 178.22 171.759 178.22 171.759Z" fill="#1A446E"/>
<path opacity="0.6" d="M178.73 185.05C178.47 190.38 177.82 197.72 176.47 207.75H154.82C154.67 204.42 156.76 188.2 153.55 172.54C155.944 172.075 158.366 171.768 160.8 171.62C163.57 171.49 172.8 169.62 175.24 169.85C178.45 170.14 178.24 171.76 178.24 171.76C178.24 171.76 178.73 172.99 178.86 177.22C178.91 179.15 178.9 181.7 178.73 185.05Z" fill="#FAFAFA"/>
<path d="M175.59 206L179.87 216C179.87 216 200.6 218.6 206.48 225.73C212.36 232.86 223.48 261.79 223.48 261.79L217.94 266.5C217.94 266.5 202.04 237.26 197.59 233.73C193.14 230.2 167.81 230.21 162.15 228.1C156.49 225.99 154.86 207.72 154.86 207.72L175.59 206Z" fill="#263238"/>
<path d="M216.76 265.95L223.44 260.83L224.3 262.48L217.9 267.53L216.76 265.95Z" fill="#1A446E"/>
<path opacity="0.3" d="M216.76 265.95L223.44 260.83L224.3 262.48L217.9 267.53L216.76 265.95Z" fill="black"/>
<path d="M171 153.5C171 153.5 170.75 147.56 167.61 147.36C164.47 147.16 162 150 162 150C161.696 149.621 161.311 149.314 160.873 149.103C160.435 148.892 159.956 148.782 159.47 148.78C157.69 148.68 154.59 151.71 154.59 151.71C154.59 151.71 158.46 149.33 160.09 150.42C160.09 150.42 155.7 151.64 154.59 154.42C154.114 155.832 153.328 157.12 152.29 158.19H154.59L153.08 160.76C153.08 160.76 156.26 163.83 158.66 163.32L157.89 164.78C157.89 164.78 162.6 166.5 164.52 165.97C166.44 165.44 164.62 155.88 164.62 155.88L171 153.5Z" fill="#263238"/>
<path opacity="0.2" d="M178.73 185.049C174.8 182.379 174.86 176.229 174.86 176.229L178.86 177.229C178.91 179.149 178.9 181.699 178.73 185.049Z" fill="black"/>
<path d="M142.48 215.41L115.77 210.92L108.86 231.48L113.28 239.51L142.44 243.35L148.35 220.95L142.48 215.41Z" fill="#1A446E"/>
<path opacity="0.4" d="M108.86 231.48L110.58 234.61L110.97 235.3L113.28 239.51L142.44 243.35L148.35 220.95L145.84 218.59L145.07 217.86L142.49 215.41L115.77 210.92L108.86 231.48Z" fill="black"/>
<path opacity="0.2" d="M148.35 220.95L121.91 216.84L115.77 210.92L142.49 215.41L148.35 220.95Z" fill="white"/>
<path opacity="0.1" d="M121.91 216.84L113.28 239.51L108.86 231.48L115.77 210.92L121.91 216.84Z" fill="white"/>
<path d="M110.58 234.61L110.97 235.3L118.96 214.07L145.84 218.59L145.07 217.86L118.48 213.6L110.58 234.61Z" fill="#263238"/>
<path d="M136.82 216.629L135.47 215.379L128.74 214.159L129.92 215.519L136.82 216.629Z" fill="#263238"/>
<path d="M139.42 217.13C139.42 217.13 139.73 210.07 139.54 209.6C139.35 209.13 129.88 207.6 129.17 207.45C128.46 207.3 125.34 214.18 125.34 214.18L125.88 215.01L127.67 215.25C127.67 215.25 129.94 209.32 130.17 209.17C132.765 209.446 135.342 209.866 137.89 210.43C138.09 210.59 137.31 215.98 137.31 215.98L137.92 216.86L139.42 217.13Z" fill="#263238"/>
<path d="M110.67 228.349L112.67 230.919L112.86 230.409L114.37 226.409L114.55 225.929L114.87 225.069C114.87 225.069 114.3 225.709 113.52 226.439C112.711 227.265 111.741 227.915 110.67 228.349Z" fill="#1A446E"/>
<path opacity="0.2" d="M111.32 228.54L112.81 230.41L114.32 226.41L114.5 225.93C113.671 227.048 112.579 227.945 111.32 228.54Z" fill="white"/>
<path opacity="0.2" d="M113.47 226.43H114.32L114.82 225.09C114.82 225.09 114.25 225.7 113.47 226.43Z" fill="black"/>
<path d="M109.94 223.32L109.57 226.94C111.064 226.257 112.728 226.034 114.35 226.3L114.54 225.8L115.7 222.69L115.83 222.37C113.817 222.172 111.788 222.499 109.94 223.32Z" fill="#1A446E"/>
<path d="M113.74 217.18C114.438 218.541 115.358 219.778 116.46 220.84L116.6 220.46L116.96 219.46L117.56 217.81L117.85 217.01L117.93 216.78C117.451 216.047 117.036 215.274 116.69 214.47L113.74 217.18Z" fill="#1A446E"/>
<path d="M119.86 212.52C120.225 213.091 120.507 213.71 120.7 214.36L121.12 214.43L121.7 214.52L122.63 214.69L123.52 214.84L123.83 214.89C123.814 213.501 123.295 212.165 122.37 211.13L119.86 212.52Z" fill="#1A446E"/>
<path opacity="0.2" d="M120.42 212.62C120.718 213.196 120.953 213.803 121.12 214.43L121.7 214.52C121.651 214.444 121.619 214.357 121.607 214.268C121.595 214.178 121.603 214.086 121.63 214C121.656 213.921 121.697 213.848 121.752 213.785C121.806 213.722 121.872 213.67 121.947 213.633C122.021 213.596 122.102 213.574 122.185 213.568C122.268 213.563 122.351 213.573 122.43 213.6C122.509 213.625 122.581 213.665 122.644 213.718C122.707 213.772 122.759 213.837 122.796 213.911C122.833 213.984 122.855 214.065 122.861 214.147C122.867 214.229 122.856 214.312 122.83 214.39C122.793 214.507 122.724 214.611 122.63 214.69L123.52 214.84C123.467 213.663 123.059 212.53 122.35 211.59L120.42 212.62Z" fill="white"/>
<path opacity="0.2" d="M110.18 223.459L109.95 226.389C111.426 225.893 112.986 225.692 114.54 225.799L115.7 222.689C113.824 222.462 111.922 222.727 110.18 223.459ZM113.39 223.219C113.51 223.178 113.638 223.164 113.764 223.18C113.89 223.195 114.011 223.24 114.117 223.31C114.224 223.379 114.313 223.473 114.377 223.582C114.442 223.692 114.48 223.815 114.49 223.941C114.499 224.068 114.479 224.195 114.432 224.313C114.384 224.431 114.311 224.537 114.216 224.622C114.121 224.706 114.008 224.768 113.886 224.803C113.763 224.837 113.635 224.843 113.51 224.819C113.39 224.861 113.262 224.875 113.135 224.859C113.009 224.843 112.888 224.799 112.782 224.729C112.676 224.659 112.587 224.566 112.522 224.457C112.458 224.347 112.419 224.224 112.41 224.097C112.4 223.971 112.42 223.843 112.467 223.725C112.515 223.607 112.589 223.502 112.684 223.417C112.778 223.332 112.891 223.27 113.014 223.236C113.136 223.202 113.265 223.196 113.39 223.219Z" fill="white"/>
<path opacity="0.2" d="M114.25 217.34C114.907 218.469 115.696 219.516 116.6 220.46L116.96 219.46C116.756 219.377 116.591 219.218 116.502 219.017C116.412 218.815 116.404 218.587 116.48 218.38C116.543 218.174 116.68 218 116.865 217.891C117.05 217.781 117.27 217.745 117.48 217.79L117.77 216.99C117.262 216.428 116.85 215.786 116.55 215.09L114.25 217.34Z" fill="white"/>
<path d="M203.73 152.86L205.27 150.29L208.67 153.51C208.27 154.028 207.766 154.456 207.191 154.768C206.616 155.079 205.982 155.267 205.33 155.32L203.73 152.86Z" fill="#E4897B"/>
<path d="M207.65 146.85L210.06 150.24L208.67 153.51L205.27 150.29L207.65 146.85Z" fill="#E4897B"/>
<path d="M177.12 170.36C179.887 169.792 182.624 169.084 185.32 168.24C187.917 167.469 190.409 166.381 192.74 165C192.952 164.866 193.156 164.72 193.35 164.56L194.04 163.92C194.52 163.46 195.04 162.92 195.49 162.44C196.44 161.38 197.42 160.29 198.36 159.17C200.29 156.95 202.17 154.64 204.11 152.39L206.64 154.07C205.25 156.78 203.71 159.36 202.08 161.93C201.25 163.2 200.4 164.48 199.46 165.73C198.99 166.35 198.46 166.98 197.96 167.61C197.7 167.92 197.37 168.24 197.08 168.56C196.722 168.914 196.345 169.248 195.95 169.56C193.295 171.465 190.373 172.967 187.28 174.02C184.322 175.09 181.277 175.903 178.18 176.45L177.12 170.36Z" fill="#DC897C"/>
<path d="M175.83 179.1C180.04 182.75 189.29 176.49 189.29 176.49L185.6 167.38C182.206 167.776 178.857 168.496 175.6 169.53C169.75 171.52 172.61 176.32 175.83 179.1Z" fill="#1A446E"/>
<path opacity="0.6" d="M175.83 179.1C180.04 182.75 189.29 176.49 189.29 176.49L185.6 167.38C182.206 167.776 178.857 168.496 175.6 169.53C169.75 171.52 172.61 176.32 175.83 179.1Z" fill="#FAFAFA"/>
</svg>
