<svg width="387" height="319" viewBox="0 0 387 319" fill="none" xmlns="http://www.w3.org/2000/svg">
<path d="M357.634 176.175C353.519 159.464 333.24 136.146 315.682 129.778C293.26 121.647 282.309 134.88 262.668 132.618C209.634 126.5 188.359 84.3676 161.025 46.2414C100.537 -38.2519 -19.2625 -0.99273 15.1367 109.649C35.8042 176.145 114.787 276.633 194.686 209.727C229.205 180.829 214.248 164.327 260.734 189.678C279.08 199.683 376.269 251.869 357.634 176.175Z" fill="#86A6B5"/>
<path opacity="0.9" d="M357.634 176.175C353.519 159.464 333.24 136.146 315.682 129.778C293.26 121.647 282.309 134.88 262.668 132.618C209.634 126.5 188.359 84.3676 161.025 46.2414C100.537 -38.2519 -19.2625 -0.99273 15.1367 109.649C35.8042 176.145 114.787 276.633 194.686 209.727C229.205 180.829 214.248 164.327 260.734 189.678C279.08 199.683 376.269 251.869 357.634 176.175Z" fill="white"/>
<path d="M193.212 318.994C299.919 318.994 386.423 313.943 386.423 307.713C386.423 301.483 299.919 296.433 193.212 296.433C86.5038 296.433 0 301.483 0 307.713C0 313.943 86.5038 318.994 193.212 318.994Z" fill="#F5F5F5"/>
<path d="M312.672 302.023H311.606C311.384 302.006 311.175 301.909 311.019 301.75C310.863 301.59 310.771 301.379 310.759 301.156L304.202 255.496H309.185L313.529 300.857C313.553 300.99 313.55 301.127 313.52 301.259C313.489 301.391 313.432 301.515 313.352 301.624C313.271 301.734 313.17 301.825 313.053 301.894C312.936 301.962 312.807 302.006 312.672 302.023Z" fill="#21558A"/>
<path opacity="0.3" d="M312.672 302.023H311.606C311.384 302.006 311.175 301.909 311.019 301.75C310.863 301.59 310.771 301.379 310.759 301.156L304.202 255.496H309.185L313.529 300.857C313.553 300.99 313.55 301.127 313.52 301.259C313.489 301.391 313.432 301.515 313.352 301.624C313.271 301.734 313.17 301.825 313.053 301.894C312.936 301.962 312.807 302.006 312.672 302.023Z" fill="black"/>
<path d="M326.344 302.023H325.278C325.056 302.006 324.847 301.909 324.691 301.75C324.535 301.59 324.442 301.379 324.431 301.156L317.874 255.496H322.857L327.211 300.857C327.235 300.991 327.232 301.129 327.2 301.261C327.169 301.394 327.111 301.519 327.03 301.628C326.949 301.737 326.846 301.828 326.728 301.896C326.61 301.964 326.48 302.008 326.344 302.023Z" fill="#21558A"/>
<path opacity="0.3" d="M326.344 302.023H325.278C325.056 302.006 324.847 301.909 324.691 301.75C324.535 301.59 324.442 301.379 324.431 301.156L317.874 255.496H322.857L327.211 300.857C327.235 300.991 327.232 301.129 327.2 301.261C327.169 301.394 327.111 301.519 327.03 301.628C326.949 301.737 326.846 301.828 326.728 301.896C326.61 301.964 326.48 302.008 326.344 302.023Z" fill="black"/>
<path d="M250.172 302.023H251.238C251.461 302.006 251.669 301.909 251.825 301.75C251.981 301.59 252.074 301.379 252.085 301.156L258.642 255.496H253.66L249.315 300.857C249.291 300.99 249.294 301.127 249.325 301.259C249.355 301.391 249.412 301.515 249.492 301.624C249.573 301.734 249.674 301.825 249.791 301.894C249.908 301.962 250.037 302.006 250.172 302.023Z" fill="#21558A"/>
<path opacity="0.3" d="M250.172 302.023H251.238C251.461 302.006 251.669 301.909 251.825 301.75C251.981 301.59 252.074 301.379 252.085 301.156L258.642 255.496H253.66L249.315 300.857C249.291 300.99 249.294 301.127 249.325 301.259C249.355 301.391 249.412 301.515 249.492 301.624C249.573 301.734 249.674 301.825 249.791 301.894C249.908 301.962 250.037 302.006 250.172 302.023Z" fill="black"/>
<path d="M236.5 302.023H237.566C237.788 302.006 237.997 301.909 238.153 301.75C238.309 301.59 238.401 301.379 238.413 301.156L244.97 255.496H239.987L235.643 300.857C235.619 300.99 235.622 301.127 235.652 301.259C235.683 301.391 235.74 301.515 235.82 301.624C235.901 301.734 236.002 301.825 236.119 301.894C236.236 301.962 236.365 302.006 236.5 302.023Z" fill="#21558A"/>
<path opacity="0.3" d="M236.5 302.023H237.566C237.788 302.006 237.997 301.909 238.153 301.75C238.309 301.59 238.401 301.379 238.413 301.156L244.97 255.496H239.987L235.643 300.857C235.619 300.99 235.622 301.127 235.652 301.259C235.683 301.391 235.74 301.515 235.82 301.624C235.901 301.734 236.002 301.825 236.119 301.894C236.236 301.962 236.365 302.006 236.5 302.023Z" fill="black"/>
<path d="M218.782 201.357H252.344C258.323 180.679 279.728 164.367 301.671 164.367H312.573C335.492 164.367 350.36 182.234 345.676 204.286C344.801 208.343 343.362 212.258 341.401 215.916L336.11 247.993C335.432 252.138 332.124 255.497 328.736 255.497H227.711C224.322 255.497 221.014 252.138 220.336 247.993L213.879 208.82C213.192 204.715 215.394 201.357 218.782 201.357Z" fill="#21558A"/>
<path opacity="0.5" d="M218.782 201.357H252.344C258.323 180.679 279.728 164.367 301.671 164.367H312.573C335.492 164.367 350.36 182.234 345.676 204.286C344.801 208.343 343.362 212.258 341.401 215.916L336.11 247.993C335.432 252.138 332.124 255.497 328.736 255.497H227.711C224.322 255.497 221.014 252.138 220.336 247.993L213.879 208.82C213.192 204.715 215.394 201.357 218.782 201.357Z" fill="white"/>
<path d="M210.381 290.215L218.692 294.021C218.834 294.081 218.946 294.193 219.006 294.335C219.066 294.476 219.067 294.636 219.011 294.779L216.39 301.545C216.234 301.89 215.947 302.16 215.592 302.294C215.237 302.429 214.843 302.417 214.497 302.262C211.627 300.887 210.322 300.08 206.664 298.406C202.799 296.496 199.064 294.332 195.484 291.929C192.773 289.936 194.766 287.245 196.111 287.843C202.19 290.523 206.076 290.763 208.897 290.085C209.392 289.956 209.916 290.002 210.381 290.215Z" fill="#263238"/>
<path d="M269.324 188.323C269.324 188.323 216.181 188.98 215.354 209.927C214.178 240.041 209.734 290.035 209.734 290.035L218.702 294.021C218.702 294.021 234.407 243.858 234.965 220.34C249.913 216.633 288.348 220.34 292.862 208.123C295.074 201.769 295.66 194.961 294.566 188.323H269.324Z" fill="#21558A"/>
<path opacity="0.2" d="M269.324 188.323C269.324 188.323 216.181 188.98 215.354 209.927C214.178 240.041 209.734 290.035 209.734 290.035L218.702 294.021C218.702 294.021 234.407 243.858 234.965 220.34C249.913 216.633 288.348 220.34 292.862 208.123C295.074 201.769 295.66 194.961 294.566 188.323H269.324Z" fill="black"/>
<path d="M280.635 133.206C280.167 135.139 279.698 136.883 279.17 138.697C278.642 140.51 278.094 142.274 277.516 144.048C276.35 147.595 275.064 151.123 273.59 154.611C272.113 158.176 270.398 161.638 268.458 164.974C267.439 166.738 266.314 168.439 265.09 170.067C263.74 171.869 262.185 173.508 260.456 174.949L260.306 175.079L259.987 175.318C258.981 175.975 257.834 176.385 256.639 176.514C255.888 176.606 255.128 176.606 254.377 176.514C253.333 176.386 252.306 176.138 251.318 175.776C249.785 175.224 248.297 174.558 246.864 173.783C244.306 172.361 241.834 170.791 239.46 169.08C237.148 167.416 234.915 165.692 232.743 163.898C230.571 162.105 228.488 160.271 226.425 158.298C225.896 157.784 225.571 157.096 225.511 156.361C225.45 155.626 225.658 154.894 226.096 154.3C226.534 153.707 227.172 153.292 227.892 153.133C228.612 152.974 229.366 153.081 230.013 153.435H230.063C232.414 154.74 234.786 156.125 237.168 157.421C239.549 158.716 241.901 160.022 244.263 161.238C246.624 162.453 248.996 163.609 251.238 164.546C252.267 164.985 253.33 165.338 254.417 165.602C254.74 165.699 255.077 165.742 255.414 165.732C255.483 165.732 255.413 165.732 255.204 165.732C254.697 165.79 254.211 165.971 253.789 166.26L253.311 166.619C254.292 165.663 255.159 164.597 255.892 163.44C256.766 162.126 257.568 160.766 258.293 159.364C259.821 156.356 261.188 153.269 262.389 150.117C263.615 146.908 264.761 143.619 265.827 140.291C266.893 136.963 267.89 133.545 268.816 130.326V130.206C269.239 128.661 270.254 127.344 271.64 126.541C273.026 125.737 274.672 125.511 276.223 125.912C277.775 126.312 279.106 127.307 279.93 128.682C280.753 130.056 281.003 131.699 280.625 133.256L280.635 133.206Z" fill="#263238"/>
<path d="M259.09 294.52H269.055C269.139 294.516 269.222 294.528 269.3 294.557C269.379 294.585 269.451 294.629 269.512 294.686C269.573 294.742 269.622 294.81 269.657 294.886C269.691 294.962 269.711 295.044 269.713 295.127L270.201 303.01C270.202 303.425 270.039 303.823 269.748 304.12C269.457 304.416 269.062 304.586 268.647 304.594C265.179 304.534 263.515 304.325 259.13 304.325C256.44 304.325 250.999 304.604 247.272 304.604C243.545 304.604 243.655 300.927 245.229 300.618C252.314 299.123 255.055 297.061 257.556 295.088C257.992 294.736 258.531 294.537 259.09 294.52Z" fill="#263238"/>
<path d="M283.644 188.322C283.644 188.322 235.443 192.388 236.629 213.325C237.925 236.244 259.09 294.539 259.09 294.539H268.836C268.836 294.539 260.496 241.157 257.556 217.809C271.148 217.809 302.657 220.36 307.182 208.113C309.394 201.758 309.977 194.95 308.876 188.312L283.644 188.322Z" fill="#21558A"/>
<path d="M230.76 154.412C230.008 153.187 229.096 152.068 228.049 151.083C226.056 152.937 224.97 158.328 224.97 158.328L227.691 158.567C227.691 158.567 230.82 157.551 230.76 154.412Z" fill="#21558A"/>
<path d="M220.755 149.569L217.656 148.223C217.253 148.049 216.801 148.027 216.383 148.161C215.966 148.295 215.611 148.575 215.384 148.951L213.909 151.382C213.705 151.725 213.62 152.124 213.664 152.52C213.709 152.916 213.883 153.286 214.158 153.574L218.413 158.009L225.508 157.72C225.909 157.706 226.299 157.585 226.637 157.37C226.976 157.154 227.25 156.852 227.432 156.494L228.249 154.89C228.506 154.407 228.576 153.846 228.446 153.315C228.315 152.783 227.993 152.319 227.541 152.01C225.239 150.495 220.755 149.569 220.755 149.569Z" fill="#FFC3BD"/>
<path d="M268.866 131.163C267.451 140.132 265.608 159.494 269.364 188.691L308.876 188.322C308.636 168.083 311.805 149.09 314.904 130.525C315.027 129.796 315.003 129.05 314.832 128.331C314.661 127.612 314.347 126.934 313.909 126.338C313.472 125.742 312.919 125.241 312.283 124.863C311.648 124.485 310.943 124.238 310.211 124.138C298.879 122.812 287.432 122.812 276.101 124.138C274.303 124.383 272.631 125.198 271.329 126.462C270.027 127.726 269.164 129.373 268.866 131.163Z" fill="#263238"/>
<path d="M315.263 128.004C316.429 130.884 317.356 133.644 318.313 136.494C319.269 139.344 320.086 142.204 320.874 145.104C321.661 148.004 322.348 150.963 322.867 153.983C323.469 157.066 323.872 160.185 324.072 163.32C324.132 164.127 324.142 164.964 324.152 165.801V167.077C324.138 168.386 323.795 169.671 323.156 170.814C322.73 171.556 322.169 172.212 321.501 172.747C321.19 172.996 320.856 173.216 320.505 173.405C320.186 173.58 319.853 173.727 319.508 173.843C318.571 174.191 317.578 174.367 316.579 174.361C315.397 174.334 314.224 174.15 313.091 173.813C311.433 173.315 309.819 172.678 308.268 171.91C306.823 171.192 305.468 170.445 304.142 169.668C298.99 166.591 294.101 163.095 289.524 159.214C288.948 158.742 288.566 158.075 288.449 157.339C288.333 156.604 288.491 155.851 288.893 155.224C289.295 154.597 289.913 154.14 290.63 153.939C291.347 153.737 292.113 153.806 292.782 154.132H292.852C298.004 156.584 303.245 159.115 308.348 161.217C309.623 161.736 310.889 162.214 312.134 162.642C313.238 163.048 314.375 163.358 315.532 163.569C315.991 163.649 316.399 163.639 316.349 163.569C316.079 163.544 315.807 163.592 315.562 163.709C315.405 163.769 315.252 163.839 315.104 163.918C314.913 164.02 314.733 164.14 314.566 164.277C314.171 164.584 313.834 164.959 313.569 165.383C313.27 165.879 313.093 166.439 313.051 167.017L313.001 166.11C312.941 165.492 312.892 164.884 312.802 164.247C311.972 158.844 310.726 153.514 309.075 148.303C307.481 142.952 305.647 137.491 303.784 132.299V132.249C303.269 130.753 303.356 129.115 304.026 127.681C304.697 126.247 305.898 125.131 307.377 124.567C308.855 124.003 310.495 124.035 311.95 124.658C313.405 125.281 314.561 126.445 315.174 127.904L315.263 128.004Z" fill="#263238"/>
<path d="M299.469 104.098L294.695 108.084L288.178 113.495C288.379 114.358 288.519 115.233 288.597 116.116C288.906 119.265 288.218 122.155 284.402 123.619C283.676 123.857 283.014 124.258 282.468 124.792C281.922 125.326 281.507 125.978 281.253 126.699C280.735 128.363 281.342 130.226 286.584 130.226C294.287 130.226 298.303 126.798 299.818 125.114C300.021 124.88 300.139 124.584 300.151 124.274C300.164 123.965 300.071 123.66 299.887 123.41C296.848 119.065 298.223 109.499 299.469 104.098Z" fill="#FFC3BD"/>
<path d="M286.394 128.512C286.729 128.899 286.959 129.366 287.062 129.867C287.457 129.332 287.947 128.872 288.507 128.512C289.17 128.824 289.759 129.273 290.235 129.829C290.71 130.386 291.063 131.038 291.267 131.741C289.815 131.443 288.417 130.926 287.122 130.206C286.267 130.68 285.324 130.972 284.352 131.063C284.411 129.339 286.394 128.512 286.394 128.512Z" fill="#21558A"/>
<path d="M288.507 128.512C289.891 130.178 290.803 132.184 291.148 134.322C291.148 134.322 303.903 131.133 303.305 122.812C302.184 122.283 300.993 121.917 299.768 121.726C299.768 121.726 297.027 126.709 288.507 128.512Z" fill="#21558A"/>
<path d="M286.395 128.512C284.999 130.191 284.035 132.186 283.585 134.322C283.585 134.322 277.048 128.343 283.415 122.882C284.515 122.533 285.646 122.296 286.793 122.175C286.793 122.175 282.558 125.613 286.395 128.512Z" fill="#21558A"/>
<path opacity="0.2" d="M288.178 113.465C288.379 114.331 288.518 115.21 288.597 116.096C291.028 115.607 294.267 113.026 294.576 110.545C294.696 109.724 294.726 108.892 294.666 108.064L288.178 113.465Z" fill="black"/>
<path d="M281.203 86.9384C275.224 91.1934 278.552 101.168 283.674 97.3518C288.796 93.5352 286.086 83.4706 281.203 86.9384Z" fill="#263238"/>
<path d="M301.442 95.8272C299.777 103.46 299.199 108.004 294.685 111.492C293.231 112.641 291.491 113.37 289.652 113.6C287.814 113.831 285.947 113.555 284.255 112.802C282.562 112.049 281.107 110.848 280.047 109.328C278.988 107.808 278.364 106.027 278.243 104.178C277.645 97.0628 280.465 85.7625 288.497 83.6001C290.226 83.0847 292.06 83.0332 293.815 83.4508C295.571 83.8684 297.185 84.7405 298.497 85.9793C299.808 87.2182 300.771 88.7804 301.288 90.5089C301.805 92.2375 301.858 94.0716 301.442 95.8272Z" fill="#FFC3BD"/>
<path d="M297.904 90.1568C293.669 88.9909 282.747 91.7712 278.871 87.6357C274.715 83.2012 280.774 81.0388 282.568 82.5834C280.306 79.9925 281.143 77.2222 284.351 77.4714C286.693 77.6507 287.431 80.2416 287.431 80.2416C287.431 80.2416 287.042 75.7076 291.068 76.0264C294.715 76.3055 294.725 81.2282 294.725 81.2282C294.725 81.2282 303.434 78.7668 306.344 87.0776C311.825 86.9581 311.705 98.4975 300.674 102.603C296.2 100.391 295.991 92.5185 297.904 90.1568Z" fill="#263238"/>
<path d="M305.169 88.7422C304.882 88.7597 304.599 88.6646 304.381 88.477C304.163 88.2895 304.026 88.0244 304 87.7378C303.974 87.4513 304.061 87.1659 304.242 86.9423C304.423 86.7187 304.684 86.5743 304.969 86.5399C305.269 86.3504 305.497 86.0664 305.617 85.7328C305.778 85.4138 305.871 85.0653 305.892 84.7088C305.912 84.3523 305.86 83.9954 305.737 83.6601C305.653 83.5268 305.599 83.3773 305.578 83.2214C305.556 83.0656 305.569 82.907 305.614 82.7562C305.659 82.6054 305.735 82.466 305.838 82.3472C305.941 82.2284 306.068 82.1329 306.211 82.0672C306.354 82.0014 306.51 81.9669 306.667 81.966C306.824 81.965 306.98 81.9976 307.124 82.0616C307.267 82.1256 307.396 82.2195 307.5 82.337C307.605 82.4546 307.683 82.5931 307.73 82.7433C308.001 83.4103 308.12 84.1292 308.078 84.8479C308.037 85.5667 307.836 86.2672 307.491 86.8987C307.295 87.3454 307.001 87.7418 306.63 88.0578C306.259 88.3738 305.82 88.601 305.348 88.7223C305.29 88.7373 305.229 88.744 305.169 88.7422Z" fill="#263238"/>
<path d="M302.687 102.912C301.651 104.258 300.159 105.179 298.492 105.503C296.33 105.892 295.672 103.899 296.629 101.976C297.486 100.232 299.618 97.9397 301.611 98.438C303.604 98.9362 303.963 101.198 302.687 102.912Z" fill="#FFC3BD"/>
<path d="M288.358 96.5245C288.258 97.1523 287.85 97.6206 287.441 97.5708C287.033 97.521 286.774 96.9729 286.863 96.3451C286.953 95.7173 287.371 95.249 287.79 95.3486C288.208 95.4483 288.448 95.8967 288.358 96.5245Z" fill="#263238"/>
<path d="M281.243 95.6775C281.143 96.3053 280.734 96.7736 280.326 96.674C279.917 96.5743 279.658 96.0761 279.748 95.4483C279.838 94.8205 280.256 94.3521 280.675 94.4019C281.093 94.4518 281.342 95.0497 281.243 95.6775Z" fill="#263238"/>
<path d="M283.415 95.9266C282.622 97.5445 281.617 99.0493 280.426 100.401C280.778 100.683 281.189 100.884 281.628 100.989C282.068 101.094 282.525 101.101 282.967 101.009L283.415 95.9266Z" fill="#ED847E"/>
<path d="M285.886 104.238C286.626 104.247 287.361 104.108 288.046 103.827C288.731 103.546 289.352 103.13 289.872 102.603C289.897 102.565 289.907 102.52 289.901 102.475C289.895 102.431 289.873 102.39 289.839 102.36C289.806 102.329 289.762 102.312 289.717 102.311C289.672 102.31 289.628 102.326 289.593 102.354C289.025 102.916 288.334 103.341 287.576 103.595C286.818 103.849 286.011 103.925 285.219 103.819C285.17 103.816 285.122 103.83 285.084 103.859C285.045 103.889 285.019 103.931 285.009 103.978C285.007 104.003 285.009 104.029 285.016 104.053C285.023 104.077 285.035 104.099 285.05 104.118C285.066 104.138 285.086 104.154 285.108 104.166C285.13 104.178 285.154 104.185 285.179 104.188C285.413 104.218 285.65 104.234 285.886 104.238Z" fill="#263238"/>
<path d="M291.218 92.9072C291.277 92.8949 291.332 92.8674 291.377 92.8275C291.412 92.7931 291.44 92.7521 291.459 92.7067C291.479 92.6614 291.488 92.6126 291.488 92.5634C291.488 92.5142 291.479 92.4655 291.459 92.4201C291.44 92.3747 291.412 92.3337 291.377 92.2993C290.999 91.8527 290.516 91.5063 289.972 91.2907C289.428 91.0752 288.839 90.9972 288.258 91.0637C288.21 91.0715 288.163 91.0888 288.121 91.1146C288.08 91.1404 288.044 91.1742 288.015 91.2139C287.986 91.2537 287.966 91.2988 287.954 91.3465C287.943 91.3943 287.941 91.4437 287.949 91.4922C287.957 91.5406 287.974 91.587 288 91.6287C288.026 91.6704 288.06 91.7067 288.099 91.7354C288.139 91.7641 288.184 91.7846 288.232 91.7959C288.28 91.8072 288.329 91.8089 288.378 91.8011C288.836 91.7566 289.299 91.824 289.726 91.9976C290.153 92.1711 290.531 92.4457 290.829 92.7976C290.876 92.8517 290.938 92.8909 291.007 92.9103C291.076 92.9298 291.149 92.9287 291.218 92.9072Z" fill="#263238"/>
<path d="M278.701 92.499C278.759 92.5151 278.82 92.5172 278.879 92.505C278.938 92.4929 278.993 92.4669 279.04 92.4292C279.398 92.1112 279.824 91.8808 280.286 91.7562C280.748 91.6317 281.232 91.6165 281.701 91.7117C281.796 91.7365 281.897 91.7233 281.983 91.6749C282.068 91.6266 282.131 91.5469 282.159 91.4526C282.173 91.4055 282.177 91.3562 282.171 91.3075C282.166 91.2588 282.15 91.2117 282.126 91.169C282.102 91.1264 282.07 91.0889 282.031 91.0589C281.992 91.0289 281.948 91.0069 281.9 90.9943C281.316 90.8682 280.711 90.881 280.133 91.0316C279.555 91.1821 279.02 91.4663 278.572 91.8612C278.497 91.9234 278.449 92.0129 278.44 92.11C278.431 92.2071 278.46 92.304 278.522 92.3794C278.568 92.4367 278.631 92.4785 278.701 92.499Z" fill="#263238"/>
<path d="M291.676 148.97L287.311 146.26C287.001 146.066 286.655 145.936 286.293 145.877C285.932 145.818 285.562 145.831 285.206 145.917C284.85 146.002 284.514 146.157 284.219 146.374C283.923 146.59 283.674 146.863 283.485 147.177L282.977 148.034C282.673 148.533 282.536 149.116 282.587 149.699C282.637 150.281 282.871 150.832 283.256 151.272L286.245 154.73C286.245 154.73 288.866 160.839 291.905 159.224L294.217 155.238L291.676 148.97Z" fill="#FFC3BD"/>
<path d="M296.17 156.783C295.573 155.337 294.796 153.971 293.858 152.717C291.666 154.591 289.872 160.57 289.872 160.57L292.553 161.148C293.528 160.874 294.397 160.31 295.043 159.53C295.689 158.75 296.082 157.792 296.17 156.783Z" fill="#21558A"/>
<path d="M329.563 201.357H277.825C274.437 201.357 272.244 204.715 272.922 208.86L279.379 247.993C280.067 252.138 283.365 255.497 286.763 255.497H323.156L329.563 201.357Z" fill="#21558A"/>
<path opacity="0.5" d="M329.563 201.357H277.825C274.437 201.357 272.244 204.715 272.922 208.86L279.379 247.993C280.067 252.138 283.365 255.497 286.763 255.497H323.156L329.563 201.357Z" fill="white"/>
<path d="M62.4309 139.065L60.1589 155.777C59.4414 161.337 58.694 166.918 58.1659 172.398C58.0961 173.086 58.0463 173.754 57.9865 174.391L57.9068 175.388C57.9233 175.222 57.9233 175.055 57.9068 174.89C57.8879 174.73 57.8511 174.573 57.7972 174.421C57.7565 174.301 57.7065 174.185 57.6477 174.073C57.608 173.992 57.5613 173.915 57.5082 173.843C57.3288 173.614 57.3089 173.644 57.3587 173.694C57.4605 173.803 57.5742 173.899 57.6975 173.983C58.1169 174.27 58.5565 174.526 59.0129 174.75C61.3846 175.835 63.8326 176.744 66.3372 177.471C71.5589 179.055 77.0496 180.46 82.4706 181.766L81.8527 186.519C76.0573 186.345 70.2822 185.748 64.5734 184.735C61.5487 184.226 58.5767 183.443 55.6946 182.393C54.8478 182.067 54.0253 181.68 53.2332 181.237C52.7443 180.959 52.2778 180.642 51.8381 180.291C51.2285 179.808 50.6945 179.237 50.2537 178.597C49.9363 178.123 49.6818 177.611 49.4963 177.072C49.3945 176.746 49.3146 176.413 49.2572 176.075C49.2206 175.745 49.2007 175.412 49.1974 175.079V173.973C49.1974 173.235 49.1974 172.498 49.2572 171.771C49.4963 165.951 50.0245 160.271 50.6423 154.591C51.2601 148.911 51.9776 143.281 52.8645 137.65L62.4309 139.065Z" fill="#7F3E3B"/>
<path d="M94.9668 186.898L91.3096 190.236C90.8914 190.616 90.3693 190.863 89.8101 190.944C89.2509 191.026 88.6801 190.939 88.1706 190.694L84.1348 188.751C84.1348 188.751 78.1558 188.502 77.2888 184.845L78.8434 182.005L88.1208 181.008C89.073 180.906 90.0324 181.12 90.8512 181.616L94.6778 183.958C94.9183 184.11 95.121 184.316 95.2703 184.558C95.4197 184.801 95.5118 185.074 95.5397 185.357C95.5675 185.641 95.5304 185.927 95.4311 186.194C95.3319 186.461 95.173 186.701 94.9668 186.898Z" fill="#7F3E3B"/>
<path d="M73.0833 104.746C74.0798 110.486 74.8372 120.959 70.7316 124.676C70.7316 124.676 80.6966 129.918 87.3034 139.066C94.2789 133.505 88.4494 125.204 88.4494 125.204C82.1315 123.5 82.4704 118.787 83.6761 114.392L73.0833 104.746Z" fill="#7F3E3B"/>
<path d="M91.8077 128.692C91.8077 128.692 91.2796 123.829 88.6289 121.427C86.4067 119.434 74.6779 120.531 71.0207 120.939C70.6811 120.98 70.3571 121.105 70.0786 121.304C69.8 121.502 69.5757 121.767 69.4263 122.075L66.7557 127.655L91.8077 128.692Z" fill="#21558A"/>
<path opacity="0.8" d="M91.8077 128.692C91.8077 128.692 91.2796 123.829 88.6289 121.427C86.4067 119.434 74.6779 120.531 71.0207 120.939C70.6811 120.98 70.3571 121.105 70.0786 121.304C69.8 121.502 69.5757 121.767 69.4263 122.075L66.7557 127.655L91.8077 128.692Z" fill="white"/>
<path d="M59.4117 126.111C52.197 128.463 50.6424 138.139 51.3001 145.662L65.859 154.631C65.859 154.631 69.3966 143.669 69.3667 137.77C69.3368 131.532 64.3145 124.537 59.4117 126.111Z" fill="#21558A"/>
<path d="M62.2316 152.449C62.0481 152.453 61.8656 152.42 61.6946 152.354C61.5236 152.287 61.3674 152.187 61.2351 152.06C61.1757 151.995 61.1223 151.925 61.0756 151.851C61.0208 151.778 60.9771 151.697 60.9461 151.612C60.9136 151.531 60.8869 151.447 60.8664 151.362C60.8566 151.276 60.8566 151.189 60.8664 151.103C60.862 150.919 60.8951 150.736 60.9636 150.564C61.0321 150.393 61.1346 150.237 61.2649 150.107C61.5238 149.863 61.866 149.727 62.2216 149.727C62.5772 149.727 62.9194 149.863 63.1782 150.107C63.3086 150.237 63.4111 150.393 63.4796 150.564C63.5481 150.736 63.5812 150.919 63.5768 151.103C63.5866 151.189 63.5866 151.276 63.5768 151.362C63.5613 151.449 63.5345 151.532 63.4971 151.612C63.4694 151.697 63.4291 151.777 63.3775 151.851L63.2081 152.06C63.0794 152.187 62.9268 152.286 62.7591 152.353C62.5914 152.42 62.412 152.452 62.2316 152.449Z" fill="white"/>
<path d="M59.4316 151.532C59.1839 151.436 58.9698 151.27 58.8156 151.054C58.6615 150.838 58.5742 150.581 58.5647 150.316C58.3694 150.493 58.1261 150.608 57.8654 150.647C57.6048 150.686 57.3384 150.647 57.0998 150.535C56.8616 150.424 56.6607 150.246 56.521 150.023C56.3814 149.801 56.309 149.542 56.3126 149.28C56.1076 149.445 55.8577 149.546 55.5949 149.569C55.3322 149.592 55.0686 149.537 54.8378 149.409C54.6064 149.286 54.4162 149.097 54.2905 148.867C54.1648 148.637 54.1091 148.375 54.1303 148.114C53.9145 148.266 53.6591 148.351 53.3953 148.36C53.1315 148.369 52.8709 148.301 52.6455 148.163C52.3399 147.977 52.1203 147.678 52.0345 147.331C51.9486 146.984 52.0034 146.617 52.1871 146.31C52.3749 146.004 52.6759 145.784 53.0247 145.698C53.3735 145.612 53.7421 145.667 54.0505 145.852C54.262 145.985 54.4337 146.173 54.5477 146.396C54.6616 146.618 54.7136 146.867 54.6983 147.117C54.9019 146.971 55.1426 146.885 55.3929 146.869C55.6431 146.853 55.8928 146.908 56.1133 147.027C56.3338 147.146 56.5174 147.323 56.644 147.54C56.7705 147.756 56.8351 148.003 56.8308 148.253C57.0261 148.097 57.261 147.999 57.5092 147.969C57.7574 147.939 58.009 147.979 58.2358 148.084C58.4627 148.188 58.6562 148.353 58.7951 148.561C58.934 148.768 59.0129 149.01 59.0231 149.26C59.2111 149.095 59.4403 148.985 59.6861 148.941C59.9318 148.898 60.1849 148.921 60.4182 149.01C60.7504 149.144 61.0165 149.403 61.1584 149.731C61.3003 150.06 61.3064 150.431 61.1755 150.764C61.077 151.017 60.9044 151.234 60.6804 151.387C60.4563 151.54 60.1912 151.622 59.9199 151.621C59.7532 151.619 59.5881 151.589 59.4316 151.532Z" fill="white"/>
<path d="M51.2998 147.038C51.2104 147.048 51.1202 147.048 51.0308 147.038C50.9446 147.022 50.8608 146.995 50.7816 146.958C50.6964 146.93 50.6158 146.89 50.5425 146.838L50.3432 146.669C50.2787 146.61 50.2218 146.543 50.1738 146.47C50.1738 146.39 50.0841 146.31 50.0442 146.231C50.0131 146.149 49.9865 146.066 49.9645 145.982C49.9596 145.892 49.9596 145.802 49.9645 145.712C49.9592 145.626 49.9592 145.54 49.9645 145.453C49.9865 145.366 50.0131 145.279 50.0442 145.194C50.0771 145.112 50.1206 145.035 50.1738 144.965C50.2241 144.891 50.2808 144.821 50.3432 144.756L50.5425 144.586C50.618 144.539 50.6981 144.499 50.7816 144.467L51.0308 144.387C51.2481 144.348 51.4717 144.361 51.683 144.425C51.8944 144.489 52.0875 144.603 52.2465 144.756C52.3089 144.821 52.3655 144.891 52.4159 144.965C52.4649 145.038 52.5082 145.115 52.5454 145.194C52.578 145.278 52.6013 145.365 52.6152 145.453C52.6255 145.539 52.6255 145.626 52.6152 145.712C52.625 145.802 52.625 145.892 52.6152 145.982C52.6013 146.067 52.5779 146.15 52.5454 146.231C52.5454 146.31 52.4657 146.39 52.4159 146.47C52.3679 146.543 52.311 146.61 52.2465 146.669C51.9901 146.909 51.6511 147.041 51.2998 147.038Z" fill="white"/>
<path d="M105.29 140.192C104.683 148.482 102.839 162.434 98.315 185.931L59.3119 184.775C60.3084 170.376 58.7837 159.643 55.2561 134.442C55.1059 133.351 55.1767 132.242 55.4643 131.18C55.7519 130.117 56.2504 129.123 56.9301 128.258C57.6099 127.392 58.4569 126.672 59.4208 126.141C60.3847 125.609 61.4457 125.277 62.5406 125.164C65.0418 124.905 67.8918 124.696 70.7517 124.636C76.6627 124.391 82.5836 124.568 88.4695 125.164C90.3629 125.394 92.326 125.702 94.1994 126.021C97.4797 126.58 100.434 128.342 102.485 130.962C104.536 133.582 105.536 136.873 105.29 140.192Z" fill="#21558A"/>
<path d="M93.2626 94.2228C93.3523 94.9901 93.8406 95.5681 94.3389 95.4984C94.8371 95.4286 95.1759 94.7709 95.0862 94.0036C94.9965 93.2363 94.5083 92.6583 94.01 92.7181C93.5118 92.7779 93.1729 93.4256 93.2626 94.2228Z" fill="#263238"/>
<path d="M93.791 92.7681L95.5748 92.0107C95.5748 92.0107 94.7975 93.5653 93.791 92.7681Z" fill="#263238"/>
<path d="M93.5615 95.3887C94.4565 97.0614 95.5763 98.6037 96.8898 99.9726C96.5323 100.301 96.1069 100.548 95.6437 100.694C95.1805 100.84 94.6908 100.883 94.2092 100.82L93.5615 95.3887Z" fill="#630F0F"/>
<path d="M93.3522 87.4568C93.3914 87.3868 93.4121 87.3079 93.4121 87.2276C93.4121 87.1473 93.3914 87.0684 93.3522 86.9984C93.2985 86.8908 93.2048 86.8085 93.0911 86.7694C92.9774 86.7302 92.8528 86.7373 92.7443 86.7891C92.0833 87.0828 91.5028 87.5314 91.0519 88.0968C90.6009 88.6623 90.2927 89.328 90.1534 90.0377C90.145 90.0967 90.1484 90.1567 90.1635 90.2144C90.1786 90.272 90.205 90.326 90.2411 90.3734C90.2773 90.4207 90.3226 90.4603 90.3742 90.4899C90.4259 90.5196 90.4829 90.5386 90.542 90.5459C90.601 90.5543 90.661 90.5509 90.7187 90.5359C90.7763 90.5208 90.8303 90.4944 90.8777 90.4582C90.925 90.422 90.9646 90.3768 90.9942 90.3251C91.0239 90.2735 91.0429 90.2164 91.0503 90.1573C91.1715 89.5979 91.4234 89.0752 91.7854 88.6318C92.1474 88.1884 92.6091 87.837 93.1329 87.6063C93.2217 87.5845 93.2995 87.5314 93.3522 87.4568Z" fill="#263238"/>
<path d="M66.7158 94.0235C68.4298 103.401 68.9579 107.406 74.3091 111.691C82.3608 118.129 93.5117 113.973 94.6378 104.268C95.6343 95.5282 92.6448 81.6569 82.9787 79.0062C80.8422 78.4121 78.5894 78.3737 76.434 78.8947C74.2785 79.4158 72.292 80.4789 70.6628 81.9833C69.0336 83.4877 67.8159 85.3834 67.1251 87.4906C66.4343 89.5978 66.2934 91.8466 66.7158 94.0235Z" fill="#7F3E3B"/>
<path d="M87.3833 96.6544C88.9578 101.806 92.7245 114.263 84.3938 117.043C77.8866 119.215 57.4882 120.949 55.1465 109.001C52.725 96.6544 63.7363 87.8553 63.7363 87.8553C63.7363 87.8553 55.007 80.7004 60.5973 72.9078C67.802 62.8631 85.0614 68.5431 90.1735 75.6382C95.166 82.544 87.3833 96.6544 87.3833 96.6544Z" fill="#263238"/>
<path d="M71.6386 118.757C67.8802 118.753 64.158 118.022 60.6771 116.604C56.0533 114.611 53.3528 111.532 52.8645 107.695C51.2303 94.6712 63.3477 87.5163 63.4773 87.4465L63.9556 88.2736C63.836 88.3434 52.2666 95.1893 53.8212 107.576C54.3792 111.97 58.0663 114.432 61.0657 115.717C66.9849 118.268 74.6281 118.248 76.4816 116.893L77.0496 117.67C76.1129 118.378 74.08 118.757 71.6386 118.757Z" fill="#263238"/>
<path d="M59.9895 85.9918C59.8799 87.656 58.5047 89.9778 64.2744 90.8049C70.0442 91.632 78.076 91.5822 79.7302 90.197C81.3844 88.8119 82.9987 85.4836 79.5508 85.7825C76.1029 86.0815 60.1788 83.1418 59.9895 85.9918Z" fill="#21558A"/>
<path d="M84.2241 98.1192C85.1658 99.86 86.7554 101.16 88.6486 101.736C91.1598 102.474 92.4552 100.232 91.7876 97.8402C91.1797 95.6877 89.1369 92.7082 86.6058 93.0171C84.0747 93.326 83.0981 95.9767 84.2241 98.1192Z" fill="#7F3E3B"/>
<path d="M145.021 295.078L154.268 294.898L149.794 271.819L140.547 271.989L145.021 295.078Z" fill="#7F3E3B"/>
<path d="M151.956 285.023C154.398 294.241 163.396 303.956 163.396 303.956L150.561 300.688L144.951 292.716L145.947 290.603L151.956 285.023Z" fill="#7F3E3B"/>
<path d="M142.838 289.308C142.812 290.387 142.876 291.467 143.028 292.537C143.576 296.343 145.25 306.488 145.25 306.488H146.127C145.73 303.399 145.494 300.293 145.419 297.18C145.539 294.679 147.153 299.103 149.106 301.615C151.06 304.126 154.577 306.408 160.267 306.597C166.924 306.806 169.584 306.527 167.452 304.863C165.319 303.199 160.775 302.123 160.775 302.123C157.11 300.553 153.99 297.936 151.807 294.599C149.653 291.601 146.823 289.153 143.546 287.454C142.988 287.484 142.878 288.541 142.838 289.308Z" fill="#263238"/>
<path d="M177.776 263.718L189.574 264.087L176.371 244.455L168.199 251.441L177.776 263.718Z" fill="#7F3E3B"/>
<path d="M180.576 255.387C189.156 259.373 202.888 258.596 202.888 258.596L191.727 267.564L182.15 266.847L181.154 264.724L180.576 255.387Z" fill="#7F3E3B"/>
<path d="M178.762 265.561C179.535 266.312 180.369 266.999 181.254 267.614C184.383 269.796 192.843 275.387 192.843 275.387L193.381 274.699C190.861 272.889 188.436 270.95 186.117 268.89C184.343 267.076 188.598 268.84 191.647 269.019C194.696 269.198 198.543 268.023 202.18 263.638C206.455 258.546 207.88 256.264 205.349 256.802C202.818 257.34 199.211 260.17 199.211 260.17C195.823 261.984 191.942 262.662 188.139 262.103C184.608 261.744 181.043 262.296 177.786 263.708C177.517 264.206 178.184 264.983 178.762 265.561Z" fill="#263238"/>
<path d="M84.6927 185.253C84.6927 185.253 147.831 175.936 154.348 192.099C165.728 220.26 181.782 252.527 181.782 252.527L174.029 258.944C174.029 258.944 146.496 233.454 136.71 205.133C125.011 208.92 87.7918 221.077 74.1596 221.077C59.6008 221.077 53.6517 208.671 58.9132 188.053C59.1436 187.17 59.6592 186.387 60.3799 185.827C61.1007 185.267 61.9862 184.96 62.8992 184.954C72.1368 185.044 84.6927 185.253 84.6927 185.253Z" fill="#263238"/>
<path d="M90.7415 193.474C90.7415 193.474 142.56 191.92 143.008 210.275C143.726 240.639 152.285 284.146 152.285 284.146L142.829 285.023C142.829 285.023 127.373 250.415 123.287 220.779C104.832 221.974 87.8118 221.147 74.1797 221.147C58.9033 221.147 57.6378 204.376 72.5056 184.795C81.6036 184.775 90.7415 193.474 90.7415 193.474Z" fill="#263238"/>
<path d="M58.7735 182.463L57.6873 185.901C57.5378 186.17 57.8468 186.449 58.3051 186.469L98.4442 187.655C98.793 187.655 99.0919 187.505 99.1218 187.286L99.5802 183.808C99.5802 183.559 99.3112 183.35 98.9225 183.34L59.4312 182.164C59.3048 182.15 59.177 182.171 59.0613 182.223C58.9456 182.276 58.8462 182.359 58.7735 182.463Z" fill="white"/>
<path d="M63.9456 187.037H62.8893C62.68 187.037 62.5206 186.917 62.5405 186.788L63.1683 182.264C63.1683 182.134 63.3776 182.035 63.5868 182.035H64.6431C64.8524 182.035 65.0118 182.154 64.9919 182.284L64.3641 186.798C64.3442 186.947 64.1548 187.047 63.9456 187.037Z" fill="#263238"/>
<path d="M95.4449 187.984H94.3886C94.1793 187.984 94.0199 187.864 94.0398 187.735L94.6776 183.21C94.6776 183.081 94.8769 182.981 95.0862 182.981H96.1424C96.3617 182.981 96.5112 183.101 96.5012 183.23L95.8634 187.754C95.8435 187.894 95.6641 187.984 95.4449 187.984Z" fill="#263238"/>
<path d="M79.7002 187.505H78.644C78.4247 187.505 78.2752 187.386 78.2952 187.256L78.923 182.732C78.923 182.602 79.1322 182.503 79.3415 182.503H80.3978C80.6071 182.503 80.7665 182.622 80.7466 182.752L80.1188 187.276C80.0988 187.415 79.9095 187.515 79.7002 187.505Z" fill="#263238"/>
<path d="M127.772 143.659H152.973C153.16 143.66 153.345 143.704 153.513 143.788C153.68 143.872 153.826 143.993 153.939 144.142C154.052 144.292 154.129 144.466 154.163 144.65C154.198 144.834 154.19 145.023 154.139 145.204L144.712 177.54C144.64 177.791 144.489 178.012 144.28 178.168C144.071 178.325 143.817 178.409 143.556 178.407H118.345C118.157 178.409 117.971 178.367 117.803 178.283C117.634 178.2 117.488 178.078 117.375 177.928C117.262 177.778 117.187 177.603 117.155 177.418C117.122 177.232 117.134 177.042 117.189 176.863L126.606 144.526C126.679 144.275 126.833 144.054 127.043 143.897C127.254 143.741 127.509 143.657 127.772 143.659Z" fill="#21558A"/>
<path d="M128.23 144.845L152.734 145.423L143.058 175.926L118.554 175.338L128.23 144.845Z" fill="#E0E0E0"/>
<path d="M127.463 144.546L151.967 144.646L142.888 175.328L118.385 175.229L127.463 144.546Z" fill="white"/>
<path d="M105.36 145.184C105.36 146.18 105.51 147.356 105.589 148.462C105.669 149.569 105.819 150.724 105.968 151.851C106.247 154.103 106.619 156.322 107.084 158.507C107.531 160.638 108.124 162.735 108.858 164.785C109.227 165.782 109.635 166.778 110.074 167.655C110.293 168.113 110.532 168.542 110.771 168.98L111.14 169.588C111.597 170.005 112.137 170.32 112.724 170.515C113.657 170.877 114.617 171.167 115.594 171.382C117.795 171.846 120.021 172.179 122.261 172.378C126.865 172.827 131.678 173.046 136.381 173.146L136.86 177.919C131.962 178.891 126.992 179.454 122.002 179.603C119.41 179.683 116.816 179.577 114.239 179.284C112.827 179.111 111.431 178.828 110.064 178.437C108.315 177.974 106.689 177.134 105.3 175.976C104.835 175.573 104.414 175.122 104.045 174.631L103.407 173.734C102.998 173.136 102.6 172.538 102.261 171.93C101.551 170.745 100.922 169.513 100.378 168.243C99.3136 165.807 98.4537 163.287 97.8066 160.709C97.1615 158.203 96.6657 155.661 96.3219 153.096C96.1525 151.831 96.0229 150.555 95.9133 149.27C95.8037 147.984 95.7339 146.758 95.714 145.284L105.36 145.184Z" fill="#7F3E3B"/>
<path d="M102.082 130.486C108.36 136.395 106.845 151.791 106.845 151.791L94.8271 153.893C94.8271 153.893 87.4032 142.852 90.014 138.228C92.7245 133.405 98.6936 127.287 102.082 130.486Z" fill="#21558A"/>
<path d="M106.845 153.146C106.661 153.149 106.477 153.115 106.306 153.047C106.135 152.979 105.98 152.877 105.848 152.747C105.784 152.684 105.727 152.614 105.679 152.538C105.633 152.465 105.593 152.388 105.559 152.309C105.539 152.214 105.526 152.117 105.519 152.02C105.514 151.934 105.514 151.847 105.519 151.761C105.513 151.577 105.544 151.394 105.611 151.222C105.678 151.051 105.779 150.895 105.908 150.764C105.973 150.702 106.043 150.646 106.117 150.595C106.188 150.545 106.265 150.505 106.347 150.475C106.43 150.44 106.517 150.413 106.606 150.395C106.801 150.357 107.003 150.363 107.197 150.412C107.39 150.461 107.57 150.552 107.725 150.678C107.879 150.805 108.003 150.964 108.089 151.144C108.174 151.324 108.219 151.521 108.22 151.721C108.23 151.807 108.23 151.894 108.22 151.98C108.204 152.069 108.177 152.156 108.14 152.239C108.111 152.32 108.07 152.397 108.021 152.468C107.972 152.544 107.915 152.614 107.851 152.677C107.726 152.822 107.571 152.938 107.398 153.019C107.224 153.099 107.036 153.143 106.845 153.146Z" fill="white"/>
<path d="M95.9231 153.864C95.8927 153.506 96.0058 153.15 96.2376 152.875C96.4693 152.601 96.8006 152.429 97.1587 152.399C97.4083 152.376 97.6593 152.423 97.8831 152.536C98.1069 152.649 98.2944 152.822 98.4243 153.037C98.5047 152.799 98.6483 152.589 98.8397 152.427C99.0312 152.265 99.2631 152.159 99.5105 152.12C99.7592 152.086 100.012 152.122 100.242 152.222C100.473 152.322 100.671 152.483 100.816 152.688C100.873 152.445 100.996 152.223 101.172 152.047C101.348 151.871 101.57 151.748 101.812 151.691C102.058 151.64 102.314 151.658 102.55 151.745C102.786 151.831 102.993 151.982 103.148 152.18C103.206 151.938 103.33 151.717 103.506 151.542C103.682 151.366 103.903 151.242 104.144 151.183C104.318 151.137 104.5 151.126 104.678 151.152C104.856 151.177 105.028 151.238 105.182 151.331C105.336 151.424 105.47 151.547 105.576 151.693C105.682 151.839 105.758 152.004 105.798 152.18C105.843 152.354 105.853 152.535 105.826 152.713C105.8 152.89 105.739 153.061 105.646 153.215C105.554 153.369 105.431 153.503 105.286 153.609C105.141 153.716 104.977 153.792 104.802 153.834C104.547 153.899 104.28 153.89 104.03 153.807C103.781 153.724 103.561 153.57 103.397 153.365C103.341 153.623 103.211 153.859 103.024 154.045C102.836 154.231 102.599 154.358 102.341 154.412C102.082 154.46 101.815 154.433 101.571 154.334C101.327 154.235 101.117 154.069 100.965 153.854C100.9 154.11 100.759 154.342 100.563 154.519C100.366 154.696 100.121 154.811 99.8593 154.85C99.5983 154.888 99.332 154.848 99.093 154.737C98.8541 154.625 98.6528 154.447 98.514 154.222C98.4287 154.471 98.2732 154.69 98.0664 154.853C97.8595 155.016 97.6101 155.115 97.3481 155.139H97.2384C96.9001 155.128 96.5781 154.991 96.335 154.755C96.0919 154.519 95.9451 154.202 95.9231 153.864Z" fill="white"/>
<path d="M94.8272 155.249C94.7378 155.258 94.6475 155.258 94.5581 155.249L94.309 155.169C94.2264 155.135 94.1464 155.095 94.0698 155.049L93.8705 154.88C93.8035 154.819 93.7464 154.749 93.7011 154.671C93.6521 154.598 93.6088 154.521 93.5716 154.442C93.5391 154.358 93.5157 154.271 93.5018 154.182C93.4915 154.096 93.4915 154.009 93.5018 153.923C93.492 153.834 93.492 153.744 93.5018 153.654C93.5158 153.569 93.5392 153.485 93.5716 153.405C93.5716 153.325 93.6513 153.246 93.7011 153.166C93.7491 153.093 93.806 153.026 93.8705 152.967L94.0698 152.797C94.1443 152.748 94.2246 152.708 94.309 152.678C94.3882 152.64 94.4719 152.614 94.5581 152.598C94.7754 152.554 95.0004 152.564 95.2126 152.629C95.4249 152.693 95.6178 152.809 95.7739 152.967C95.8384 153.026 95.8953 153.093 95.9433 153.166C95.9931 153.246 96.0329 153.325 96.0728 153.405C96.1039 153.487 96.1305 153.57 96.1525 153.654C96.1575 153.744 96.1575 153.834 96.1525 153.923C96.1579 154.01 96.1579 154.096 96.1525 154.182C96.1305 154.27 96.1039 154.357 96.0728 154.442C96.0356 154.521 95.9923 154.598 95.9433 154.671C95.8954 154.747 95.8386 154.817 95.7739 154.88C95.5175 155.12 95.1784 155.252 94.8272 155.249Z" fill="white"/>
<path d="M147.572 168.183L143.407 167.904C142.369 167.831 141.338 168.109 140.477 168.692L132.834 173.823L132.774 177.062C135.225 179.912 140.646 177.361 140.646 177.361L145.679 177.192C146.08 177.181 146.468 177.05 146.794 176.816C147.119 176.581 147.366 176.254 147.502 175.876L149.326 170.894C149.44 170.6 149.482 170.283 149.45 169.97C149.418 169.657 149.312 169.355 149.141 169.091C148.97 168.826 148.738 168.606 148.465 168.448C148.193 168.291 147.887 168.2 147.572 168.183Z" fill="#7F3E3B"/>
<path d="M61.265 309.876H62.391C62.6245 309.853 62.8425 309.748 63.0065 309.581C63.1706 309.413 63.2702 309.193 63.2879 308.959L70.2634 260.688H64.9919L60.398 308.64C60.3709 308.778 60.3719 308.921 60.4012 309.059C60.4304 309.196 60.4872 309.327 60.5682 309.442C60.6492 309.558 60.7526 309.656 60.8724 309.73C60.9921 309.805 61.1256 309.854 61.265 309.876Z" fill="#21558A"/>
<path opacity="0.3" d="M61.265 309.876H62.391C62.6245 309.853 62.8425 309.748 63.0065 309.581C63.1706 309.413 63.2702 309.193 63.2879 308.959L70.2634 260.688H64.9919L60.398 308.64C60.3709 308.778 60.3719 308.921 60.4012 309.059C60.4304 309.196 60.4872 309.327 60.5682 309.442C60.6492 309.558 60.7526 309.656 60.8724 309.73C60.9921 309.805 61.1256 309.854 61.265 309.876Z" fill="black"/>
<path d="M46.8156 309.876H47.9416C48.1751 309.853 48.3931 309.748 48.5571 309.581C48.7212 309.413 48.8208 309.193 48.8385 308.959L55.814 260.688H50.5425L45.9486 308.64C45.9215 308.778 45.9225 308.921 45.9518 309.059C45.981 309.196 46.0378 309.327 46.1188 309.442C46.1998 309.558 46.3032 309.656 46.423 309.73C46.5427 309.805 46.6762 309.854 46.8156 309.876Z" fill="#21558A"/>
<path opacity="0.3" d="M46.8156 309.876H47.9416C48.1751 309.853 48.3931 309.748 48.5571 309.581C48.7212 309.413 48.8208 309.193 48.8385 308.959L55.814 260.688H50.5425L45.9486 308.64C45.9215 308.778 45.9225 308.921 45.9518 309.059C45.981 309.196 46.0378 309.327 46.1188 309.442C46.1998 309.558 46.3032 309.656 46.423 309.73C46.5427 309.805 46.6762 309.854 46.8156 309.876Z" fill="black"/>
<path d="M127.333 309.876H126.197C125.965 309.851 125.75 309.745 125.588 309.578C125.426 309.41 125.327 309.191 125.31 308.959L118.335 260.688H123.596L128.19 308.64C128.217 308.778 128.216 308.919 128.188 309.057C128.159 309.194 128.103 309.324 128.023 309.439C127.943 309.555 127.841 309.653 127.722 309.728C127.604 309.803 127.471 309.853 127.333 309.876Z" fill="#21558A"/>
<path opacity="0.3" d="M127.333 309.876H126.197C125.965 309.851 125.75 309.745 125.588 309.578C125.426 309.41 125.327 309.191 125.31 308.959L118.335 260.688H123.596L128.19 308.64C128.217 308.778 128.216 308.919 128.188 309.057C128.159 309.194 128.103 309.324 128.023 309.439C127.943 309.555 127.841 309.653 127.722 309.728C127.604 309.803 127.471 309.853 127.333 309.876Z" fill="black"/>
<path d="M141.782 309.876H140.646C140.414 309.851 140.199 309.745 140.037 309.578C139.875 309.41 139.776 309.191 139.759 308.959L132.784 260.688H138.045L142.639 308.64C142.666 308.778 142.666 308.919 142.637 309.057C142.608 309.194 142.552 309.324 142.472 309.439C142.393 309.555 142.29 309.653 142.172 309.728C142.053 309.803 141.921 309.853 141.782 309.876Z" fill="#21558A"/>
<path opacity="0.3" d="M141.782 309.876H140.646C140.414 309.851 140.199 309.745 140.037 309.578C139.875 309.41 139.776 309.191 139.759 308.959L132.784 260.688H138.045L142.639 308.64C142.666 308.778 142.666 308.919 142.637 309.057C142.608 309.194 142.552 309.324 142.472 309.439C142.393 309.555 142.29 309.653 142.172 309.728C142.053 309.803 141.921 309.853 141.782 309.876Z" fill="black"/>
<path d="M160.507 203.469H125.031C118.733 181.606 96.1325 164.367 72.8941 164.367H61.3746C37.0998 164.367 21.4348 183.3 26.3775 206.558C27.3133 210.844 28.8322 214.982 30.8916 218.855L36.4919 252.736C37.2094 257.111 40.7071 260.658 44.2846 260.658H151.07C154.647 260.658 158.145 257.111 158.862 252.736L165.688 211.362C166.416 207.017 164.094 203.469 160.507 203.469Z" fill="#21558A"/>
<path opacity="0.5" d="M160.507 203.469H125.031C118.733 181.606 96.1325 164.367 72.8941 164.367H61.3746C37.0998 164.367 21.4348 183.3 26.3775 206.558C27.3133 210.844 28.8322 214.982 30.8916 218.855L36.4919 252.736C37.2094 257.111 40.7071 260.658 44.2846 260.658H151.07C154.647 260.658 158.145 257.111 158.862 252.736L165.688 211.362C166.416 207.017 164.094 203.469 160.507 203.469Z" fill="white"/>
</svg>
