<svg width="472" height="352" viewBox="0 0 472 352" fill="none" xmlns="http://www.w3.org/2000/svg">
<path d="M471.828 309.401H0.172363V309.637H471.828V309.401Z" fill="#EBEBEB"/>
<path d="M424.568 324.579H393.326V324.815H424.568V324.579Z" fill="#EBEBEB"/>
<path d="M312.616 327.145H304.418V327.38H312.616V327.145Z" fill="#EBEBEB"/>
<path d="M392.382 315.824H374.28V316.06H392.382V315.824Z" fill="#EBEBEB"/>
<path d="M90.4003 317.409H49.6587V317.645H90.4003V317.409Z" fill="#EBEBEB"/>
<path d="M104.776 317.409H98.8052V317.645H104.776V317.409Z" fill="#EBEBEB"/>
<path d="M212.559 321.391H124.19V321.626H212.559V321.391Z" fill="#EBEBEB"/>
<path d="M223.737 267.329H41.5932C40.1663 267.327 38.7987 266.758 37.7906 265.748C36.7825 264.738 36.2163 263.37 36.2163 261.943V5.89969C36.2287 4.48097 36.8004 3.12445 37.8072 2.12476C38.8139 1.12508 40.1744 0.562977 41.5932 0.560547H223.737C225.166 0.560547 226.536 1.12803 227.546 2.13816C228.556 3.14829 229.124 4.51832 229.124 5.94686V261.943C229.124 263.371 228.556 264.741 227.546 265.751C226.536 266.762 225.166 267.329 223.737 267.329ZM41.5932 0.74921C40.2288 0.751709 38.9212 1.29545 37.9573 2.26108C36.9935 3.22671 36.4521 4.53533 36.4521 5.89969V261.943C36.4521 263.307 36.9935 264.616 37.9573 265.581C38.9212 266.547 40.2288 267.091 41.5932 267.093H223.737C225.102 267.091 226.411 266.547 227.376 265.582C228.342 264.617 228.885 263.308 228.888 261.943V5.89969C228.885 4.53446 228.342 3.22587 227.376 2.2605C226.411 1.29514 225.102 0.751703 223.737 0.74921H41.5932Z" fill="#EBEBEB"/>
<path d="M427.785 267.329H245.631C244.204 267.327 242.835 266.758 241.825 265.749C240.816 264.739 240.248 263.371 240.245 261.943V5.89969C240.26 4.48011 240.834 3.1236 241.842 2.12417C242.85 1.12475 244.212 0.562951 245.631 0.560547H427.785C429.202 0.565456 430.56 1.12866 431.565 2.12807C432.57 3.12749 433.14 4.4826 433.152 5.89969V261.943C433.152 263.368 432.587 264.735 431.581 265.745C430.575 266.754 429.21 267.324 427.785 267.329ZM245.631 0.74921C244.266 0.751703 242.958 1.29514 241.992 2.2605C241.027 3.22587 240.483 4.53446 240.481 5.89969V261.943C240.483 263.308 241.027 264.617 241.992 265.582C242.958 266.547 244.266 267.091 245.631 267.093H427.785C429.15 267.091 430.459 266.547 431.424 265.582C432.389 264.617 432.933 263.308 432.935 261.943V5.89969C432.933 4.53446 432.389 3.22587 431.424 2.2605C430.459 1.29514 429.15 0.751703 427.785 0.74921H245.631Z" fill="#EBEBEB"/>
<path d="M302.598 32.2656H65.2798V168.225H302.598V32.2656Z" fill="#E6E6E6"/>
<path d="M306.126 32.2656H66.9307V168.225H306.126V32.2656Z" fill="#F0F0F0"/>
<path d="M301.192 162.669V37.8125L71.8733 37.8125V162.669H301.192Z" fill="#FAFAFA"/>
<path d="M100.012 162.669L129.019 37.8125H167.035L138.037 162.669H100.012Z" fill="white"/>
<path d="M144.188 162.669L173.185 37.8125H190.353L161.356 162.669H144.188Z" fill="white"/>
<path d="M212.314 162.669L241.311 37.8125H270.639L241.642 162.669H212.314Z" fill="white"/>
<path d="M301.183 162.669V37.8125H300.551V162.669H301.183Z" fill="#E6E6E6"/>
<path d="M193.655 32.2656H179.401V168.225H193.655V32.2656Z" fill="#F0F0F0"/>
<path d="M179.401 162.669V37.8125H178.769V162.669H179.401Z" fill="#E6E6E6"/>
<path d="M186.778 32.2656H186.278V168.225H186.778V32.2656Z" fill="#E6E6E6"/>
<path d="M216.974 221.399H196.853V309.392H216.974V221.399Z" fill="#E6E6E6"/>
<path d="M208.267 309.4H216.974V294.798H199.126L208.267 309.4Z" fill="#F5F5F5"/>
<path d="M60.8743 221.399H40.7534V309.392H60.8743V221.399Z" fill="#E6E6E6"/>
<path d="M216.974 221.399H53.2715V304.373H216.974V221.399Z" fill="#F5F5F5"/>
<path d="M61.9877 309.4H53.2715V294.798H71.1284L61.9877 309.4Z" fill="#F5F5F5"/>
<path d="M210.219 228.38H60.0347V258.981H210.219V228.38Z" fill="#F0F0F0"/>
<path d="M135.123 252.622C133.354 252.622 131.624 252.098 130.154 251.115C128.683 250.132 127.537 248.735 126.86 247.1C126.183 245.465 126.007 243.667 126.353 241.932C126.699 240.197 127.551 238.603 128.803 237.353C130.054 236.103 131.649 235.252 133.384 234.908C135.119 234.564 136.918 234.742 138.551 235.421C140.185 236.099 141.581 237.247 142.563 238.719C143.544 240.19 144.067 241.92 144.065 243.689C144.063 246.059 143.12 248.332 141.443 250.007C139.766 251.682 137.493 252.622 135.123 252.622ZM135.123 235.69C133.541 235.69 131.994 236.159 130.679 237.038C129.363 237.917 128.338 239.166 127.732 240.628C127.127 242.09 126.969 243.698 127.277 245.25C127.586 246.802 128.348 248.227 129.466 249.346C130.585 250.464 132.01 251.226 133.562 251.535C135.114 251.844 136.722 251.685 138.184 251.08C139.646 250.474 140.895 249.449 141.774 248.133C142.653 246.818 143.122 245.271 143.122 243.689C143.122 241.568 142.279 239.533 140.779 238.033C139.279 236.533 137.244 235.69 135.123 235.69Z" fill="white"/>
<path d="M210.219 266.376H60.0347V296.977H210.219V266.376Z" fill="#F0F0F0"/>
<path d="M135.123 290.62C133.354 290.62 131.625 290.095 130.155 289.112C128.684 288.13 127.538 286.733 126.861 285.099C126.184 283.465 126.007 281.667 126.352 279.932C126.697 278.198 127.549 276.604 128.799 275.354C130.05 274.103 131.643 273.251 133.378 272.906C135.113 272.561 136.911 272.738 138.545 273.415C140.179 274.092 141.576 275.238 142.558 276.709C143.541 278.179 144.065 279.908 144.065 281.677C144.063 284.048 143.12 286.321 141.443 287.998C139.767 289.674 137.494 290.617 135.123 290.62ZM135.123 273.687C133.54 273.687 131.993 274.157 130.678 275.036C129.362 275.915 128.337 277.165 127.731 278.627C127.126 280.09 126.968 281.698 127.278 283.25C127.587 284.802 128.35 286.228 129.47 287.346C130.589 288.464 132.016 289.226 133.568 289.533C135.12 289.841 136.729 289.681 138.191 289.074C139.652 288.467 140.901 287.44 141.779 286.124C142.656 284.807 143.124 283.259 143.122 281.677C143.12 279.557 142.276 277.525 140.776 276.027C139.276 274.529 137.243 273.687 135.123 273.687Z" fill="white"/>
<path d="M237.358 309.401H304.22V244.209H237.358V309.401Z" fill="#E6E6E6"/>
<path d="M392.09 244.199H304.22V309.392H392.09V244.199Z" fill="#F0F0F0"/>
<g style="mix-blend-mode:multiply" opacity="0.7">
<path d="M237.359 249.463L392.09 249.463V238.653L237.359 238.653V249.463Z" fill="#E6E6E6"/>
</g>
<path d="M233.981 244.199H304.211V237.955H233.981V244.199Z" fill="#E6E6E6"/>
<path d="M395.467 237.964H304.22V244.209H395.467V237.964Z" fill="#F0F0F0"/>
<path d="M421.421 295.777C426.868 284.015 421.749 270.065 409.987 264.617C398.226 259.17 384.275 264.289 378.828 276.051C373.381 287.813 378.5 301.763 390.261 307.211C402.023 312.658 415.974 307.539 421.421 295.777Z" fill="#E6E6E6"/>
<g style="mix-blend-mode:multiply" opacity="0.7">
<path d="M394.797 268.63C392.826 268.998 391.071 268.508 390.892 267.536C390.713 266.565 392.175 265.489 394.156 265.121C396.137 264.753 397.882 265.244 398.061 266.216C398.24 267.187 396.778 268.263 394.797 268.63Z" fill="#E6E6E6"/>
</g>
<g style="mix-blend-mode:multiply" opacity="0.7">
<path d="M385.765 274.378C387.17 272.94 387.739 271.216 387.035 270.528C386.331 269.84 384.621 270.448 383.215 271.886C381.809 273.324 381.24 275.047 381.944 275.736C382.648 276.424 384.359 275.816 385.765 274.378Z" fill="#E6E6E6"/>
</g>
<g style="mix-blend-mode:multiply" opacity="0.7">
<path d="M393.694 277.178C392.09 278.394 390.185 278.583 389.439 277.602C388.694 276.621 389.383 274.838 390.986 273.621C392.59 272.404 394.477 272.235 395.241 273.178C396.005 274.121 395.297 276.008 393.694 277.178Z" fill="#E6E6E6"/>
</g>
<path d="M406.239 48.415H338.632V152.066H406.239V48.415Z" fill="#E6E6E6"/>
<path d="M411.966 48.415H340.208V152.066H411.966V48.415Z" fill="#F5F5F5"/>
<path d="M407.381 147.491V52.9902L344.774 52.9902V147.491H407.381Z" fill="white"/>
<path d="M396.363 102.891V97.5898H355.791V102.891H396.363Z" fill="#F5F5F5"/>
<path d="M396.373 89.525V84.2236H355.801V89.525H396.373Z" fill="#F5F5F5"/>
<path d="M396.373 76.1481V70.8467H355.801V76.1481H396.373Z" fill="#F5F5F5"/>
<path d="M396.373 116.258V110.957H355.801V116.258H396.373Z" fill="#F5F5F5"/>
<path d="M396.373 129.633V124.332H355.801V129.633H396.373Z" fill="#F5F5F5"/>
<path d="M236 352C337.012 352 418.898 347.219 418.898 341.322C418.898 335.424 337.012 330.644 236 330.644C134.988 330.644 53.1011 335.424 53.1011 341.322C53.1011 347.219 134.988 352 236 352Z" fill="#F5F5F5"/>
<path d="M199.918 333.115L207.068 331.144L204.408 314.061L197.258 316.032L199.918 333.115Z" fill="#FFC3BD"/>
<path d="M139.084 333.295H146.498L148.347 316.117H140.933L139.084 333.295Z" fill="#FFC3BD"/>
<path d="M147.111 332.437H138.065C137.918 332.437 137.775 332.488 137.66 332.581C137.545 332.673 137.465 332.802 137.433 332.946L135.971 339.549C135.937 339.71 135.94 339.876 135.979 340.035C136.017 340.195 136.092 340.343 136.196 340.47C136.3 340.597 136.432 340.699 136.58 340.768C136.729 340.837 136.892 340.872 137.056 340.87C139.961 340.823 142.093 340.643 145.753 340.643C148.008 340.643 154.809 340.879 157.922 340.879C161.035 340.879 161.44 337.804 160.167 337.521C154.45 336.276 150.14 334.55 148.319 332.908C147.989 332.606 147.559 332.438 147.111 332.437Z" fill="#263238"/>
<path d="M206.758 330.332L198.947 332.483C198.805 332.52 198.68 332.605 198.594 332.724C198.508 332.843 198.466 332.988 198.475 333.134L198.815 339.888C198.828 340.047 198.876 340.202 198.957 340.34C199.037 340.479 199.147 340.597 199.279 340.688C199.411 340.778 199.561 340.838 199.719 340.863C199.877 340.887 200.039 340.877 200.192 340.831C203.022 340.011 207.022 338.728 210.569 337.747C214.71 336.605 218.351 335.86 223.2 334.511C226.143 333.7 226.133 330.512 224.831 330.578C218.898 330.898 214.295 332.021 208.644 330.37C208.031 330.182 207.378 330.169 206.758 330.332Z" fill="#263238"/>
<path d="M179.665 101.061C179.958 101.41 180.373 101.91 180.76 102.334L181.939 103.683C182.731 104.626 183.561 105.456 184.401 106.305C186.089 108.013 187.806 109.673 189.598 111.182C193.136 114.21 197.013 116.842 200.748 117.965C201.197 118.112 201.654 118.235 202.116 118.333L202.786 118.446C203.191 118.502 202.786 118.446 202.786 118.521C202.786 118.597 202.861 118.521 203.163 118.465C203.543 118.338 203.912 118.18 204.267 117.993C205.199 117.486 206.091 116.909 206.936 116.267C207.88 115.597 208.823 114.852 209.71 114.069C213.398 110.937 217.068 107.334 220.624 103.787L225.095 107.107C222.445 111.783 219.342 116.187 215.832 120.257C213.94 122.494 211.783 124.493 209.408 126.209C208.677 126.718 207.907 127.169 207.106 127.558C206.061 128.07 204.94 128.408 203.786 128.558C203.134 128.629 202.476 128.629 201.824 128.558L200.579 128.445C199.767 128.322 198.947 128.2 198.164 128.011C196.634 127.669 195.138 127.192 193.692 126.587C192.304 126.014 190.95 125.362 189.636 124.634C187.133 123.231 184.75 121.622 182.514 119.823C180.338 118.085 178.271 116.213 176.326 114.22C175.364 113.239 174.42 112.233 173.496 111.201C173.034 110.682 172.553 110.164 172.138 109.626C171.723 109.088 171.279 108.579 170.779 107.909L179.665 101.061Z" fill="#FFC3BD"/>
<path d="M182.259 123.728L185.146 126.624L198.428 115.983L193.673 112.295L182.259 123.728Z" fill="#263238"/>
<path d="M166.694 104.259C166.147 111.324 182.07 125.757 182.07 125.757L196.145 113.551C196.145 113.551 190.211 107.268 183.561 100.957C178.976 96.6183 167.289 96.6088 166.694 104.259Z" fill="#263238"/>
<path opacity="0.5" d="M166.694 104.259C166.147 111.324 182.07 125.757 182.07 125.757L196.145 113.551C196.145 113.551 190.211 107.268 183.561 100.957C178.976 96.6183 167.289 96.6088 166.694 104.259Z" fill="#1A446E"/>
<path opacity="0.2" d="M186.948 121.531C186.806 120.871 186.627 120.21 186.429 119.56C184.599 113.749 180.42 108.485 173.873 107.891C170.921 107.627 170.1 109.702 170.279 112.749C173.802 117.438 177.749 121.792 182.071 125.757L183.259 124.729L185.146 126.616L187.419 124.795C187.343 123.697 187.186 122.606 186.948 121.531Z" fill="black"/>
<path d="M220.03 106.324L222.143 100.099L230.482 102.24C228.777 104.22 226.881 106.028 224.822 107.636L220.03 106.324Z" fill="#FFC3BD"/>
<path d="M225.444 97.4199L232.349 99.8159L230.481 102.24L222.143 100.099L225.444 97.4199Z" fill="#FFC3BD"/>
<path opacity="0.2" d="M204.408 314.061L205.785 322.871L198.626 324.843L197.258 316.032L204.408 314.061Z" fill="black"/>
<path opacity="0.2" d="M140.923 316.126H148.347L147.395 324.984H139.971L140.923 316.126Z" fill="black"/>
<path d="M136.546 100.834C138.726 108.839 140.303 116.996 141.263 125.237C141.961 130.982 142.385 136.463 142.65 141.443C143.263 153.103 143.008 161.989 143.357 165.026C149.158 164.63 171.015 163.14 182.976 162.272C188.372 120.077 178.08 98.3435 178.08 98.3435C174.947 97.7564 171.781 97.3627 168.6 97.1643C167.93 97.1643 167.251 97.0983 166.563 97.0889C160.935 97.1546 155.316 97.5451 149.734 98.2586C148.668 98.3812 147.602 98.5416 146.564 98.7114C141.216 99.5415 136.546 100.834 136.546 100.834Z" fill="#263238"/>
<path opacity="0.5" d="M136.546 100.834C138.726 108.839 140.303 116.996 141.263 125.237C141.961 130.982 142.385 136.463 142.65 141.443C143.263 153.103 143.008 161.989 143.357 165.026C149.158 164.63 171.015 163.14 182.976 162.272C188.372 120.077 178.08 98.3435 178.08 98.3435C174.947 97.7564 171.781 97.3627 168.6 97.1643C167.93 97.1643 167.251 97.0983 166.563 97.0889C160.935 97.1546 155.316 97.5451 149.734 98.2586C148.668 98.3812 147.602 98.5416 146.564 98.7114C141.216 99.5415 136.546 100.834 136.546 100.834Z" fill="#1A446E"/>
<path d="M174.053 122.654L165.412 123.229C165.283 123.234 165.156 123.193 165.055 123.114C164.953 123.034 164.882 122.921 164.856 122.795L164.78 122.38C164.767 122.293 164.733 122.212 164.679 122.142C164.626 122.073 164.555 122.019 164.475 121.985C164.394 121.951 164.306 121.938 164.219 121.948C164.132 121.957 164.049 121.989 163.978 122.04L159.328 125.87C159.271 125.925 159.229 125.992 159.205 126.066C159.18 126.14 159.174 126.219 159.187 126.297C159.2 126.374 159.232 126.446 159.279 126.509C159.327 126.571 159.389 126.62 159.46 126.653L165.356 129.785C165.427 129.834 165.511 129.86 165.597 129.86C165.683 129.861 165.767 129.836 165.839 129.788C165.911 129.741 165.967 129.673 166 129.593C166.033 129.514 166.042 129.426 166.025 129.342L165.95 128.936C165.938 128.877 165.938 128.815 165.952 128.756C165.965 128.697 165.991 128.642 166.027 128.593C166.064 128.545 166.111 128.505 166.164 128.477C166.217 128.448 166.276 128.431 166.337 128.427L174.977 127.851C175.038 127.848 175.097 127.832 175.15 127.805C175.204 127.777 175.251 127.738 175.289 127.691C175.326 127.644 175.353 127.589 175.368 127.53C175.382 127.472 175.384 127.411 175.374 127.351L174.619 123.088C174.592 122.959 174.52 122.845 174.416 122.766C174.312 122.686 174.184 122.646 174.053 122.654Z" fill="white"/>
<path d="M158.648 120.511L167.289 119.936C167.419 119.929 167.546 119.969 167.648 120.049C167.751 120.129 167.821 120.243 167.846 120.37L167.921 120.785C167.935 120.872 167.971 120.953 168.026 121.022C168.08 121.091 168.152 121.145 168.233 121.179C168.314 121.213 168.402 121.226 168.49 121.216C168.577 121.207 168.66 121.175 168.732 121.124L173.383 117.295C173.439 117.239 173.48 117.17 173.504 117.095C173.528 117.019 173.533 116.939 173.519 116.862C173.505 116.784 173.472 116.71 173.424 116.648C173.376 116.585 173.313 116.535 173.241 116.502L167.355 113.38C167.284 113.331 167.2 113.305 167.114 113.305C167.028 113.304 166.943 113.329 166.871 113.377C166.8 113.424 166.743 113.492 166.71 113.572C166.677 113.651 166.669 113.739 166.685 113.823L166.751 114.229C166.764 114.288 166.763 114.349 166.75 114.407C166.736 114.466 166.71 114.521 166.673 114.568C166.637 114.616 166.59 114.655 166.537 114.682C166.483 114.71 166.425 114.726 166.365 114.729L157.724 115.314C157.664 115.317 157.605 115.333 157.551 115.36C157.497 115.388 157.45 115.427 157.413 115.474C157.375 115.521 157.348 115.576 157.333 115.635C157.319 115.693 157.317 115.754 157.328 115.814L158.092 120.068C158.115 120.197 158.184 120.313 158.286 120.395C158.389 120.477 158.517 120.518 158.648 120.511Z" fill="white"/>
<path d="M149.677 98.2312C155.26 97.518 160.879 97.1275 166.506 97.0615C167.195 97.0615 167.883 97.0615 168.553 97.137H168.789C169.987 99.6179 171.543 107.004 166.025 107.768C158.535 108.806 150.064 102.335 146.508 98.6652C147.545 98.5142 148.621 98.3539 149.677 98.2312Z" fill="#263238"/>
<path opacity="0.2" d="M146.545 111.513C146.621 117.582 144.926 123.541 141.669 128.662C141.565 127.53 141.433 126.389 141.291 125.238C140.763 120.918 140.084 116.446 139.178 111.928L146.545 111.513Z" fill="black"/>
<path d="M150.036 79.166C151.47 84.5146 153.224 94.3533 149.687 98.2303C151.475 99.8525 153.59 101.072 155.889 101.806C158.189 102.54 160.619 102.771 163.016 102.485C167.667 102.06 167.676 98.7869 166.516 97.0606C160.375 96.0419 160.214 91.5517 160.978 87.2691L150.036 79.166Z" fill="#FFC3BD"/>
<path opacity="0.2" d="M154.498 82.4775L160.969 87.2601C160.778 88.2586 160.674 89.2717 160.658 90.2882C158.328 90.1184 154.998 87.8073 154.573 85.4112C154.368 84.4463 154.342 83.4518 154.498 82.4775Z" fill="black"/>
<path d="M177.26 50.9617C180.005 56.7348 169.223 70.7712 160.422 69.2336C155.453 68.2896 150.535 67.0932 145.687 65.6491C141.414 64.4039 139.848 58.7629 143.914 58.046C157.705 55.5839 172.713 41.3777 177.26 50.9617Z" fill="#263238"/>
<path d="M148.819 71.073C149.762 78.3648 149.97 82.6852 153.941 86.166C159.903 91.4391 168.714 87.4489 169.978 80.0062C171.1 73.3087 169.336 62.4983 161.959 60.0834C160.33 59.5357 158.588 59.415 156.899 59.733C155.21 60.0509 153.631 60.7969 152.313 61.8994C150.994 63.002 149.981 64.4244 149.369 66.0305C148.758 67.6366 148.568 69.3728 148.819 71.073Z" fill="#FFC3BD"/>
<path d="M163.025 80.4022C162.163 80.4801 161.295 80.3494 160.493 80.0211C159.692 79.6927 158.982 79.1763 158.422 78.5156C158.388 78.4803 158.368 78.4329 158.368 78.3835C158.368 78.3341 158.388 78.2867 158.422 78.2514C158.439 78.2331 158.459 78.2185 158.482 78.2085C158.505 78.1985 158.529 78.1934 158.554 78.1934C158.579 78.1934 158.604 78.1985 158.626 78.2085C158.649 78.2185 158.669 78.2331 158.686 78.2514C159.216 78.8532 159.879 79.3227 160.623 79.6224C161.366 79.9221 162.17 80.0438 162.969 79.9777C162.994 79.9764 163.018 79.98 163.042 79.9884C163.065 79.9967 163.087 80.0095 163.105 80.0262C163.123 80.0428 163.138 80.063 163.149 80.0854C163.16 80.1078 163.166 80.1321 163.167 80.1569C163.177 80.1822 163.182 80.2095 163.18 80.2368C163.178 80.264 163.17 80.2905 163.156 80.3142C163.143 80.3378 163.124 80.3581 163.101 80.3733C163.078 80.3886 163.053 80.3984 163.025 80.4022Z" fill="#263238"/>
<path d="M153.932 74.3742C156.695 68.3558 157.29 62.196 152.234 60.3094C147.177 58.4228 142.933 60.9509 141.527 64.7524C140.121 68.5539 149.913 83.147 153.932 74.3742Z" fill="#263238"/>
<path d="M148.206 62.8946C153.281 66.5264 170.675 66.7433 168.223 60.2156C166.383 55.3293 154.299 55.4802 148.206 62.8946Z" fill="#263238"/>
<path d="M146.074 79.3838C147.169 80.8763 148.811 81.8736 150.64 82.1571C153.064 82.5156 153.97 80.2705 153.045 78.1386C152.206 76.252 149.932 73.7239 147.621 74.3654C145.31 75.0068 144.744 77.5349 146.074 79.3838Z" fill="#FFC3BD"/>
<path d="M208.002 320.485L195.899 323.815C195.899 323.815 180.731 276.008 177.033 249.755C176.043 242.794 174.524 233.002 172.194 222.569C169.26 209.429 165.591 195.213 162.553 184.082C159.365 172.356 156.894 164.065 156.894 164.065L182.92 162.244C182.92 162.244 196.994 223.654 198.494 246.199C200.06 269.725 208.002 320.485 208.002 320.485Z" fill="#1A446E"/>
<path opacity="0.3" d="M208.002 320.485L195.899 323.815C195.899 323.815 180.731 276.008 177.033 249.755C176.043 242.794 174.524 233.002 172.194 222.569C169.26 209.429 165.591 195.213 162.553 184.082C159.365 172.356 156.894 164.065 156.894 164.065L182.92 162.244C182.92 162.244 196.994 223.654 198.494 246.199C200.06 269.725 208.002 320.485 208.002 320.485Z" fill="#FAFAFA"/>
<path opacity="0.2" d="M172.166 222.569C169.232 209.429 165.563 195.213 162.525 184.082L165.223 178.262C171.676 185.931 173.411 209.674 172.166 222.569Z" fill="black"/>
<path d="M168.902 163.225C168.902 163.225 166.072 226.728 162.959 248.236C159.525 271.819 150.819 323.267 150.819 323.267H137.235C137.235 323.267 137.009 274.46 141.263 251.641C146.112 225.662 143.357 165.007 143.357 165.007L168.902 163.225Z" fill="#1A446E"/>
<path opacity="0.3" d="M168.902 163.225C168.902 163.225 166.072 226.728 162.959 248.236C159.525 271.819 150.819 323.267 150.819 323.267H137.235C137.235 323.267 137.009 274.46 141.263 251.641C146.112 225.662 143.357 165.007 143.357 165.007L168.902 163.225Z" fill="#FAFAFA"/>
<path d="M152.451 323.56H136.452V318.777L154.328 318.466L152.451 323.56Z" fill="#1A446E"/>
<path d="M208.842 320.551L195.173 324.324L193.202 319.607L208.785 315.287L208.842 320.551Z" fill="#1A446E"/>
<path d="M160.082 72.3471C160.082 72.9414 160.469 73.4036 160.865 73.3753C161.261 73.347 161.535 72.8376 161.497 72.2433C161.459 71.649 161.101 71.1868 160.714 71.2151C160.327 71.2434 160.035 71.7434 160.082 72.3471Z" fill="#263238"/>
<path d="M166.827 71.8754C166.827 72.4697 167.213 72.9319 167.61 72.9036C168.006 72.8753 168.279 72.3659 168.242 71.7716C168.204 71.1774 167.845 70.7151 167.459 70.7434C167.072 70.7717 166.789 71.3094 166.827 71.8754Z" fill="#263238"/>
<path d="M164.705 72.3184C165.542 74.0935 166.622 75.7442 167.912 77.2236C166.969 78.2801 165.006 77.8179 165.006 77.8179L164.705 72.3184Z" fill="#ED847E"/>
<path d="M157.837 70.3086C157.901 70.3131 157.966 70.3007 158.024 70.2725C158.082 70.2444 158.131 70.2015 158.167 70.1482C158.399 69.7737 158.715 69.4585 159.09 69.2276C159.465 68.9967 159.889 68.8565 160.327 68.8182C160.42 68.8182 160.509 68.7814 160.574 68.7159C160.64 68.6505 160.676 68.5617 160.676 68.4691C160.676 68.3766 160.64 68.2878 160.574 68.2223C160.509 68.1569 160.42 68.1201 160.327 68.1201C159.771 68.1544 159.23 68.3213 158.751 68.6068C158.272 68.8923 157.868 69.2882 157.573 69.7615C157.523 69.8406 157.505 69.9362 157.525 70.0279C157.544 70.1196 157.599 70.2 157.677 70.252C157.726 70.2806 157.781 70.2998 157.837 70.3086Z" fill="#263238"/>
<path d="M169.553 69.3461C169.618 69.3524 169.683 69.3408 169.742 69.3128C169.801 69.2847 169.851 69.2412 169.886 69.1869C169.922 69.1326 169.943 69.0696 169.946 69.0046C169.948 68.9396 169.933 68.875 169.902 68.8179C169.634 68.3282 169.253 67.9099 168.79 67.5981C168.327 67.2862 167.796 67.0899 167.242 67.0256C167.196 67.0217 167.15 67.0273 167.106 67.0421C167.062 67.0568 167.021 67.0803 166.987 67.1113C166.952 67.1422 166.925 67.1798 166.905 67.2219C166.886 67.2639 166.875 67.3095 166.874 67.3558C166.871 67.4477 166.904 67.5372 166.966 67.6057C167.027 67.6742 167.113 67.7164 167.204 67.7237C167.641 67.7865 168.057 67.9506 168.419 68.2029C168.781 68.4551 169.079 68.7885 169.289 69.1764C169.317 69.2228 169.356 69.2623 169.402 69.2917C169.447 69.3211 169.499 69.3397 169.553 69.3461Z" fill="#263238"/>
<path d="M149.564 333.738C150.068 333.779 150.571 333.645 150.989 333.361C151.122 333.245 151.224 333.099 151.288 332.934C151.352 332.77 151.376 332.593 151.357 332.418C151.357 332.316 151.329 332.216 151.276 332.129C151.222 332.043 151.146 331.973 151.055 331.927C150.234 331.503 147.838 332.974 147.574 333.144C147.544 333.16 147.519 333.184 147.504 333.215C147.488 333.246 147.483 333.28 147.489 333.314C147.494 333.349 147.509 333.383 147.532 333.409C147.556 333.436 147.587 333.456 147.621 333.465C148.257 333.627 148.909 333.719 149.564 333.738ZM150.668 332.201C150.746 332.195 150.825 332.211 150.894 332.248C150.942 332.248 150.998 332.314 151.008 332.455C151.023 332.573 151.009 332.692 150.966 332.803C150.923 332.913 150.853 333.011 150.762 333.087C150.357 333.427 149.395 333.474 148.131 333.219C148.903 332.719 149.764 332.373 150.668 332.201Z" fill="#1A446E"/>
<path d="M147.669 333.474H147.744C148.518 333.059 149.999 331.427 149.838 330.644C149.816 330.513 149.747 330.395 149.645 330.31C149.543 330.225 149.414 330.18 149.282 330.182C149.148 330.164 149.013 330.176 148.885 330.215C148.756 330.254 148.637 330.32 148.536 330.408C147.678 331.106 147.499 333.238 147.489 333.342C147.487 333.373 147.493 333.404 147.506 333.432C147.519 333.46 147.539 333.484 147.565 333.502C147.601 333.503 147.637 333.493 147.669 333.474ZM149.159 330.465H149.216C149.442 330.465 149.461 330.597 149.47 330.644C149.565 331.125 148.621 332.361 147.857 332.936C147.908 332.093 148.21 331.285 148.725 330.616C148.847 330.514 149.001 330.461 149.159 330.465Z" fill="#1A446E"/>
<path d="M207.757 331.125C208.974 331.04 211.096 330.748 211.691 329.842C211.782 329.705 211.839 329.547 211.855 329.382C211.872 329.218 211.848 329.052 211.785 328.899C211.754 328.808 211.701 328.727 211.63 328.663C211.559 328.598 211.473 328.553 211.379 328.531C210.379 328.295 207.899 330.531 207.606 330.795C207.578 330.818 207.558 330.85 207.55 330.886C207.541 330.922 207.544 330.959 207.559 330.993C207.573 331.034 207.6 331.068 207.636 331.092C207.672 331.116 207.714 331.128 207.757 331.125ZM211.285 328.89C211.321 328.899 211.355 328.918 211.381 328.944C211.408 328.971 211.427 329.004 211.436 329.04C211.486 329.133 211.511 329.237 211.511 329.342C211.511 329.448 211.486 329.551 211.436 329.644C211.106 330.154 209.946 330.54 208.295 330.72C209.285 329.861 210.7 328.833 211.285 328.89Z" fill="#1A446E"/>
<path d="M207.757 331.125C207.8 331.138 207.846 331.138 207.889 331.125C208.644 330.493 209.936 328.474 209.578 327.71C209.493 327.521 209.295 327.323 208.814 327.408C208.641 327.436 208.476 327.499 208.329 327.593C208.181 327.687 208.054 327.81 207.955 327.955C207.257 328.955 207.597 330.936 207.606 331.021C207.614 331.05 207.628 331.077 207.648 331.1C207.667 331.123 207.692 331.141 207.72 331.153L207.757 331.125ZM209.078 327.7C209.22 327.7 209.248 327.785 209.257 327.814C209.474 328.276 208.644 329.813 207.908 330.587C207.764 329.748 207.883 328.885 208.248 328.115C208.321 328.01 208.414 327.92 208.523 327.852C208.632 327.784 208.753 327.739 208.88 327.719C208.945 327.705 209.011 327.699 209.078 327.7Z" fill="#1A446E"/>
<path d="M136.414 162.603C136.397 161.861 136.124 161.149 135.64 160.587C135.157 160.024 134.494 159.647 133.764 159.518L111.69 157.028C110.811 157.002 109.957 157.325 109.314 157.925C108.671 158.526 108.291 159.356 108.256 160.235L101.785 217.57C101.627 218.433 101.814 219.324 102.306 220.051C102.799 220.778 103.557 221.282 104.417 221.456L174.477 229.361C175.355 229.384 176.206 229.06 176.847 228.46C177.488 227.86 177.867 227.031 177.901 226.154L183.344 178.045C183.505 177.181 183.319 176.289 182.826 175.561C182.334 174.834 181.574 174.33 180.712 174.158L142.612 169.81C139.291 169.413 136.726 166.451 136.414 162.603Z" fill="#263238"/>
<path d="M145.725 175.177C145.766 174.851 145.74 174.52 145.65 174.204C145.559 173.887 145.406 173.593 145.199 173.337C144.992 173.082 144.736 172.871 144.445 172.717C144.155 172.563 143.836 172.469 143.509 172.441L121.435 169.951C120.561 169.9 119.694 170.142 118.973 170.64C118.252 171.137 117.717 171.861 117.454 172.696L103.493 218.154C103.348 218.516 103.289 218.907 103.32 219.295C103.352 219.684 103.474 220.059 103.676 220.393C103.879 220.726 104.156 221.007 104.486 221.215C104.816 221.422 105.19 221.55 105.578 221.588L175.628 229.493C176.503 229.545 177.37 229.304 178.092 228.806C178.813 228.309 179.347 227.584 179.609 226.748L191.117 189.279C191.263 188.918 191.322 188.527 191.29 188.139C191.259 187.75 191.137 187.374 190.934 187.041C190.732 186.708 190.455 186.426 190.125 186.219C189.795 186.011 189.421 185.884 189.033 185.846L150.914 181.544C150.147 181.487 149.401 181.273 148.719 180.918C148.038 180.562 147.436 180.071 146.951 179.476C146.466 178.88 146.107 178.191 145.896 177.452C145.685 176.713 145.627 175.939 145.725 175.177Z" fill="#1A446E"/>
<path d="M144.545 111.71L142.461 114.701C141.753 115.72 141.065 116.748 140.385 117.795C139.027 119.87 137.716 121.974 136.433 124.077C135.15 126.181 133.99 128.341 132.877 130.492C131.764 132.643 130.801 134.812 130 136.982L129.924 137.17V137.246C129.906 137.301 129.884 137.355 129.858 137.406C129.858 137.576 129.773 137.727 129.735 137.925C129.669 138.321 129.622 138.793 129.575 139.302C129.504 140.408 129.504 141.517 129.575 142.623C129.707 144.962 129.971 147.434 130.339 149.896C131.047 154.839 131.981 159.914 132.933 164.904L127.651 166.658C125.423 161.815 123.553 156.814 122.057 151.697C121.266 149.059 120.636 146.375 120.17 143.66C119.923 142.2 119.769 140.726 119.708 139.246C119.676 138.412 119.695 137.577 119.765 136.746C119.765 136.303 119.878 135.803 119.944 135.34L120.123 134.557L120.217 134.171L120.293 133.897C121.866 128.568 124.027 123.43 126.736 118.578C128.037 116.194 129.421 113.871 130.886 111.607C131.622 110.475 132.367 109.362 133.141 108.249C133.914 107.135 134.688 106.079 135.584 104.909L144.545 111.71Z" fill="#FFC3BD"/>
<path d="M124.972 118.371L122.585 121.701L135.264 133.04L138.122 127.748L124.972 118.371Z" fill="#263238"/>
<path d="M136.546 100.835C129.594 102.24 123.5 119.239 123.5 119.239L138.009 131.058C138.009 131.058 142.725 122.418 146.564 114.079C150.706 104.995 144.97 99.1367 136.546 100.835Z" fill="#263238"/>
<path opacity="0.5" d="M136.546 100.835C129.594 102.24 123.5 119.239 123.5 119.239L138.009 131.058C138.009 131.058 142.725 122.418 146.564 114.079C150.706 104.995 144.97 99.1367 136.546 100.835Z" fill="#1A446E"/>
<path d="M132.132 163.433L137.141 169.092L128.076 171.866C128.076 171.866 124.878 166.13 127.726 164.093L132.132 163.433Z" fill="#FFC3BD"/>
<path d="M137.565 175.243L129.972 177.177L128.076 171.828L137.141 169.055L137.565 175.243Z" fill="#FFC3BD"/>
<path d="M307.494 74.356C307.313 73.6362 306.888 73.0016 306.291 72.561C305.694 72.1205 304.962 71.9013 304.221 71.9411L282.147 74.4786C281.285 74.652 280.526 75.1583 280.035 75.8877C279.544 76.6171 279.361 77.5107 279.525 78.3745L286.128 135.69C286.162 136.568 286.543 137.398 287.186 137.997C287.829 138.596 288.683 138.916 289.562 138.888L359.574 130.851C360.436 130.678 361.195 130.171 361.686 129.442C362.177 128.712 362.36 127.819 362.197 126.955L356.669 78.8462C356.63 77.9696 356.248 77.1434 355.606 76.5454C354.964 75.9473 354.112 75.6252 353.235 75.6484L315.125 80.0253C311.833 80.3649 308.635 78.0349 307.494 74.356Z" fill="#263238"/>
<path d="M318.068 53.4616C322.947 74.8095 326.064 96.522 327.388 118.38C309.981 120.443 292.577 122.069 275.176 123.257C273.868 99.3928 270.094 75.7279 263.913 52.6409C276.207 49.333 288.454 45.7893 300.655 42.0098C306.541 45.6447 312.345 49.4619 318.068 53.4616Z" fill="#1A446E"/>
<path opacity="0.7" d="M318.068 53.4616C322.947 74.8095 326.064 96.522 327.388 118.38C309.981 120.443 292.577 122.069 275.176 123.257C273.868 99.3928 270.094 75.7279 263.913 52.6409C276.207 49.333 288.454 45.7893 300.655 42.0098C306.541 45.6447 312.345 49.4619 318.068 53.4616Z" fill="#FAFAFA"/>
<path d="M315.135 64.394C301.532 67.8088 287.889 70.9531 274.204 73.8271C274.062 73.8544 273.917 73.8533 273.775 73.8239C273.634 73.7945 273.499 73.7373 273.38 73.6558C273.261 73.5742 273.159 73.4698 273.08 73.3487C273.001 73.2275 272.948 73.0919 272.921 72.9498C272.862 72.6637 272.916 72.3657 273.073 72.1191C273.23 71.8725 273.477 71.6967 273.761 71.6292C287.433 68.7049 301.057 65.4945 314.635 61.998C314.783 61.9683 314.936 61.9695 315.085 62.0016C315.233 62.0336 315.373 62.0958 315.496 62.1843C315.619 62.2728 315.722 62.3857 315.8 62.5159C315.877 62.6462 315.927 62.7909 315.946 62.9413C316.014 63.2408 315.968 63.5549 315.819 63.823C315.669 64.0912 315.425 64.2945 315.135 64.394Z" fill="#1A446E"/>
<path d="M316.606 72.0639C302.935 75.2083 289.235 78.076 275.506 80.6669C275.364 80.6926 275.218 80.6898 275.076 80.6586C274.935 80.6273 274.801 80.5683 274.682 80.4849C274.564 80.4016 274.463 80.2955 274.386 80.1729C274.309 80.0503 274.257 79.9136 274.233 79.7708C274.177 79.4821 274.237 79.183 274.399 78.9378C274.561 78.6926 274.813 78.5209 275.101 78.4596C288.816 75.7869 302.501 72.8343 316.154 69.6019C316.301 69.575 316.452 69.5784 316.598 69.6118C316.744 69.6452 316.881 69.708 317.002 69.7962C317.123 69.8844 317.225 69.9963 317.301 70.1251C317.377 70.2538 317.427 70.3968 317.446 70.5452C317.526 70.8577 317.484 71.189 317.328 71.4714C317.172 71.7537 316.914 71.9657 316.606 72.0639Z" fill="#1A446E"/>
<path d="M317.927 79.7994C304.199 82.6922 290.445 85.302 276.666 87.6289C276.522 87.6515 276.374 87.6449 276.232 87.6094C276.09 87.5739 275.957 87.5103 275.84 87.4224C275.723 87.3344 275.625 87.2239 275.551 87.0973C275.478 86.9708 275.43 86.8308 275.412 86.6856C275.386 86.5379 275.391 86.3867 275.425 86.2407C275.458 86.0948 275.521 85.9571 275.609 85.8358C275.697 85.7145 275.808 85.612 275.936 85.5343C276.065 85.4567 276.207 85.4055 276.355 85.3838C290.115 82.9815 303.853 80.2899 317.568 77.309C317.719 77.2866 317.873 77.2953 318.02 77.3346C318.167 77.3739 318.305 77.443 318.424 77.5376C318.543 77.6323 318.642 77.7504 318.714 77.8847C318.786 78.019 318.829 78.1666 318.842 78.3184C318.911 78.6357 318.854 78.9672 318.683 79.2434C318.512 79.5196 318.241 79.7189 317.927 79.7994Z" fill="#1A446E"/>
<path d="M319.097 87.5341C305.318 90.1691 291.514 92.518 277.685 94.5807C277.542 94.6006 277.396 94.5919 277.257 94.5552C277.117 94.5184 276.986 94.4543 276.871 94.3666C276.756 94.2789 276.659 94.1693 276.587 94.0441C276.515 93.919 276.468 93.7807 276.45 93.6374C276.406 93.3424 276.481 93.0422 276.657 92.802C276.834 92.5618 277.098 92.401 277.393 92.3545C291.228 90.2037 305.016 87.77 318.757 85.0532C318.909 85.0335 319.062 85.0452 319.209 85.0876C319.356 85.1299 319.492 85.202 319.61 85.2993C319.728 85.3966 319.824 85.5171 319.893 85.6533C319.962 85.7895 320.003 85.9384 320.012 86.0909C320.072 86.4028 320.011 86.7259 319.841 86.9942C319.671 87.2626 319.405 87.4557 319.097 87.5341Z" fill="#1A446E"/>
<path d="M303.607 98.0336C295.269 99.3228 286.923 100.515 278.572 101.609C278.427 101.624 278.28 101.611 278.14 101.57C278 101.528 277.87 101.46 277.757 101.367C277.644 101.275 277.55 101.162 277.481 101.033C277.412 100.904 277.369 100.764 277.355 100.618C277.319 100.327 277.398 100.033 277.573 99.7971C277.749 99.5617 278.009 99.403 278.298 99.3542C286.637 98.216 294.973 96.9739 303.306 95.6281C303.455 95.6126 303.605 95.627 303.749 95.6705C303.892 95.7141 304.025 95.7859 304.14 95.8817C304.255 95.9775 304.35 96.0954 304.419 96.2285C304.488 96.3615 304.53 96.507 304.541 96.6564C304.59 96.9616 304.52 97.2738 304.347 97.5295C304.173 97.7853 303.909 97.9655 303.607 98.0336Z" fill="#1A446E"/>
<path d="M318.068 53.4616C313.534 54.7193 308.987 55.9771 304.428 57.2348C303.277 52.1347 302.019 47.0691 300.655 42.0381C306.541 45.6541 312.346 49.4619 318.068 53.4616Z" fill="#1A446E"/>
<path d="M319.398 84.5159C319.365 84.1891 319.266 83.8725 319.107 83.5852C318.948 83.2978 318.732 83.0456 318.473 82.8438C318.214 82.642 317.916 82.4947 317.599 82.4108C317.281 82.3269 316.95 82.3082 316.625 82.3557L294.552 84.8838C293.688 85.0321 292.897 85.4641 292.306 86.1115C291.715 86.759 291.357 87.585 291.288 88.4589L287.882 135.889C287.827 136.273 287.862 136.665 287.985 137.034C288.108 137.402 288.314 137.737 288.589 138.012C288.864 138.286 289.199 138.493 289.567 138.616C289.936 138.739 290.328 138.774 290.712 138.719L360.734 130.738C361.598 130.593 362.389 130.164 362.98 129.518C363.572 128.871 363.93 128.046 363.998 127.172L366.828 88.0722C366.89 87.6845 366.859 87.2879 366.739 86.9141C366.62 86.5403 366.414 86.1998 366.139 85.92C365.863 85.6401 365.526 85.4288 365.155 85.3029C364.783 85.177 364.387 85.1401 363.998 85.1951L325.888 89.572C325.127 89.6885 324.35 89.6483 323.605 89.4541C322.859 89.2598 322.162 88.9154 321.554 88.4421C320.947 87.9688 320.442 87.3764 320.071 86.7013C319.701 86.0262 319.472 85.2826 319.398 84.5159Z" fill="#1A446E"/>
<path d="M265.781 121.304C263.818 140.85 261.404 160.291 258.536 179.629C241.324 176.9 224.099 174.262 206.861 171.715C210.282 148.528 213.037 125.172 215.125 101.646C227.784 102.803 240.459 104.01 253.15 105.268C257.395 110.55 261.605 115.896 265.781 121.304Z" fill="#1A446E"/>
<path opacity="0.7" d="M265.781 121.304C263.818 140.85 261.404 160.291 258.536 179.629C241.324 176.9 224.099 174.262 206.861 171.715C210.282 148.528 213.037 125.172 215.125 101.646C227.784 102.803 240.459 104.01 253.15 105.268C257.395 110.55 261.605 115.896 265.781 121.304Z" fill="#FAFAFA"/>
<path d="M259.696 129.596C245.861 127.954 231.985 126.382 218.068 124.879C217.784 124.842 217.526 124.694 217.35 124.468C217.173 124.242 217.092 123.957 217.125 123.672C217.162 123.39 217.309 123.133 217.532 122.957C217.756 122.781 218.039 122.699 218.323 122.729C232.208 124.225 246.087 125.782 259.96 127.398C260.249 127.445 260.509 127.601 260.685 127.835C260.861 128.069 260.939 128.362 260.904 128.653C260.861 128.934 260.713 129.19 260.488 129.365C260.263 129.541 259.98 129.623 259.696 129.596Z" fill="#1A446E"/>
<path d="M258.914 136.652C245.078 134.942 231.212 133.288 217.314 131.69C217.028 131.648 216.77 131.497 216.594 131.268C216.418 131.039 216.338 130.751 216.37 130.464C216.41 130.181 216.558 129.925 216.784 129.749C217.009 129.573 217.294 129.491 217.578 129.521C231.457 131.099 245.327 132.731 259.187 134.416C259.478 134.463 259.739 134.621 259.915 134.857C260.091 135.093 260.169 135.388 260.131 135.68C260.097 135.97 259.951 136.235 259.723 136.417C259.495 136.6 259.204 136.684 258.914 136.652Z" fill="#1A446E"/>
<path d="M258.092 143.708C244.257 141.916 230.4 140.183 216.521 138.511C216.235 138.468 215.977 138.317 215.801 138.088C215.625 137.859 215.545 137.571 215.577 137.284C215.62 137.001 215.77 136.744 215.996 136.568C216.223 136.393 216.509 136.311 216.794 136.341C230.629 137.995 244.49 139.705 258.375 141.473C258.666 141.519 258.927 141.677 259.103 141.913C259.28 142.149 259.357 142.445 259.319 142.737C259.283 143.027 259.135 143.292 258.905 143.474C258.676 143.656 258.384 143.74 258.092 143.708Z" fill="#1A446E"/>
<path d="M257.234 150.755C243.399 148.868 229.564 147.06 215.729 145.331C215.442 145.291 215.183 145.14 215.006 144.911C214.83 144.681 214.75 144.392 214.785 144.105C214.823 143.819 214.972 143.559 215.2 143.383C215.428 143.206 215.716 143.127 216.002 143.161C229.838 144.884 243.688 146.67 257.555 148.519C257.848 148.566 258.11 148.725 258.287 148.963C258.463 149.202 258.539 149.499 258.498 149.793C258.48 149.94 258.432 150.081 258.359 150.209C258.285 150.337 258.186 150.45 258.068 150.539C257.951 150.629 257.816 150.694 257.673 150.731C257.53 150.768 257.381 150.776 257.234 150.755Z" fill="#1A446E"/>
<path d="M239.839 155.499C231.501 154.361 223.162 153.239 214.823 152.132C214.68 152.114 214.542 152.069 214.417 151.997C214.292 151.926 214.182 151.83 214.094 151.716C214.006 151.602 213.942 151.472 213.905 151.332C213.868 151.193 213.86 151.048 213.879 150.905C213.917 150.62 214.066 150.36 214.294 150.184C214.522 150.007 214.81 149.927 215.096 149.962C223.448 151.05 231.787 152.157 240.113 153.283C240.405 153.327 240.667 153.484 240.844 153.721C241.021 153.958 241.097 154.254 241.056 154.547C241.019 154.833 240.87 155.093 240.642 155.272C240.415 155.45 240.127 155.531 239.839 155.499Z" fill="#1A446E"/>
<path d="M265.781 121.304L251.772 119.757C252.263 114.915 252.722 110.069 253.15 105.221C257.395 110.535 261.605 115.896 265.781 121.304Z" fill="#1A446E"/>
</svg>
