<svg width="35" height="35" viewBox="0 0 35 35" fill="none" xmlns="http://www.w3.org/2000/svg">
<rect width="35" height="35" rx="4" fill="white"/>
<path fill-rule="evenodd" clip-rule="evenodd" d="M11.8575 9C10.8347 9 9.85372 9.40621 9.13035 10.1293C8.40698 10.8524 8.00039 11.8332 8 12.856V23.1425C8 24.1656 8.40641 25.1468 9.12982 25.8702C9.85324 26.5936 10.8344 27 11.8575 27H22.144C23.1668 26.9996 24.1476 26.593 24.8707 25.8697C25.5938 25.1463 26 24.1653 26 23.1425V12.856C25.9996 11.8334 25.5932 10.8529 24.8702 10.1298C24.1471 9.40677 23.1666 9.00039 22.144 9H11.8575ZM23.2536 12.8619C23.2536 13.1566 23.1365 13.4392 22.9281 13.6475C22.7198 13.8559 22.4372 13.9729 22.1425 13.9729C21.8479 13.9729 21.5653 13.8559 21.3569 13.6475C21.1486 13.4392 21.0315 13.1566 21.0315 12.8619C21.0315 12.5672 21.1486 12.2847 21.3569 12.0763C21.5653 11.8679 21.8479 11.7509 22.1425 11.7509C22.4372 11.7509 22.7198 11.8679 22.9281 12.0763C23.1365 12.2847 23.2536 12.5672 23.2536 12.8619ZM17.0022 14.918C16.185 14.918 15.4013 15.2427 14.8235 15.8205C14.2456 16.3983 13.921 17.1821 13.921 17.9993C13.921 18.8165 14.2456 19.6002 14.8235 20.178C15.4013 20.7559 16.185 21.0805 17.0022 21.0805C17.8194 21.0805 18.6031 20.7559 19.181 20.178C19.7588 19.6002 20.0834 18.8165 20.0834 17.9993C20.0834 17.1821 19.7588 16.3983 19.181 15.8205C18.6031 15.2427 17.8194 14.918 17.0022 14.918ZM12.4382 17.9993C12.4382 16.7892 12.9189 15.6287 13.7745 14.773C14.6302 13.9174 15.7907 13.4367 17.0007 13.4367C18.2108 13.4367 19.3713 13.9174 20.227 14.773C21.0826 15.6287 21.5633 16.7892 21.5633 17.9993C21.5633 19.2093 21.0826 20.3698 20.227 21.2255C19.3713 22.0811 18.2108 22.5618 17.0007 22.5618C15.7907 22.5618 14.6302 22.0811 13.7745 21.2255C12.9189 20.3698 12.4382 19.2093 12.4382 17.9993Z" fill="#2E6092"/>
</svg>
